{
.appVersion = "895";
DisplayStrings = (
"nnnnoooo\012abcdefghijkl\012mnopqrstu\012vwxyz",
"@"
);
copyright = "Copyright 2009, 2010, 2011 by Daniel Johnson.  Released under the terms of the Open Font License.";
customParameters = (
{
name = glyphOrder;
value = (
.notdef,
space,
exclam,
quotedbl,
numbersign,
dollar,
percent,
ampersand,
quotesingle,
parenleft,
parenright,
asterisk,
plus,
comma,
hyphen,
period,
slash,
zero,
one,
two,
three,
four,
five,
six,
seven,
eight,
nine,
colon,
semicolon,
less,
equal,
greater,
question,
at,
A,
B,
C,
D,
E,
F,
G,
H,
I,
J,
K,
L,
M,
N,
O,
P,
Q,
R,
S,
T,
U,
V,
W,
X,
Y,
Z,
bracketleft,
backslash,
bracketright,
asciicircum,
underscore,
grave,
a,
b,
c,
d,
e,
f,
g,
h,
i,
j,
k,
l,
m,
n,
o,
p,
q,
r,
s,
t,
u,
v,
w,
x,
y,
z,
braceleft,
bar,
braceright,
asciitilde,
exclamdown,
cent,
sterling,
currency,
yen,
brokenbar,
section,
dieresis,
copyright,
ordfeminine,
guillemotleft,
logicalnot,
uni00AD,
registered,
macron,
degree,
plusminus,
twosuperior,
threesuperior,
acute,
uni00B5,
paragraph,
periodcentered,
cedilla,
onesuperior,
ordmasculine,
guillemotright,
onequarter,
onehalf,
threequarters,
questiondown,
Agrave,
Aacute,
Acircumflex,
Atilde,
Adieresis,
Aring,
AE,
Ccedilla,
Egrave,
Eacute,
Ecircumflex,
Edieresis,
Igrave,
Iacute,
Icircumflex,
Idieresis,
Eth,
Ntilde,
Ograve,
Oacute,
Ocircumflex,
Otilde,
Odieresis,
multiply,
Oslash,
Ugrave,
Uacute,
Ucircumflex,
Udieresis,
Yacute,
Thorn,
germandbls,
agrave,
aacute,
acircumflex,
atilde,
adieresis,
aring,
ae,
ccedilla,
egrave,
eacute,
ecircumflex,
edieresis,
igrave,
iacute,
icircumflex,
idieresis,
eth,
ntilde,
ograve,
oacute,
ocircumflex,
otilde,
odieresis,
divide,
oslash,
ugrave,
uacute,
ucircumflex,
udieresis,
yacute,
thorn,
ydieresis,
Amacron,
amacron,
Abreve,
abreve,
Aogonek,
aogonek,
Cacute,
cacute,
Ccircumflex,
ccircumflex,
Cdotaccent,
cdotaccent,
Ccaron,
ccaron,
Dcaron,
dcaron,
Dcroat,
dcroat,
Emacron,
emacron,
Edotaccent,
edotaccent,
Eogonek,
eogonek,
Ecaron,
ecaron,
Gcircumflex,
gcircumflex,

glyphs = (
{
glyphname = .notdef;
lastChange = "2016-06-28 16:50:18 +0000";
layers = (
{
layerId = "E470338E-0F5C-48CE-A795-CCBFA337B20F";
paths = (
{
closed = 1;
nodes = (
"453 0 LINE",
"453 678 LINE",
"85 678 LINE",
"85 0 LINE"
);
},
{
closed = 1;
nodes = (
"168.667 71 OFFCURVE",
"156 87.333 OFFCURVE",
"156 130 CURVE SMOOTH",
"156 546 LINE SMOOTH",
"156 588.667 OFFCURVE",
"168.667 606 OFFCURVE",
"210 606 CURVE SMOOTH",
"328 606 LINE SMOOTH",
"369.333 606 OFFCURVE",
"382 588.667 OFFCURVE",
"382 546 CURVE SMOOTH",
"382 130 LINE SMOOTH",
"382 87.333 OFFCURVE",
"369.333 71 OFFCURVE",
"328 71 CURVE SMOOTH",
"210 71 LINE SMOOTH"
);
}
);
width = 538;
},
{
layerId = "85CA6BE8-4AFB-4921-9C51-19E8EEB169E9";
paths = (
{
closed = 1;
nodes = (
"453 0 LINE",
"453 678 LINE",
"85 678 LINE",
"85 0 LINE"
);
},
{
closed = 1;
nodes = (
"170.043 71 OFFCURVE",
"156 86.343 OFFCURVE",
"156 130 CURVE SMOOTH",
"156 546 LINE SMOOTH",
"156 590.03 OFFCURVE",
"170.373 606 OFFCURVE",
"210 606 CURVE SMOOTH",
"328 606 LINE SMOOTH",
"367.627 606 OFFCURVE",
"382 590.03 OFFCURVE",
"382 546 CURVE SMOOTH",
"382 130 LINE SMOOTH",
"382 86.343 OFFCURVE",
"367.957 71 OFFCURVE",
"328 71 CURVE SMOOTH",
"210 71 LINE SMOOTH"
);
}
);
width = 538;
}
);
},
{
glyphname = exclam;
lastChange = "2016-06-28 16:51:05 +0000";
layers = (
{
layerId = "E470338E-0F5C-48CE-A795-CCBFA337B20F";
paths = (
{
closed = 1;
nodes = (
"128 169 OFFCURVE",
"138 178 OFFCURVE",
"138 197 CURVE SMOOTH",
"138 616 LINE SMOOTH",
"138 635 OFFCURVE",
"128 644 OFFCURVE",
"117 644 CURVE SMOOTH",
"107 644 OFFCURVE",
"96 635 OFFCURVE",
"96 616 CURVE SMOOTH",
"96 197 LINE SMOOTH",
"96 178 OFFCURVE",
"107 169 OFFCURVE",
"117 169 CURVE SMOOTH"
);
},
{
closed = 1;
nodes = (
"139 -7 OFFCURVE",
"164 11 OFFCURVE",
"164 31 CURVE SMOOTH",
"164 46 OFFCURVE",
"143 65 OFFCURVE",
"121 65 CURVE SMOOTH",
"97 65 OFFCURVE",
"71 46 OFFCURVE",
"71 27 CURVE SMOOTH",
"71 10 OFFCURVE",
"96 -7 OFFCURVE",
"115 -7 CURVE SMOOTH"
);
}
);
width = 234;
},
{
layerId = "85CA6BE8-4AFB-4921-9C51-19E8EEB169E9";
paths = (
{
closed = 1;
nodes = (
"153.725 154 OFFCURVE",
"166 168.662 OFFCURVE",
"166 197 CURVE SMOOTH",
"166 616 LINE SMOOTH",
"166 641.297 OFFCURVE",
"150.922 659.529 OFFCURVE",
"130 659.529 CURVE SMOOTH",
"109.078 659.529 OFFCURVE",
"94 641.297 OFFCURVE",
"94 616 CURVE SMOOTH",
"94 197 LINE SMOOTH",
"94 168.662 OFFCURVE",
"106.275 154 OFFCURVE",
"130 154 CURVE SMOOTH"
);
},
{
closed = 1;
nodes = (
"161.629 -22.976 OFFCURVE",
"192.157 3.587 OFFCURVE",
"192.157 28.857 CURVE SMOOTH",
"192.157 54.08 OFFCURVE",
"159.333 80.966 OFFCURVE",
"128.539 80.966 CURVE SMOOTH",
"99.382 80.966 OFFCURVE",
"68.763 54.64 OFFCURVE",
"68.763 29.571 CURVE SMOOTH",
"68.763 4.267 OFFCURVE",
"101.854 -22.976 OFFCURVE",
"132.588 -22.976 CURVE SMOOTH"
);
}
);
width = 260;
}
);
unicode = 0021;
},
{
glyphname = quotedbl;
lastChange = "2016-06-28 16:50:45 +0000";
layers = (
{
layerId = "E470338E-0F5C-48CE-A795-CCBFA337B20F";
paths = (
{
closed = 1;
nodes = (
"204 438 OFFCURVE",
"214 447 OFFCURVE",
"214 466 CURVE SMOOTH",
"214 615 LINE SMOOTH",
"214 634 OFFCURVE",
"204 643 OFFCURVE",
"193 643 CURVE SMOOTH",
"183 643 OFFCURVE",
"172 634 OFFCURVE",
"172 615 CURVE SMOOTH",
"172 466 LINE SMOOTH",
"172 447 OFFCURVE",
"183 438 OFFCURVE",
"193 438 CURVE SMOOTH"
);
},
{
closed = 1;
nodes = (
"102 438 OFFCURVE",
"112 447 OFFCURVE",
"112 466 CURVE SMOOTH",
"112 615 LINE SMOOTH",
"112 634 OFFCURVE",
"102 643 OFFCURVE",
"92 643 CURVE SMOOTH",
"82 643 OFFCURVE",
"72 634 OFFCURVE",
"71 615 CURVE",
"71 466 LINE",
"72 447 OFFCURVE",
"82 438 OFFCURVE",
"92 438 CURVE SMOOTH"
);
}
);
width = 285;
},
{
layerId = "85CA6BE8-4AFB-4921-9C51-19E8EEB169E9";
paths = (
{
closed = 1;
nodes = (
"231.725 423 OFFCURVE",
"244 437.662 OFFCURVE",
"244 466 CURVE SMOOTH",
"244 615 LINE SMOOTH",
"244 640.297 OFFCURVE",
"228.922 658.529 OFFCURVE",
"208 658.529 CURVE SMOOTH",
"187.078 658.529 OFFCURVE",
"172 640.297 OFFCURVE",
"172 615 CURVE SMOOTH",
"172 466 LINE SMOOTH",
"172 437.662 OFFCURVE",
"184.275 423 OFFCURVE",
"208 423 CURVE SMOOTH"
);
},
{
closed = 1;
nodes = (
"127.825 423 OFFCURVE",
"142 439.414 OFFCURVE",
"142 466 CURVE SMOOTH",
"142 615 LINE SMOOTH",
"142 643.133 OFFCURVE",
"130.291 658 OFFCURVE",
"108.133 658 CURVE SMOOTH",
"85.175 658 OFFCURVE",
"71 641.586 OFFCURVE",
"71 615 CURVE SMOOTH",
"71 466 LINE SMOOTH",
"71 437.867 OFFCURVE",
"82.709 423 OFFCURVE",
"104.867 423 CURVE SMOOTH"
);
}
);
width = 314;
}
);
unicode = 0022;
},
{
glyphname = numbersign;
lastChange = "2016-06-28 16:53:38 +0000";
layers = (
{
layerId = "E470338E-0F5C-48CE-A795-CCBFA337B20F";
paths = (
{
closed = 1;
nodes = (
"115 11 OFFCURVE",
"122.333 18 OFFCURVE",
"127 32 CURVE SMOOTH",
"190 205 LINE",
"325 205 LINE",
"305 152 OFFCURVE",
"286 99 OFFCURVE",
"266 46 CURVE SMOOTH",
"260 30 OFFCURVE",
"262 11 OFFCURVE",
"284 11 CURVE SMOOTH",
"294 11 OFFCURVE",
"301.333 18 OFFCURVE",
"306 32 CURVE SMOOTH",
"370 205 LINE",
"491 205 LINE SMOOTH",
"510 205 OFFCURVE",
"519 216 OFFCURVE",
"519 226 CURVE SMOOTH",
"519 237 OFFCURVE",
"510 247 OFFCURVE",
"491 247 CURVE SMOOTH",
"385 247 LINE",
"436 389 LINE",
"522 389 LINE SMOOTH",
"541 389 OFFCURVE",
"550 400 OFFCURVE",
"550 410 CURVE SMOOTH",
"550 421 OFFCURVE",
"541 431 OFFCURVE",
"522 431 CURVE SMOOTH",
"452 431 LINE",
"510 590 LINE",
"517 608 OFFCURVE",
"511 625 OFFCURVE",
"495 625 CURVE",
"482 625 OFFCURVE",
"475 617 OFFCURVE",
"470 604 CURVE SMOOTH",
"406 431 LINE",
"272 431 LINE",
"331 590 LINE",
"338 610 OFFCURVE",
"333 625 OFFCURVE",
"313 625 CURVE SMOOTH",
"303.667 625 OFFCURVE",
"296.667 618 OFFCURVE",
"292 604 CURVE SMOOTH",
"228 431 LINE",
"103 431 LINE SMOOTH",
"85 431 OFFCURVE",
"76 421 OFFCURVE",
"76 410 CURVE SMOOTH",
"76 400 OFFCURVE",
"85 389 OFFCURVE",
"103 389 CURVE SMOOTH",
"213 389 LINE",
"162 247 LINE",
"73 247 LINE SMOOTH",
"54 247 OFFCURVE",
"45 237 OFFCURVE",
"45 226 CURVE SMOOTH",
"45 216 OFFCURVE",
"54 205 OFFCURVE",
"73 205 CURVE SMOOTH",
"146 205 LINE",
"88 46 LINE",
"81 26 OFFCURVE",
"85 11 OFFCURVE",
"105 11 CURVE SMOOTH"
);
},
{
closed = 1;
nodes = (
"257 389 LINE",
"391 389 LINE",
"340 247 LINE",
"206 247 LINE"
);
}
);
width = 595;
},
{
layerId = "85CA6BE8-4AFB-4921-9C51-19E8EEB169E9";
paths = (
{
closed = 1;
nodes = (
"132 -5 OFFCURVE",
"148.737 8.59 OFFCURVE",
"155 26 CURVE SMOOTH",
"214 190 LINE",
"317 190 LINE",
"304.505 157.466 OFFCURVE",
"260.89 62.239 OFFCURVE",
"260.89 29.893 CURVE SMOOTH",
"260.89 10.873 OFFCURVE",
"275.632 -4.323 OFFCURVE",
"294.083 -4.323 CURVE SMOOTH",
"310.72 -4.323 OFFCURVE",
"327.743 8.609 OFFCURVE",
"334 26 CURVE SMOOTH",
"393 190 LINE",
"504 190 LINE SMOOTH",
"532.338 190 OFFCURVE",
"547 202.275 OFFCURVE",
"547 226 CURVE SMOOTH",
"547 249.725 OFFCURVE",
"532.338 262 OFFCURVE",
"504 262 CURVE SMOOTH",
"419 262 LINE",
"460 374 LINE",
"535 374 LINE SMOOTH",
"560.619 374 OFFCURVE",
"579 389 OFFCURVE",
"578.529 411.666 CURVE SMOOTH",
"579 439 OFFCURVE",
"567 448 OFFCURVE",
"531 447 CURVE SMOOTH",
"486 446 LINE",
"540.183 606.492 LINE",
"540.183 626.603 OFFCURVE",
"526.964 640 OFFCURVE",
"507.121 640 CURVE SMOOTH",
"489.104 640 OFFCURVE",
"474.864 629.08 OFFCURVE",
"468 610 CURVE SMOOTH",
"409 446 LINE",
"306 446 LINE",
"361.874 606.727 LINE",
"361.874 625.605 OFFCURVE",
"346.428 640 OFFCURVE",
"326.17 640 CURVE SMOOTH",
"308.893 640 OFFCURVE",
"297.348 630.425 OFFCURVE",
"290 610 CURVE SMOOTH",
"231 446 LINE",
"116 446 LINE SMOOTH",
"89.311 446 OFFCURVE",
"74 432.625 OFFCURVE",
"74 409.311 CURVE SMOOTH",
"74 386.233 OFFCURVE",
"88.551 374 OFFCURVE",
"116 374 CURVE SMOOTH",
"205 374 LINE",
"164 262 LINE",
"86 262 LINE SMOOTH",
"60.396 262 OFFCURVE",
"43 247 OFFCURVE",
"42.471 224.416 CURVE SMOOTH",
"42 202 OFFCURVE",
"55 190 OFFCURVE",
"93 190 CURVE",
"138 190 LINE",
"82.878 29.547 LINE SMOOTH",
"77 12 OFFCURVE",
"93 -4 OFFCURVE",
"116 -4.345 CURVE SMOOTH"
);
},
{
closed = 1;
nodes = (
"281 374 LINE",
"383 374 LINE",
"342 262 LINE",
"240 262 LINE"
);
}
);
width = 622;
}
);
unicode = 0023;
},
{
glyphname = dollar;
lastChange = "2016-06-28 16:59:29 +0000";
layers = (
{
layerId = "E470338E-0F5C-48CE-A795-CCBFA337B20F";
paths = (
{
closed = 1;
nodes = (
"299 -7 OFFCURVE",
"309 2 OFFCURVE",
"309 20 CURVE SMOOTH",
"309 91 LINE",
"384 91 LINE SMOOTH",
"466 91 OFFCURVE",
"507 132 OFFCURVE",
"507 214 CURVE SMOOTH",
"507 303.333 OFFCURVE",
"466 348 OFFCURVE",
"384 348 CURVE SMOOTH",
"309 348 LINE",
"309 510 LINE",
"403 510 LINE SMOOTH",
"448.333 510 OFFCURVE",
"463 489.667 OFFCURVE",
"463 447 CURVE SMOOTH",
"463 426 OFFCURVE",
"473 415 OFFCURVE",
"484 415 CURVE SMOOTH",
"494 415 OFFCURVE",
"505 426 OFFCURVE",
"505 450 CURVE SMOOTH",
"505 521 OFFCURVE",
"476 552 OFFCURVE",
"410 552 CURVE SMOOTH",
"309 552 LINE",
"309 615 LINE SMOOTH",
"309 634 OFFCURVE",
"299 643 OFFCURVE",
"288 643 CURVE SMOOTH",
"278 643 OFFCURVE",
"267 634 OFFCURVE",
"267 615 CURVE SMOOTH",
"267 552 LINE",
"185 552 LINE SMOOTH",
"95.667 552 OFFCURVE",
"61 503 OFFCURVE",
"61 426 CURVE SMOOTH",
"61 341 OFFCURVE",
"102.333 306 OFFCURVE",
"185 306 CURVE SMOOTH",
"267 306 LINE",
"267 133 LINE",
"163 133 LINE SMOOTH",
"117.667 133 OFFCURVE",
"103 153.333 OFFCURVE",
"103 196 CURVE SMOOTH",
"103 217 OFFCURVE",
"93 228 OFFCURVE",
"82 228 CURVE SMOOTH",
"72 228 OFFCURVE",
"61 217 OFFCURVE",
"61 193 CURVE SMOOTH",
"61 122 OFFCURVE",
"90 91 OFFCURVE",
"156 91 CURVE SMOOTH",
"267 91 LINE",
"267 20 LINE SMOOTH",
"267 2 OFFCURVE",
"278 -7 OFFCURVE",
"288 -7 CURVE SMOOTH"
);
},
{
closed = 1;
nodes = (
"309 306 LINE",
"401 306 LINE SMOOTH",
"438.333 306 OFFCURVE",
"465 280 OFFCURVE",
"465 224 CURVE SMOOTH",
"465 160 OFFCURVE",
"443.667 133 OFFCURVE",
"401 133 CURVE SMOOTH",
"309 133 LINE"
);
},
{
closed = 1;
nodes = (
"130 348 OFFCURVE",
"103 371 OFFCURVE",
"103 426 CURVE SMOOTH",
"103 477 OFFCURVE",
"124.333 510 OFFCURVE",
"167 510 CURVE SMOOTH",
"267 510 LINE",
"267 348 LINE",
"167 348 LINE SMOOTH"
);
}
);
width = 567;
},
{
layerId = "85CA6BE8-4AFB-4921-9C51-19E8EEB169E9";
paths = (
{
closed = 1;
nodes = (
"352 -7 OFFCURVE",
"356 7 OFFCURVE",
"356 46 CURVE",
"356 84 LINE",
"378 84 LINE",
"482 84 OFFCURVE",
"567 88 OFFCURVE",
"567 224 CURVE SMOOTH",
"567 339 OFFCURVE",
"485 363 OFFCURVE",
"399 363 CURVE",
"356 363 LINE",
"356 485 LINE",
"450 485 LINE SMOOTH",
"491 485 OFFCURVE",
"497 466 OFFCURVE",
"496 438 CURVE SMOOTH",
"495 409 OFFCURVE",
"507 398 OFFCURVE",
"532 398 CURVE",
"561 398 OFFCURVE",
"567 415 OFFCURVE",
"567 454.47 CURVE SMOOTH",
"567 546 OFFCURVE",
"510 557 OFFCURVE",
"440 557 CURVE",
"356 557 LINE",
"356 592 LINE",
"356 619 OFFCURVE",
"353 643 OFFCURVE",
"321.183 643 CURVE SMOOTH",
"289 643 OFFCURVE",
"284 618 OFFCURVE",
"284 592 CURVE",
"284 557 LINE",
"234 557 LINE",
"144 557 OFFCURVE",
"61 548 OFFCURVE",
"61 424.287 CURVE SMOOTH",
"61 298 OFFCURVE",
"148 291 OFFCURVE",
"245 291 CURVE",
"284 291 LINE",
"284 156 LINE",
"178 156 LINE SMOOTH",
"142 156 OFFCURVE",
"133 171 OFFCURVE",
"133 205 CURVE SMOOTH",
"133 232 OFFCURVE",
"127 246 OFFCURVE",
"100.693 246 CURVE SMOOTH",
"71.994 246 OFFCURVE",
"61 230.269 OFFCURVE",
"61 189.206 CURVE SMOOTH",
"61 103 OFFCURVE",
"115 83 OFFCURVE",
"188 83 CURVE",
"284 84 LINE",
"284 48 LINE",
"284 8 OFFCURVE",
"290 -7 OFFCURVE",
"320 -7 CURVE SMOOTH"
);
},
{
closed = 1;
nodes = (
"356 291 LINE",
"446 291 LINE SMOOTH",
"474.677 291 OFFCURVE",
"495 272 OFFCURVE",
"495 225 CURVE SMOOTH",
"495 178 OFFCURVE",
"488 156 OFFCURVE",
"444 156 CURVE SMOOTH",
"356 156 LINE"
);
},
{
closed = 1;
nodes = (
"152.179 363 OFFCURVE",
"133 382 OFFCURVE",
"133 428 CURVE SMOOTH",
"133 463 OFFCURVE",
"145.9 485 OFFCURVE",
"182 485 CURVE SMOOTH",
"284 485 LINE",
"284 363 LINE",
"182 363 LINE SMOOTH"
);
}
);
width = 628;
}
);
unicode = 0024;
},
{
glyphname = percent;
lastChange = "2016-06-28 17:00:02 +0000";
layers = (
{
layerId = "E470338E-0F5C-48CE-A795-CCBFA337B20F";
paths = (
{
closed = 1;
nodes = (
"95 127 OFFCURVE",
"103 130 OFFCURVE",
"110 137 CURVE SMOOTH",
"460 487 LINE",
"467 496 OFFCURVE",
"470 504 OFFCURVE",
"470 510 CURVE SMOOTH",
"470 520 OFFCURVE",
"463 527 OFFCURVE",
"453 527 CURVE SMOOTH",
"446 527 OFFCURVE",
"438 524 OFFCURVE",
"430 517 CURVE",
"80 167 LINE SMOOTH",
"72 159 OFFCURVE",
"69 152 OFFCURVE",
"69 145 CURVE SMOOTH",
"69 135 OFFCURVE",
"77 127 OFFCURVE",
"88 127 CURVE SMOOTH"
);
},
{
closed = 1;
nodes = (
"420 105 OFFCURVE",
"460 145 OFFCURVE",
"460 187 CURVE SMOOTH",
"460 224 OFFCURVE",
"422 261 OFFCURVE",
"386 261 CURVE SMOOTH",
"344 261 OFFCURVE",
"304 221 OFFCURVE",
"304 179 CURVE SMOOTH",
"304 142 OFFCURVE",
"342 105 OFFCURVE",
"378 105 CURVE SMOOTH"
);
},
{
closed = 1;
nodes = (
"360 148 OFFCURVE",
"348 166 OFFCURVE",
"348 183 CURVE SMOOTH",
"348 201 OFFCURVE",
"360 218 OFFCURVE",
"382.5 218 CURVE SMOOTH",
"405 218 OFFCURVE",
"416 201 OFFCURVE",
"416 183 CURVE SMOOTH",
"416 166 OFFCURVE",
"405 148 OFFCURVE",
"382.5 148 CURVE SMOOTH"
);
},
{
closed = 1;
nodes = (
"197 394 OFFCURVE",
"235 426 OFFCURVE",
"235 471 CURVE SMOOTH",
"235 514 OFFCURVE",
"201 548 OFFCURVE",
"159 548 CURVE SMOOTH",
"116 548 OFFCURVE",
"81 513 OFFCURVE",
"81 471 CURVE SMOOTH",
"81 429 OFFCURVE",
"116 394 OFFCURVE",
"159 394 CURVE SMOOTH"
);
},
{
closed = 1;
nodes = (
"141 436 OFFCURVE",
"124 453 OFFCURVE",
"124 472 CURVE SMOOTH",
"124 490 OFFCURVE",
"141 506 OFFCURVE",
"158 506 CURVE SMOOTH",
"177 506 OFFCURVE",
"194 489 OFFCURVE",
"194 470 CURVE SMOOTH",
"194 452 OFFCURVE",
"177 436 OFFCURVE",
"160 436 CURVE SMOOTH"
);
}
);
width = 540;
},
{
layerId = "85CA6BE8-4AFB-4921-9C51-19E8EEB169E9";
paths = (
{
closed = 1;
nodes = (
"113.292 102.201 OFFCURVE",
"123.859 106.674 OFFCURVE",
"133 115 CURVE SMOOTH",
"514 462 LINE SMOOTH",
"523.364 470.528 OFFCURVE",
"529.169 482.63 OFFCURVE",
"529.169 493.623 CURVE SMOOTH",
"529.169 511.658 OFFCURVE",
"513.467 526.214 OFFCURVE",
"494.009 526.214 CURVE SMOOTH",
"483.51 526.214 OFFCURVE",
"472.527 521.743 OFFCURVE",
"464 514 CURVE SMOOTH",
"83 168 LINE SMOOTH",
"73.328 159.217 OFFCURVE",
"67.124 146.349 OFFCURVE",
"67.124 135.075 CURVE SMOOTH",
"67.124 116.946 OFFCURVE",
"83.111 102.201 OFFCURVE",
"102.767 102.201 CURVE SMOOTH"
);
},
{
closed = 1;
nodes = (
"475.543 91 OFFCURVE",
"517 131.896 OFFCURVE",
"517 183 CURVE SMOOTH",
"517 234.104 OFFCURVE",
"475.543 275 OFFCURVE",
"423.738 275 CURVE SMOOTH",
"369.304 275 OFFCURVE",
"322 232.224 OFFCURVE",
"322 183 CURVE SMOOTH",
"322 133.776 OFFCURVE",
"369.304 91 OFFCURVE",
"423.738 91 CURVE SMOOTH"
);
},
{
closed = 1;
nodes = (
"414.161 163.281 OFFCURVE",
"405.281 172.161 OFFCURVE",
"405.281 182.94 CURVE SMOOTH",
"405.281 194.269 OFFCURVE",
"414.7 203 OFFCURVE",
"426.923 203 CURVE SMOOTH",
"438.048 203 OFFCURVE",
"445 196.048 OFFCURVE",
"445 184.923 CURVE SMOOTH",
"445 172.7 OFFCURVE",
"436.269 163.281 OFFCURVE",
"424.94 163.281 CURVE SMOOTH"
);
},
{
closed = 1;
nodes = (
"226.845 369 OFFCURVE",
"274 411.339 OFFCURVE",
"274 459.971 CURVE SMOOTH",
"274 507.773 OFFCURVE",
"227.68 548 OFFCURVE",
"172.639 548 CURVE SMOOTH",
"120.056 548 OFFCURVE",
"79 509.421 OFFCURVE",
"79 460.01 CURVE SMOOTH",
"79 409.677 OFFCURVE",
"120.872 369 OFFCURVE",
"172.682 369 CURVE SMOOTH"
);
},
{
closed = 1;
nodes = (
"160.908 441 OFFCURVE",
"153.01 448.566 OFFCURVE",
"153.01 458.9 CURVE SMOOTH",
"153.01 468.957 OFFCURVE",
"160.542 476 OFFCURVE",
"171.297 476 CURVE SMOOTH",
"182.53 476 OFFCURVE",
"191 468 OFFCURVE",
"190.721 458.574 CURVE SMOOTH",
"190.721 448.48 OFFCURVE",
"182.624 441 OFFCURVE",
"171.697 441 CURVE SMOOTH"
);
}
);
width = 597;
}
);
unicode = 0025;
},
{
glyphname = ampersand;
lastChange = "2016-06-28 17:01:03 +0000";
layers = (
{
layerId = "E470338E-0F5C-48CE-A795-CCBFA337B20F";
paths = (
{
closed = 1;
nodes = (
"288 -9 OFFCURVE",
"340 9 OFFCURVE",
"386 52 CURVE",
"425 7 LINE SMOOTH",
"433.667 -2.333 OFFCURVE",
"442.333 -7 OFFCURVE",
"451 -7 CURVE SMOOTH",
"462.333 -7 OFFCURVE",
"468 -1 OFFCURVE",
"468 11 CURVE SMOOTH",
"468 18.333 OFFCURVE",
"466 24.333 OFFCURVE",
"462 29 CURVE SMOOTH",
"414 84 LINE",
"444.667 126 OFFCURVE",
"460 173.667 OFFCURVE",
"460 227 CURVE SMOOTH",
"460 247.667 OFFCURVE",
"453.667 258 OFFCURVE",
"441 258 CURVE SMOOTH",
"426.333 258 OFFCURVE",
"419 247.667 OFFCURVE",
"419 227 CURVE SMOOTH",
"419 185 OFFCURVE",
"407.667 148.333 OFFCURVE",
"385 117 CURVE",
"145 394 LINE SMOOTH",
"119 424 OFFCURVE",
"106 451.333 OFFCURVE",
"106 476 CURVE SMOOTH",
"106 553.333 OFFCURVE",
"169.667 605 OFFCURVE",
"235 605 CURVE SMOOTH",
"293.562 605 OFFCURVE",
"312.069 550.179 OFFCURVE",
"332 523 CURVE SMOOTH",
"340 512 OFFCURVE",
"348 508 OFFCURVE",
"355 508 CURVE SMOOTH",
"364 508 OFFCURVE",
"374 518 OFFCURVE",
"374 526 CURVE SMOOTH",
"374 533 OFFCURVE",
"370 544 OFFCURVE",
"359 563.5 CURVE SMOOTH",
"339 598.833 OFFCURVE",
"289 647 OFFCURVE",
"237 647 CURVE SMOOTH",
"151.667 647 OFFCURVE",
"62 574.667 OFFCURVE",
"62 476 CURVE SMOOTH",
"62 439 OFFCURVE",
"79 408 OFFCURVE",
"123 356 CURVE",
"64 316 OFFCURVE",
"38 247 OFFCURVE",
"38 182 CURVE SMOOTH",
"38 64 OFFCURVE",
"123 -9 OFFCURVE",
"238 -9 CURVE SMOOTH"
);
},
{
closed = 1;
nodes = (
"153 33 OFFCURVE",
"79 86 OFFCURVE",
"79 182 CURVE SMOOTH",
"79 238 OFFCURVE",
"101.667 297 OFFCURVE",
"151 325 CURVE",
"359 84 LINE",
"323 50 OFFCURVE",
"276 33 OFFCURVE",
"232 33 CURVE SMOOTH"
);
}
);
width = 494;
},
{
layerId = "85CA6BE8-4AFB-4921-9C51-19E8EEB169E9";
paths = (
{
closed = 1;
nodes = (
"310.557 -24 OFFCURVE",
"359.509 -5.813 OFFCURVE",
"403 31 CURVE",
"426 4 LINE",
"439 -10 OFFCURVE",
"453 -22 OFFCURVE",
"469.423 -22.369 CURVE SMOOTH",
"486.71 -22.369 OFFCURVE",
"502.386 -6.281 OFFCURVE",
"502.386 11.462 CURVE SMOOTH",
"502 27 OFFCURVE",
"490 44 OFFCURVE",
"476 58 CURVE",
"451 84 LINE",
"478.544 124.988 OFFCURVE",
"494 173.899 OFFCURVE",
"494 220.07 CURVE SMOOTH",
"494 256.587 OFFCURVE",
"483.162 273 OFFCURVE",
"459.05 273 CURVE SMOOTH",
"434.872 273 OFFCURVE",
"423 256.154 OFFCURVE",
"423 221.845 CURVE SMOOTH",
"423 193.726 OFFCURVE",
"415.468 165.087 OFFCURVE",
"402 142 CURVE",
"176 403 LINE SMOOTH",
"151.183 431.66 OFFCURVE",
"140 456.589 OFFCURVE",
"140 483.25 CURVE SMOOTH",
"140 539.891 OFFCURVE",
"189.806 590 OFFCURVE",
"246.103 590 CURVE SMOOTH",
"296 590 OFFCURVE",
"314 550 OFFCURVE",
"333 522 CURVE SMOOTH",
"344 506 OFFCURVE",
"355 493 OFFCURVE",
"372.191 492.975 CURVE SMOOTH",
"391.657 492.975 OFFCURVE",
"408.057 508.622 OFFCURVE",
"408.057 527.195 CURVE SMOOTH",
"408.057 535.038 OFFCURVE",
"403.181 550.491 OFFCURVE",
"397.422 560.896 CURVE SMOOTH",
"363.014 623.067 OFFCURVE",
"303.709 662 OFFCURVE",
"243.417 662 CURVE SMOOTH",
"151.384 662 OFFCURVE",
"66 575.439 OFFCURVE",
"66 482.137 CURVE SMOOTH",
"66 439.205 OFFCURVE",
"84.204 398.448 OFFCURVE",
"121 359 CURVE",
"68.73 317.196 OFFCURVE",
"41 257.732 OFFCURVE",
"41 187.451 CURVE SMOOTH",
"41 64.072 OFFCURVE",
"130.118 -24 OFFCURVE",
"254.96 -24 CURVE SMOOTH"
);
},
{
closed = 1;
nodes = (
"167.812 48 OFFCURVE",
"113 102.457 OFFCURVE",
"113 186.822 CURVE SMOOTH",
"113 237.999 OFFCURVE",
"132.118 279.84 OFFCURVE",
"167 305 CURVE",
"357 86 LINE",
"326.915 60.547 OFFCURVE",
"292.485 48 OFFCURVE",
"252.726 48 CURVE SMOOTH"
);
}
);
width = 534;
}
);
unicode = 0026;
},
{
glyphname = quotesingle;
lastChange = "2016-06-28 17:01:11 +0000";
layers = (
{
layerId = "E470338E-0F5C-48CE-A795-CCBFA337B20F";
paths = (
{
closed = 1;
nodes = (
"102 438 OFFCURVE",
"112 447 OFFCURVE",
"112 466 CURVE SMOOTH",
"112 615 LINE SMOOTH",
"112 634 OFFCURVE",
"102 643 OFFCURVE",
"92 643 CURVE SMOOTH",
"82 643 OFFCURVE",
"72 634 OFFCURVE",
"71 615 CURVE",
"71 466 LINE",
"72 447 OFFCURVE",
"82 438 OFFCURVE",
"92 438 CURVE SMOOTH"
);
}
);
width = 183;
},
{
layerId = "85CA6BE8-4AFB-4921-9C51-19E8EEB169E9";
paths = (
{
closed = 1;
nodes = (
"127.825 423 OFFCURVE",
"142 439.414 OFFCURVE",
"142 466 CURVE SMOOTH",
"142 615 LINE SMOOTH",
"142 643.133 OFFCURVE",
"130.291 658 OFFCURVE",
"108.133 658 CURVE SMOOTH",
"85.175 658 OFFCURVE",
"71 641.586 OFFCURVE",
"71 615 CURVE SMOOTH",
"71 466 LINE SMOOTH",
"71 437.867 OFFCURVE",
"82.709 423 OFFCURVE",
"104.867 423 CURVE SMOOTH"
);
}
);
width = 212;
}
);
unicode = 0027;
},
{
glyphname = parenleft;
lastChange = "2016-06-28 17:01:13 +0000";
layers = (
{
layerId = "E470338E-0F5C-48CE-A795-CCBFA337B20F";
paths = (
{
closed = 1;
nodes = (
"193 0 LINE",
"157 0 OFFCURVE",
"135 6.833 OFFCURVE",
"127 20.5 CURVE SMOOTH",
"119 34.167 OFFCURVE",
"115 71.667 OFFCURVE",
"115 133 CURVE SMOOTH",
"115 503 LINE SMOOTH",
"115 564.333 OFFCURVE",
"119 601.833 OFFCURVE",
"127 615.5 CURVE SMOOTH",
"135 629.167 OFFCURVE",
"157 636 OFFCURVE",
"193 636 CURVE",
"193 678 LINE",
"163 678 OFFCURVE",
"140 674 OFFCURVE",
"124 666 CURVE SMOOTH",
"90 649.333 OFFCURVE",
"73 595 OFFCURVE",
"73 503 CURVE SMOOTH",
"73 133 LINE SMOOTH",
"73 41.667 OFFCURVE",
"90 -12.667 OFFCURVE",
"124 -30 CURVE SMOOTH",
"140 -38 OFFCURVE",
"163 -42 OFFCURVE",
"193 -42 CURVE"
);
}
);
width = 237;
},
{
layerId = "85CA6BE8-4AFB-4921-9C51-19E8EEB169E9";
paths = (
{
closed = 1;
nodes = (
"223 15 LINE",
"207.247 15 OFFCURVE",
"184.445 13.908 OFFCURVE",
"172.2 19.072 CURVE SMOOTH",
"139.716 32.772 OFFCURVE",
"145 105.91 OFFCURVE",
"145 133 CURVE SMOOTH",
"145 503 LINE SMOOTH",
"145 528.48 OFFCURVE",
"138.456 603.788 OFFCURVE",
"170.686 617.138 CURVE SMOOTH",
"182.992 622.235 OFFCURVE",
"207.521 621.022 OFFCURVE",
"223 621 CURVE",
"223 693 LINE",
"197.777 693 OFFCURVE",
"170.369 693.409 OFFCURVE",
"148.919 686.887 CURVE SMOOTH",
"98.372 671.519 OFFCURVE",
"73 610.063 OFFCURVE",
"73 503 CURVE SMOOTH",
"73 133 LINE SMOOTH",
"73 45.96 OFFCURVE",
"81.331 4.687 OFFCURVE",
"104.05 -20.826 CURVE SMOOTH",
"125.075 -44.437 OFFCURVE",
"166.438 -57.016 OFFCURVE",
"223 -57 CURVE"
);
}
);
width = 271;
}
);
unicode = 0028;
},
{
glyphname = parenright;
lastChange = "2016-06-28 17:02:48 +0000";
layers = (
{
background = {
paths = (
{
closed = 1;
nodes = (
"133 -42 OFFCURVE",
"163 -11 OFFCURVE",
"163 133 CURVE SMOOTH",
"163 503 LINE SMOOTH",
"163 647 OFFCURVE",
"133 678 OFFCURVE",
"44 678 CURVE",
"44 636 LINE",
"79 636 OFFCURVE",
"101 629 OFFCURVE",
"109 616 CURVE SMOOTH",
"117 602 OFFCURVE",
"121 564 OFFCURVE",
"121 503 CURVE SMOOTH",
"121 133 LINE SMOOTH",
"121 72 OFFCURVE",
"117 34 OFFCURVE",
"109 21 CURVE SMOOTH",
"101 7 OFFCURVE",
"79 0 OFFCURVE",
"44 0 CURVE",
"44 -42 LINE"
);
}
);
};
components = (
{
name = parenleft;
transform = "{-1, 0, 0, 1, 236, 0}";
}
);
layerId = "E470338E-0F5C-48CE-A795-CCBFA337B20F";
width = 237;
},
{
components = (
{
name = parenleft;
transform = "{-1, 0, 0, 1, 271, 0}";
}
);
layerId = "85CA6BE8-4AFB-4921-9C51-19E8EEB169E9";
width = 271;
}
);
leftMetricsKey = "=|parenleft";
rightMetricsKey = "=|parenleft";
unicode = 0029;
},
{
glyphname = asterisk;
lastChange = "2016-06-28 17:02:54 +0000";
layers = (
{
layerId = "E470338E-0F5C-48CE-A795-CCBFA337B20F";
paths = (
{
closed = 1;
nodes = (
"204 346 OFFCURVE",
"214 355 OFFCURVE",
"214 374 CURVE SMOOTH",
"214 455 LINE",
"284 414 LINE",
"289 410 OFFCURVE",
"295 409 OFFCURVE",
"300 409 CURVE SMOOTH",
"312 409 OFFCURVE",
"322 417 OFFCURVE",
"322 427 CURVE SMOOTH",
"322 434 OFFCURVE",
"317 443 OFFCURVE",
"305 451 CURVE",
"236 492 LINE",
"305 531 LINE",
"317 540 OFFCURVE",
"322 548 OFFCURVE",
"322 555 CURVE SMOOTH",
"322 566 OFFCURVE",
"311 573 OFFCURVE",
"300 573 CURVE SMOOTH",
"295 573 OFFCURVE",
"289 572 OFFCURVE",
"284 568 CURVE",
"214 527 LINE",
"214 608 LINE SMOOTH",
"214 627 OFFCURVE",
"204 636 OFFCURVE",
"193 636 CURVE SMOOTH",
"183 636 OFFCURVE",
"172 627 OFFCURVE",
"172 608 CURVE SMOOTH",
"172 527 LINE",
"102 568 LINE",
"94 571.333 OFFCURVE",
"88 573 OFFCURVE",
"84 573 CURVE",
"83 573 LINE",
"71 573 OFFCURVE",
"65 565.333 OFFCURVE",
"65 550 CURVE SMOOTH",
"65 544.667 OFFCURVE",
"70.333 538.333 OFFCURVE",
"81 531 CURVE",
"151 492 LINE",
"81 451 LINE",
"70 442 OFFCURVE",
"65 434 OFFCURVE",
"65 427 CURVE SMOOTH",
"65 416 OFFCURVE",
"75 409 OFFCURVE",
"86 409 CURVE SMOOTH",
"91 409 OFFCURVE",
"97 410 OFFCURVE",
"102 414 CURVE",
"172 455 LINE",
"172 374 LINE SMOOTH",
"172 355 OFFCURVE",
"183 346 OFFCURVE",
"193 346 CURVE SMOOTH"
);
}
);
width = 387;
},
{
layerId = "85CA6BE8-4AFB-4921-9C51-19E8EEB169E9";
paths = (
{
closed = 1;
nodes = (
"254.126 330.471 OFFCURVE",
"243 400.561 OFFCURVE",
"243 428 CURVE",
"256.829 421.084 OFFCURVE",
"300.892 394 OFFCURVE",
"319.058 394 CURVE SMOOTH",
"334.354 394 OFFCURVE",
"351 412.142 OFFCURVE",
"351 428.814 CURVE SMOOTH",
"351 458.944 OFFCURVE",
"299.478 480.362 OFFCURVE",
"280 492 CURVE",
"300.344 503.217 OFFCURVE",
"351.214 522.704 OFFCURVE",
"351.214 553.497 CURVE SMOOTH",
"351.214 568.998 OFFCURVE",
"335.903 588 OFFCURVE",
"323.411 588 CURVE SMOOTH",
"309.235 588 OFFCURVE",
"250.754 557.937 OFFCURVE",
"243 554 CURVE",
"243 585.009 OFFCURVE",
"256.122 651 OFFCURVE",
"207 651 CURVE SMOOTH",
"157.878 651 OFFCURVE",
"171 585.009 OFFCURVE",
"171 554 CURVE",
"156.203 561.403 OFFCURVE",
"117.299 588 OFFCURVE",
"95.778 588 CURVE SMOOTH",
"78.503 588 OFFCURVE",
"64 573.041 OFFCURVE",
"64 555.222 CURVE SMOOTH",
"64 520.497 OFFCURVE",
"112.785 504.488 OFFCURVE",
"135 492 CURVE",
"116.081 480.871 OFFCURVE",
"63.455 459.902 OFFCURVE",
"63.455 430.433 CURVE SMOOTH",
"63.455 414.941 OFFCURVE",
"79.463 394 OFFCURVE",
"91.304 394 CURVE SMOOTH",
"104.765 394 OFFCURVE",
"163.246 424.063 OFFCURVE",
"171 428 CURVE",
"171 400.561 OFFCURVE",
"159.874 330.471 OFFCURVE",
"207 330.471 CURVE SMOOTH"
);
}
);
width = 415;
}
);
unicode = 002A;
},
{
glyphname = plus;
lastChange = "2016-06-28 17:02:58 +0000";
layers = (
{
layerId = "E470338E-0F5C-48CE-A795-CCBFA337B20F";
paths = (
{
closed = 1;
nodes = (
"266 -7 OFFCURVE",
"276 2 OFFCURVE",
"276 20 CURVE SMOOTH",
"276 209 LINE",
"443 209 LINE SMOOTH",
"462.333 209 OFFCURVE",
"472 215.667 OFFCURVE",
"472 229 CURVE SMOOTH",
"472 244.333 OFFCURVE",
"462.333 252 OFFCURVE",
"443 252 CURVE SMOOTH",
"276 252 LINE",
"276 440 LINE SMOOTH",
"276 459 OFFCURVE",
"266 468 OFFCURVE",
"255 468 CURVE SMOOTH",
"245 468 OFFCURVE",
"234 459 OFFCURVE",
"234 440 CURVE SMOOTH",
"234 252 LINE",
"65 252 LINE SMOOTH",
"47.667 252 OFFCURVE",
"39 244.667 OFFCURVE",
"39 230 CURVE SMOOTH",
"39 216 OFFCURVE",
"47 209 OFFCURVE",
"63 209 CURVE",
"63.667 209 OFFCURVE",
"64.333 209 OFFCURVE",
"65 209 CURVE",
"234 209 LINE",
"234 20 LINE SMOOTH",
"234 2 OFFCURVE",
"245 -7 OFFCURVE",
"255 -7 CURVE SMOOTH"
);
}
);
width = 510;
},
{
layerId = "85CA6BE8-4AFB-4921-9C51-19E8EEB169E9";
paths = (
{
closed = 1;
nodes = (
"288.745 -22 OFFCURVE",
"301 -7.702 OFFCURVE",
"301 20 CURVE SMOOTH",
"301 194 LINE",
"453 194 LINE SMOOTH",
"479.315 194 OFFCURVE",
"497 209.424 OFFCURVE",
"497 232.375 CURVE SMOOTH",
"497 254.769 OFFCURVE",
"481.458 267 OFFCURVE",
"453 267 CURVE SMOOTH",
"301 267 LINE",
"301 440 LINE SMOOTH",
"301 468.338 OFFCURVE",
"288.725 483 OFFCURVE",
"265 483 CURVE SMOOTH",
"241.275 483 OFFCURVE",
"229 468.338 OFFCURVE",
"229 440 CURVE SMOOTH",
"229 267 LINE",
"75 267 LINE SMOOTH",
"50 267 OFFCURVE",
"34 252.04 OFFCURVE",
"34 228.664 CURVE SMOOTH",
"34 206.102 OFFCURVE",
"48.314 194 OFFCURVE",
"75 194 CURVE SMOOTH",
"229 194 LINE",
"229 20 LINE SMOOTH",
"229 -7.702 OFFCURVE",
"241.255 -22 OFFCURVE",
"265 -22 CURVE SMOOTH"
);
}
);
width = 531;
}
);
unicode = 002B;
},
{
glyphname = comma;
lastChange = "2016-06-28 16:50:43 +0000";
layers = (
{
layerId = "E470338E-0F5C-48CE-A795-CCBFA337B20F";
paths = (
{
closed = 1;
nodes = (
"74.333 -80 OFFCURVE",
"81 -73 OFFCURVE",
"87 -59 CURVE",
"129 24 LINE SMOOTH",
"132 29 OFFCURVE",
"133 34 OFFCURVE",
"133 38 CURVE SMOOTH",
"133 51 OFFCURVE",
"119 59 OFFCURVE",
"97 61 CURVE",
"87.667 61 OFFCURVE",
"81 54.333 OFFCURVE",
"77 41 CURVE SMOOTH",
"53 -45 LINE SMOOTH",
"51 -51 OFFCURVE",
"50 -56 OFFCURVE",
"50 -60 CURVE SMOOTH",
"50 -73.333 OFFCURVE",
"55.667 -80 OFFCURVE",
"67 -80 CURVE SMOOTH"
);
}
);
width = 203;
},
{
layerId = "85CA6BE8-4AFB-4921-9C51-19E8EEB169E9";
paths = (
{
closed = 1;
nodes = (
"73.277 -95 CURVE SMOOTH",
"58.819 -95 OFFCURVE",
"47 -78.035 OFFCURVE",
"47 -57.281 CURVE SMOOTH",
"47 2.633 OFFCURVE",
"84.943 76 OFFCURVE",
"115.929 76 CURVE SMOOTH",
"138.184 76 OFFCURVE",
"158.783 60.359 OFFCURVE",
"158.783 43.46 CURVE SMOOTH",
"158.783 -0.827 OFFCURVE",
"100.627 -95 OFFCURVE"
);
}
);
width = 226;
}
);
unicode = 002C;
},
{
glyphname = hyphen;
lastChange = "2016-06-28 16:49:57 +0000";
layers = (
{
layerId = "E470338E-0F5C-48CE-A795-CCBFA337B20F";
paths = (
{
closed = 1;
nodes = (
"97.667 209 OFFCURVE",
"98.333 209 OFFCURVE",
"99 209 CURVE",
"344 209 LINE SMOOTH",
"363.333 209 OFFCURVE",
"373 215.667 OFFCURVE",
"373 229 CURVE SMOOTH",
"373 244.333 OFFCURVE",
"363.333 252 OFFCURVE",
"344 252 CURVE SMOOTH",
"99 252 LINE SMOOTH",
"81.667 252 OFFCURVE",
"73 244.667 OFFCURVE",
"73 230 CURVE SMOOTH",
"73 216 OFFCURVE",
"81 209 OFFCURVE",
"97 209 CURVE"
);
}
);
width = 446;
},
{
layerId = "85CA6BE8-4AFB-4921-9C51-19E8EEB169E9";
paths = (
{
closed = 1;
nodes = (
"359 267 LINE SMOOTH",
"385.563 267 OFFCURVE",
"403 253.001 OFFCURVE",
"403 231.676 CURVE SMOOTH",
"403 210.268 OFFCURVE",
"384.001 194 OFFCURVE",
"359 194 CURVE SMOOTH",
"114 194 LINE SMOOTH",
"89.253 194 OFFCURVE",
"73 207.802 OFFCURVE",
"73 228.818 CURVE SMOOTH",
"73 250.332 OFFCURVE",
"90.899 267 OFFCURVE",
"114 267 CURVE SMOOTH"
);
}
);
width = 476;
}
);
unicode = 002D;
},
{
glyphname = period;
lastChange = "2016-06-28 16:50:45 +0000";
layers = (
{
layerId = "E470338E-0F5C-48CE-A795-CCBFA337B20F";
paths = (
{
closed = 1;
nodes = (
"133 -7 OFFCURVE",
"158 11 OFFCURVE",
"158 31 CURVE SMOOTH",
"158 39 OFFCURVE",
"154 47 OFFCURVE",
"143 54 CURVE",
"135 62 OFFCURVE",
"125 65 OFFCURVE",
"115 65 CURVE SMOOTH",
"91 65 OFFCURVE",
"66 47 OFFCURVE",
"66 27 CURVE SMOOTH",
"66 19 OFFCURVE",
"70 11 OFFCURVE",
"81 4 CURVE",
"89 -4 OFFCURVE",
"99 -7 OFFCURVE",
"109 -7 CURVE SMOOTH"
);
}
);
width = 224;
},
{
layerId = "85CA6BE8-4AFB-4921-9C51-19E8EEB169E9";
paths = (
{
closed = 1;
nodes = (
"186 29 CURVE SMOOTH",
"186 0.196 OFFCURVE",
"160.307 -20.765 OFFCURVE",
"125 -20.765 CURVE SMOOTH",
"89.693 -20.765 OFFCURVE",
"64 0.196 OFFCURVE",
"64 29 CURVE SMOOTH",
"64 57.804 OFFCURVE",
"89.693 78.765 OFFCURVE",
"125 78.765 CURVE SMOOTH",
"160.307 78.765 OFFCURVE",
"186 57.804 OFFCURVE"
);
}
);
width = 250;
}
);
unicode = 002E;
},
{
glyphname = slash;
lastChange = "2016-06-28 16:49:57 +0000";
layers = (
{
layerId = "E470338E-0F5C-48CE-A795-CCBFA337B20F";
paths = (
{
closed = 1;
nodes = (
"74 -8 OFFCURVE",
"81 -1.333 OFFCURVE",
"85 12 CURVE",
"303 610 LINE SMOOTH",
"305 616 OFFCURVE",
"306 621.333 OFFCURVE",
"306 626 CURVE SMOOTH",
"306 638.667 OFFCURVE",
"298.667 645 OFFCURVE",
"284 645 CURVE SMOOTH",
"274.667 645 OFFCURVE",
"268 638.333 OFFCURVE",
"264 625 CURVE",
"46 27 LINE SMOOTH",
"44 19.667 OFFCURVE",
"43 14.333 OFFCURVE",
"43 11 CURVE SMOOTH",
"43 -1.667 OFFCURVE",
"50 -8 OFFCURVE",
"64 -8 CURVE SMOOTH"
);
}
);
width = 349;
},
{
layerId = "85CA6BE8-4AFB-4921-9C51-19E8EEB169E9";
paths = (
{
closed = 1;
nodes = (
"74.242 -23 CURVE SMOOTH",
"54.502 -23 OFFCURVE",
"42 -9.796 OFFCURVE",
"42 11.052 CURVE SMOOTH",
"42 25.86 OFFCURVE",
"48.635 43.738 OFFCURVE",
"52 53 CURVE SMOOTH",
"262 631 LINE SMOOTH",
"268.46 648.781 OFFCURVE",
"283.494 660 OFFCURVE",
"300.86 660 CURVE SMOOTH",
"320.648 660 OFFCURVE",
"332.731 646.856 OFFCURVE",
"332.731 625.33 CURVE SMOOTH",
"332.731 615.617 OFFCURVE",
"330.35 604.738 OFFCURVE",
"325 590 CURVE SMOOTH",
"113 6 LINE SMOOTH",
"106.339 -12.349 OFFCURVE",
"92.105 -23 OFFCURVE"
);
}
);
width = 375;
}
);
unicode = 002F;
},
{
glyphname = zero;
lastChange = "2016-06-28 16:49:57 +0000";
layers = (
{
layerId = "E470338E-0F5C-48CE-A795-CCBFA337B20F";
paths = (
{
closed = 1;
nodes = (
"348 0 LINE SMOOTH",
"444 0 OFFCURVE",
"518 63.333 OFFCURVE",
"518 154 CURVE SMOOTH",
"518 482 LINE SMOOTH",
"518 572.667 OFFCURVE",
"444 636 OFFCURVE",
"348 636 CURVE SMOOTH",
"244 636 LINE SMOOTH",
"148 636 OFFCURVE",
"74 572.667 OFFCURVE",
"74 482 CURVE SMOOTH",
"74 154 LINE SMOOTH",
"74 63.333 OFFCURVE",
"148 0 OFFCURVE",
"244 0 CURVE SMOOTH"
);
},
{
closed = 1;
nodes = (
"169.333 42 OFFCURVE",
"116 88.667 OFFCURVE",
"116 138 CURVE SMOOTH",
"116 497 LINE SMOOTH",
"116 546.333 OFFCURVE",
"169.333 593 OFFCURVE",
"236 593 CURVE SMOOTH",
"356 593 LINE SMOOTH",
"422.667 593 OFFCURVE",
"476 546.333 OFFCURVE",
"476 497 CURVE SMOOTH",
"476 138 LINE SMOOTH",
"476 88.667 OFFCURVE",
"422.667 42 OFFCURVE",
"356 42 CURVE SMOOTH",
"236 42 LINE SMOOTH"
);
}
);
width = 592;
},
{
layerId = "85CA6BE8-4AFB-4921-9C51-19E8EEB169E9";
paths = (
{
closed = 1;
nodes = (
"116 491 CURVE SMOOTH",
"116 144 LINE SMOOTH",
"116 104.393 OFFCURVE",
"169.905 67 OFFCURVE",
"227 67 CURVE SMOOTH",
"365 67 LINE SMOOTH",
"422.095 67 OFFCURVE",
"476 104.393 OFFCURVE",
"476 144 CURVE SMOOTH",
"476 491 LINE SMOOTH",
"476 530.607 OFFCURVE",
"422.095 568 OFFCURVE",
"365 568 CURVE SMOOTH",
"227 568 LINE SMOOTH",
"169.905 568 OFFCURVE",
"116 530.607 OFFCURVE"
);
},
{
closed = 1;
nodes = (
"548 158 LINE SMOOTH",
"548 62.817 OFFCURVE",
"467.285 -5 OFFCURVE",
"354 -5 CURVE SMOOTH",
"238 -5 LINE SMOOTH",
"124.715 -5 OFFCURVE",
"44 62.817 OFFCURVE",
"44 158 CURVE SMOOTH",
"44 478 LINE SMOOTH",
"44 573.183 OFFCURVE",
"124.715 641 OFFCURVE",
"238 641 CURVE SMOOTH",
"354 641 LINE SMOOTH",
"467.285 641 OFFCURVE",
"548 573.183 OFFCURVE",
"548 478 CURVE SMOOTH"
);
}
);
width = 592;
}
);
unicode = 0030;
},
{
glyphname = one;
lastChange = "2016-06-28 16:50:45 +0000";
layers = (
{
layerId = "E470338E-0F5C-48CE-A795-CCBFA337B20F";
paths = (
{
closed = 1;
nodes = (
"316 -7 OFFCURVE",
"326 2 OFFCURVE",
"326 20 CURVE SMOOTH",
"326 662 LINE SMOOTH",
"326 674 OFFCURVE",
"321.333 681.333 OFFCURVE",
"312 684 CURVE SMOOTH",
"309.333 685.333 OFFCURVE",
"306.667 686 OFFCURVE",
"304 686 CURVE SMOOTH",
"296.667 686 OFFCURVE",
"288.667 681.667 OFFCURVE",
"280 673 CURVE SMOOTH",
"218 610 LINE SMOOTH",
"210 602.667 OFFCURVE",
"206 595.333 OFFCURVE",
"206 588 CURVE SMOOTH",
"206 576 OFFCURVE",
"212.333 570 OFFCURVE",
"225 570 CURVE SMOOTH",
"233.667 570 OFFCURVE",
"242 574.333 OFFCURVE",
"250 583 CURVE SMOOTH",
"284 616 LINE",
"284 20 LINE SMOOTH",
"284 2 OFFCURVE",
"295 -7 OFFCURVE",
"305 -7 CURVE SMOOTH"
);
}
);
width = 592;
},
{
layerId = "85CA6BE8-4AFB-4921-9C51-19E8EEB169E9";
paths = (
{
closed = 1;
nodes = (
"269 569 LINE",
"255.566 557.326 OFFCURVE",
"243.425 545.253 OFFCURVE",
"225.341 545.253 CURVE SMOOTH",
"205.959 545.253 OFFCURVE",
"191.444 558.824 OFFCURVE",
"191.444 576.946 CURVE SMOOTH",
"191.444 588.04 OFFCURVE",
"196.662 597.864 OFFCURVE",
"209 610 CURVE SMOOTH",
"270 670 LINE SMOOTH",
"278.351 678.214 OFFCURVE",
"294.037 684.26 OFFCURVE",
"306.996 684.26 CURVE SMOOTH",
"327.208 684.26 OFFCURVE",
"341 669.147 OFFCURVE",
"341 647 CURVE SMOOTH",
"341 33 LINE SMOOTH",
"341 6.58 OFFCURVE",
"328.778 -7 OFFCURVE",
"305 -7 CURVE SMOOTH",
"281.222 -7 OFFCURVE",
"269 6.58 OFFCURVE",
"269 33 CURVE SMOOTH"
);
}
);
width = 592;
}
);
unicode = 0031;
},
{
glyphname = two;
lastChange = "2016-06-28 16:50:43 +0000";
layers = (
{
layerId = "E470338E-0F5C-48CE-A795-CCBFA337B20F";
paths = (
{
closed = 1;
nodes = (
"488 0 LINE SMOOTH",
"508 0 OFFCURVE",
"518 11 OFFCURVE",
"518 21 CURVE SMOOTH",
"518 32 OFFCURVE",
"508 42 OFFCURVE",
"488 42 CURVE SMOOTH",
"117 42 LINE",
"117 267.707 OFFCURVE",
"518 280.402 OFFCURVE",
"518 463 CURVE SMOOTH",
"518 609.052 OFFCURVE",
"435.874 636 OFFCURVE",
"311 636 CURVE SMOOTH",
"169 636 LINE SMOOTH",
"101 636 OFFCURVE",
"74 606.333 OFFCURVE",
"74 529 CURVE SMOOTH",
"74 509 OFFCURVE",
"84 499 OFFCURVE",
"95 499 CURVE SMOOTH",
"105 499 OFFCURVE",
"116 510 OFFCURVE",
"116 531.5 CURVE SMOOTH",
"116 574.833 OFFCURVE",
"130.667 594 OFFCURVE",
"176 594 CURVE SMOOTH",
"311 594 LINE SMOOTH",
"435 594 OFFCURVE",
"476 574.667 OFFCURVE",
"476 460 CURVE SMOOTH",
"476 420 OFFCURVE",
"449.333 384 OFFCURVE",
"396 352 CURVE SMOOTH",
"372 337.333 OFFCURVE",
"346 323 OFFCURVE",
"318 309 CURVE SMOOTH",
"250 276.333 OFFCURVE",
"195.333 243.333 OFFCURVE",
"154 210 CURVE SMOOTH",
"130 191.333 OFFCURVE",
"111 167.333 OFFCURVE",
"97 138 CURVE SMOOTH",
"82.333 109.333 OFFCURVE",
"75 78 OFFCURVE",
"75 44 CURVE SMOOTH",
"75 0 LINE"
);
}
);
width = 592;
},
{
layerId = "85CA6BE8-4AFB-4921-9C51-19E8EEB169E9";
paths = (
{
closed = 1;
nodes = (
"548 506.56 CURVE SMOOTH",
"548 277.244 OFFCURVE",
"135.369 260.255 OFFCURVE",
"117 67 CURVE",
"503 67 LINE SMOOTH",
"532.61 67 OFFCURVE",
"548 54.688 OFFCURVE",
"548 31 CURVE SMOOTH",
"548 7.312 OFFCURVE",
"532.61 -5 OFFCURVE",
"503 -5 CURVE SMOOTH",
"45 -5 LINE",
"45 52 LINE SMOOTH",
"45 303.566 OFFCURVE",
"476 316.442 OFFCURVE",
"476 500.782 CURVE SMOOTH",
"476 570.702 OFFCURVE",
"413.992 569 OFFCURVE",
"314 569 CURVE SMOOTH",
"161 569 LINE SMOOTH",
"78.492 569 OFFCURVE",
"150.734 474 OFFCURVE",
"84.152 474 CURVE SMOOTH",
"56.03 474 OFFCURVE",
"45 490.34 OFFCURVE",
"45 532 CURVE SMOOTH",
"45 606.765 OFFCURVE",
"79.235 641 OFFCURVE",
"154 641 CURVE SMOOTH",
"314 641 LINE SMOOTH",
"479.248 641 OFFCURVE",
"548 601.5 OFFCURVE"
);
}
);
width = 592;
}
);
unicode = 0032;
},
{
glyphname = three;
lastChange = "2016-06-28 16:50:43 +0000";
layers = (
{
layerId = "E470338E-0F5C-48CE-A795-CCBFA337B20F";
paths = (
{
closed = 1;
nodes = (
"326 0 LINE SMOOTH",
"464.667 0 OFFCURVE",
"518 47.667 OFFCURVE",
"518 185 CURVE SMOOTH",
"518 209.667 OFFCURVE",
"501.667 238.333 OFFCURVE",
"469 271 CURVE SMOOTH",
"436.333 303.667 OFFCURVE",
"409.333 322 OFFCURVE",
"388 326 CURVE",
"410 330.667 OFFCURVE",
"437.167 346.833 OFFCURVE",
"469.5 374.5 CURVE SMOOTH",
"501.833 402.167 OFFCURVE",
"518 427.667 OFFCURVE",
"518 451 CURVE SMOOTH",
"518 588.333 OFFCURVE",
"464.667 636 OFFCURVE",
"326 636 CURVE SMOOTH",
"249 636 LINE SMOOTH",
"141 636 OFFCURVE",
"74 585 OFFCURVE",
"74 529 CURVE SMOOTH",
"74 509 OFFCURVE",
"85 499 OFFCURVE",
"95 499 CURVE SMOOTH",
"106 499 OFFCURVE",
"116 509 OFFCURVE",
"116 529 CURVE SMOOTH",
"116 569 OFFCURVE",
"196 594 OFFCURVE",
"256 594 CURVE SMOOTH",
"336 594 LINE SMOOTH",
"442.667 594 OFFCURVE",
"477 548.667 OFFCURVE",
"477 470 CURVE SMOOTH",
"477 438 OFFCURVE",
"455.5 409.5 OFFCURVE",
"412.5 384.5 CURVE SMOOTH",
"369.5 359.5 OFFCURVE",
"329 347 OFFCURVE",
"291 347 CURVE SMOOTH",
"288 347 LINE SMOOTH",
"269 347 OFFCURVE",
"259 337 OFFCURVE",
"259 326 CURVE SMOOTH",
"259 315 OFFCURVE",
"269 304 OFFCURVE",
"291 304 CURVE SMOOTH",
"327.667 304 OFFCURVE",
"367.833 289.833 OFFCURVE",
"411.5 261.5 CURVE SMOOTH",
"455.167 233.167 OFFCURVE",
"477 201.333 OFFCURVE",
"477 166 CURVE",
"477 165.333 OFFCURVE",
"477 164.667 OFFCURVE",
"477 164 CURVE",
"477 92 OFFCURVE",
"442.667 42 OFFCURVE",
"336 42 CURVE SMOOTH",
"256 42 LINE SMOOTH",
"196 42 OFFCURVE",
"116 67 OFFCURVE",
"116 107 CURVE SMOOTH",
"116 127 OFFCURVE",
"109 137 OFFCURVE",
"95 137 CURVE",
"81 138 OFFCURVE",
"73 127 OFFCURVE",
"73 111 CURVE SMOOTH",
"73 69 OFFCURVE",
"124 -6 OFFCURVE",
"249 0 CURVE"
);
}
);
width = 592;
},
{
layerId = "85CA6BE8-4AFB-4921-9C51-19E8EEB169E9";
paths = (
{
closed = 1;
nodes = (
"342 569 CURVE SMOOTH",
"250 569 LINE SMOOTH",
"183.471 569 OFFCURVE",
"116 537.712 OFFCURVE",
"116 506.861 CURVE SMOOTH",
"116 487.475 OFFCURVE",
"101.539 474 OFFCURVE",
"80.736 474 CURVE SMOOTH",
"57.071 474 OFFCURVE",
"44 490.197 OFFCURVE",
"44 519.523 CURVE SMOOTH",
"44 587.458 OFFCURVE",
"131.71 641 OFFCURVE",
"243 641 CURVE SMOOTH",
"329 641 LINE SMOOTH",
"479.546 641 OFFCURVE",
"548 596.162 OFFCURVE",
"548 497.553 CURVE SMOOTH",
"548 426.124 OFFCURVE",
"504.351 359.857 OFFCURVE",
"435 326 CURVE",
"501.247 291.123 OFFCURVE",
"548 214.063 OFFCURVE",
"548 139.75 CURVE SMOOTH",
"548 40.061 OFFCURVE",
"479.825 -5 OFFCURVE",
"329 -5 CURVE SMOOTH",
"243 -5 LINE SMOOTH",
"131.279 -5 OFFCURVE",
"44 48.247 OFFCURVE",
"44 116.406 CURVE SMOOTH",
"44 145.796 OFFCURVE",
"57.056 162 OFFCURVE",
"80.736 162 CURVE SMOOTH",
"101.568 162 OFFCURVE",
"116 148.513 OFFCURVE",
"116 129.043 CURVE SMOOTH",
"116 98.022 OFFCURVE",
"183 67 OFFCURVE",
"250 67 CURVE SMOOTH",
"342 67 LINE SMOOTH",
"433.604 67 OFFCURVE",
"477 93.597 OFFCURVE",
"477 149.739 CURVE SMOOTH",
"477 220.374 OFFCURVE",
"390.182 284.528 OFFCURVE",
"288.172 289.271 CURVE SMOOTH",
"255.767 290.778 OFFCURVE",
"238 303.476 OFFCURVE",
"238 325.129 CURVE SMOOTH",
"238 348.58 OFFCURVE",
"258.883 362 OFFCURVE",
"295.373 362 CURVE SMOOTH",
"392.912 362 OFFCURVE",
"477 420.518 OFFCURVE",
"477 488.396 CURVE SMOOTH",
"477 543.588 OFFCURVE",
"434.438 569 OFFCURVE"
);
}
);
width = 592;
}
);
unicode = 0033;
},
{
glyphname = four;
lastChange = "2016-06-28 16:50:45 +0000";
layers = (
{
layerId = "E470338E-0F5C-48CE-A795-CCBFA337B20F";
paths = (
{
closed = 1;
nodes = (
"422 -7 OFFCURVE",
"432 2 OFFCURVE",
"432 20 CURVE SMOOTH",
"432 175 LINE",
"493 175 LINE SMOOTH",
"511 175 OFFCURVE",
"520 186 OFFCURVE",
"520 196 CURVE SMOOTH",
"520 207 OFFCURVE",
"511 217 OFFCURVE",
"493 217 CURVE SMOOTH",
"432 217 LINE",
"432 636 LINE",
"375 636 LINE",
"72 231 LINE",
"72 175 LINE",
"390 175 LINE",
"390 20 LINE SMOOTH",
"390 2 OFFCURVE",
"401 -7 OFFCURVE",
"411 -7 CURVE SMOOTH"
);
},
{
closed = 1;
nodes = (
"390 594 LINE",
"390 217 LINE",
"109 217 LINE"
);
}
);
width = 592;
},
{
layerId = "85CA6BE8-4AFB-4921-9C51-19E8EEB169E9";
paths = (
{
closed = 1;
nodes = (
"462 160 CURVE",
"462 32 LINE SMOOTH",
"462 6.358 OFFCURVE",
"449.941 -7 OFFCURVE",
"426.791 -7 CURVE SMOOTH",
"401.918 -7 OFFCURVE",
"386 8.219 OFFCURVE",
"386 32 CURVE SMOOTH",
"386 160 LINE",
"42 160 LINE",
"42 235 LINE",
"378 641 LINE",
"462 641 LINE",
"462 232 LINE",
"493.085 232 OFFCURVE",
"550 243.158 OFFCURVE",
"550 196 CURVE SMOOTH",
"550 148.842 OFFCURVE",
"493.085 160 OFFCURVE"
);
},
{
closed = 1;
nodes = (
"386 232 LINE",
"386 550 LINE",
"124 232 LINE"
);
}
);
width = 592;
}
);
unicode = 0034;
},
{
glyphname = five;
lastChange = "2016-06-28 16:50:43 +0000";
layers = (
{
layerId = "E470338E-0F5C-48CE-A795-CCBFA337B20F";
paths = (
{
closed = 1;
nodes = (
"420.333 -9 OFFCURVE",
"513 83 OFFCURVE",
"513 219 CURVE SMOOTH",
"513 355 OFFCURVE",
"413.667 434 OFFCURVE",
"307 434 CURVE SMOOTH",
"132 434 LINE",
"138 529 LINE",
"142 575.667 OFFCURVE",
"159.667 594 OFFCURVE",
"197 594 CURVE SMOOTH",
"444 594 LINE SMOOTH",
"462 594 OFFCURVE",
"471 605 OFFCURVE",
"471 615 CURVE SMOOTH",
"471 626 OFFCURVE",
"462 636 OFFCURVE",
"444 636 CURVE SMOOTH",
"203 636 LINE SMOOTH",
"128.333 636 OFFCURVE",
"100.667 605.333 OFFCURVE",
"94 512 CURVE SMOOTH",
"85 392 LINE",
"316 392 LINE SMOOTH",
"349.333 392 OFFCURVE",
"382 380.333 OFFCURVE",
"414 357 CURVE SMOOTH",
"430 345 OFFCURVE",
"443.667 327.667 OFFCURVE",
"455 305 CURVE SMOOTH",
"465.667 282.333 OFFCURVE",
"471 256.333 OFFCURVE",
"471 227 CURVE SMOOTH",
"471 105.667 OFFCURVE",
"404.333 33 OFFCURVE",
"291 33 CURVE SMOOTH",
"198.25 33 OFFCURVE",
"101.75 111 OFFCURVE",
"96 111 CURVE SMOOTH",
"89.333 111 OFFCURVE",
"79 100.667 OFFCURVE",
"79 90 CURVE SMOOTH",
"79 70 OFFCURVE",
"104 48.5 OFFCURVE",
"154 25.5 CURVE SMOOTH",
"204 2.5 OFFCURVE",
"249.667 -9 OFFCURVE",
"291 -9 CURVE SMOOTH"
);
}
);
width = 592;
},
{
layerId = "85CA6BE8-4AFB-4921-9C51-19E8EEB169E9";
paths = (
{
closed = 1;
nodes = (
"306.488 63 CURVE SMOOTH",
"407.686 63 OFFCURVE",
"471 123.681 OFFCURVE",
"471 220.67 CURVE SMOOTH",
"471 315.508 OFFCURVE",
"411.211 377 OFFCURVE",
"319 377 CURVE SMOOTH",
"55 377 LINE",
"64 508 LINE SMOOTH",
"70.678 605.196 OFFCURVE",
"104.825 641 OFFCURVE",
"190 641 CURVE SMOOTH",
"459 641 LINE SMOOTH",
"486.457 641 OFFCURVE",
"501 628.774 OFFCURVE",
"501 605.692 CURVE SMOOTH",
"501 582.371 OFFCURVE",
"485.695 569 OFFCURVE",
"459 569 CURVE SMOOTH",
"182 569 LINE SMOOTH",
"151.599 569 OFFCURVE",
"141.172 555.77 OFFCURVE",
"136.915 511.789 CURVE SMOOTH",
"135.617 498.381 OFFCURVE",
"133.999 473.653 OFFCURVE",
"132 449 CURVE",
"310 449 LINE SMOOTH",
"446.851 449 OFFCURVE",
"543 355.184 OFFCURVE",
"543 221.653 CURVE SMOOTH",
"543 90.005 OFFCURVE",
"445.893 -9 OFFCURVE",
"316.769 -9 CURVE SMOOTH",
"194.325 -9 OFFCURVE",
"49 51.169 OFFCURVE",
"49 101.864 CURVE SMOOTH",
"49 119.316 OFFCURVE",
"62.954 141 OFFCURVE",
"74.185 141 CURVE SMOOTH",
"94.274 141 OFFCURVE",
"193.414 63 OFFCURVE"
);
}
);
width = 592;
}
);
unicode = 0035;
},
{
glyphname = six;
lastChange = "2016-06-28 16:49:57 +0000";
layers = (
{
layerId = "E470338E-0F5C-48CE-A795-CCBFA337B20F";
paths = (
{
closed = 1;
nodes = (
"359.333 -9 OFFCURVE",
"412.167 11.333 OFFCURVE",
"454.5 52 CURVE SMOOTH",
"496.833 92.667 OFFCURVE",
"518 144.333 OFFCURVE",
"518 207 CURVE SMOOTH",
"518 332.333 OFFCURVE",
"423.167 423 OFFCURVE",
"294.5 423 CURVE SMOOTH",
"230.167 423 OFFCURVE",
"176.667 401.667 OFFCURVE",
"134 359 CURVE",
"166 480.333 OFFCURVE",
"237.333 564.333 OFFCURVE",
"308 603 CURVE SMOOTH",
"320 609.667 OFFCURVE",
"326 617.333 OFFCURVE",
"326 626 CURVE SMOOTH",
"326 638 OFFCURVE",
"318.667 644 OFFCURVE",
"304 644 CURVE SMOOTH",
"285.306 644 OFFCURVE",
"210.534 598.096 OFFCURVE",
"147 497.5 CURVE SMOOTH",
"107 434.167 OFFCURVE",
"74 326.5 OFFCURVE",
"74 204.5 CURVE SMOOTH",
"74 143.5 OFFCURVE",
"95.167 92.667 OFFCURVE",
"137.5 52 CURVE SMOOTH",
"179.833 11.333 OFFCURVE",
"232.667 -9 OFFCURVE",
"296 -9 CURVE SMOOTH"
);
},
{
closed = 1;
nodes = (
"240.667 33 OFFCURVE",
"196.833 49 OFFCURVE",
"164.5 81 CURVE SMOOTH",
"132.167 113 OFFCURVE",
"116 155 OFFCURVE",
"116 207 CURVE SMOOTH",
"116 259 OFFCURVE",
"132.167 301 OFFCURVE",
"164.5 333 CURVE SMOOTH",
"196.833 365 OFFCURVE",
"240.667 381 OFFCURVE",
"296 381 CURVE SMOOTH",
"351.333 381 OFFCURVE",
"395.167 365 OFFCURVE",
"427.5 333 CURVE SMOOTH",
"459.833 301 OFFCURVE",
"476 259 OFFCURVE",
"476 207 CURVE SMOOTH",
"476 155 OFFCURVE",
"459.833 113 OFFCURVE",
"427.5 81 CURVE SMOOTH",
"395.167 49 OFFCURVE",
"351.333 33 OFFCURVE",
"296 33 CURVE SMOOTH"
);
}
);
width = 592;
},
{
layerId = "85CA6BE8-4AFB-4921-9C51-19E8EEB169E9";
paths = (
{
closed = 1;
nodes = (
"309.951 644 CURVE SMOOTH",
"332.543 644 OFFCURVE",
"347 632.074 OFFCURVE",
"347 613.438 CURVE SMOOTH",
"347 599.76 OFFCURVE",
"338.795 587.504 OFFCURVE",
"323.926 578.974 CURVE SMOOTH",
"303.977 567.529 OFFCURVE",
"290.255 561.985 OFFCURVE",
"272.123 550.5 CURVE SMOOTH",
"219.998 517.479 OFFCURVE",
"175.208 463.094 OFFCURVE",
"149 401 CURVE",
"189.583 425.216 OFFCURVE",
"239.828 438 OFFCURVE",
"294.424 438 CURVE SMOOTH",
"444.214 438 OFFCURVE",
"548 346.302 OFFCURVE",
"548 213.959 CURVE SMOOTH",
"548 82.544 OFFCURVE",
"445.264 -9 OFFCURVE",
"297.782 -9 CURVE SMOOTH",
"145.53 -9 OFFCURVE",
"44 87.173 OFFCURVE",
"44 231.39 CURVE SMOOTH",
"44 320.06 OFFCURVE",
"75.683 428.491 OFFCURVE",
"120.321 492.589 CURVE SMOOTH",
"176.627 573.442 OFFCURVE",
"264.995 644 OFFCURVE"
);
},
{
closed = 1;
nodes = (
"116 214.589 CURVE SMOOTH",
"116 119.573 OFFCURVE",
"183.176 63 OFFCURVE",
"296 63 CURVE SMOOTH",
"408.824 63 OFFCURVE",
"476 119.573 OFFCURVE",
"476 214.589 CURVE SMOOTH",
"476 309.618 OFFCURVE",
"408.972 366 OFFCURVE",
"296 366 CURVE SMOOTH",
"183.028 366 OFFCURVE",
"116 309.618 OFFCURVE"
);
}
);
width = 592;
}
);
unicode = 0036;
},
{
glyphname = seven;
lastChange = "2016-06-28 16:49:57 +0000";
layers = (
{
layerId = "E470338E-0F5C-48CE-A795-CCBFA337B20F";
paths = (
{
closed = 1;
nodes = (
"279.667 -10 OFFCURVE",
"286.667 -2.333 OFFCURVE",
"292 13 CURVE SMOOTH",
"505 599 LINE SMOOTH",
"507.667 606.333 OFFCURVE",
"509 612.667 OFFCURVE",
"509 618 CURVE SMOOTH",
"509 630 OFFCURVE",
"502 636 OFFCURVE",
"488 636 CURVE SMOOTH",
"178 636 LINE SMOOTH",
"110 636 OFFCURVE",
"83 606.333 OFFCURVE",
"83 529 CURVE SMOOTH",
"83 509 OFFCURVE",
"89.667 499 OFFCURVE",
"103 499 CURVE",
"104 500 LINE",
"118 500 OFFCURVE",
"125 510.667 OFFCURVE",
"125 532 CURVE SMOOTH",
"125 553.333 OFFCURVE",
"129.5 569 OFFCURVE",
"138.5 579 CURVE SMOOTH",
"147.5 589 OFFCURVE",
"163.333 594 OFFCURVE",
"186 594 CURVE SMOOTH",
"459 594 LINE",
"253 28 LINE SMOOTH",
"250.333 20.667 OFFCURVE",
"249 14.333 OFFCURVE",
"249 9 CURVE SMOOTH",
"249 -3.667 OFFCURVE",
"256.333 -10 OFFCURVE",
"271 -10 CURVE SMOOTH"
);
}
);
width = 592;
},
{
layerId = "85CA6BE8-4AFB-4921-9C51-19E8EEB169E9";
paths = (
{
closed = 1;
nodes = (
"265.454 -10 CURVE SMOOTH",
"245.65 -10 OFFCURVE",
"225.733 0.899 OFFCURVE",
"225.733 11.735 CURVE SMOOTH",
"225.733 47.34 OFFCURVE",
"429.914 518.948 OFFCURVE",
"453 574 CURVE",
"171 574 LINE SMOOTH",
"85.695 574 OFFCURVE",
"159.013 479 OFFCURVE",
"92.257 479 CURVE SMOOTH",
"64.166 479 OFFCURVE",
"53 495.257 OFFCURVE",
"53 536.154 CURVE SMOOTH",
"53 610.727 OFFCURVE",
"88.322 646 OFFCURVE",
"163 646 CURVE SMOOTH",
"503 646 LINE SMOOTH",
"526.947 646 OFFCURVE",
"539 634.609 OFFCURVE",
"539 611.979 CURVE SMOOTH",
"539 604.197 OFFCURVE",
"537.591 596.454 OFFCURVE",
"535 590 CURVE SMOOTH",
"307 22 LINE SMOOTH",
"298.523 0.882 OFFCURVE",
"284.395 -10 OFFCURVE"
);
}
);
width = 592;
}
);
unicode = 0037;
},
{
glyphname = eight;
lastChange = "2016-06-28 16:50:43 +0000";
layers = (
{
layerId = "E470338E-0F5C-48CE-A795-CCBFA337B20F";
paths = (
{
closed = 1;
nodes = (
"311 0 LINE SMOOTH",
"379 0 OFFCURVE",
"420 6 OFFCURVE",
"460 30 CURVE SMOOTH",
"498.667 53.333 OFFCURVE",
"518 102.5 OFFCURVE",
"518 177.5 CURVE SMOOTH",
"518 252.5 OFFCURVE",
"495 302 OFFCURVE",
"449 326 CURVE",
"495 346.667 OFFCURVE",
"518 395.333 OFFCURVE",
"518 472 CURVE SMOOTH",
"518 527.333 OFFCURVE",
"506 568.5 OFFCURVE",
"482 595.5 CURVE SMOOTH",
"458 622.5 OFFCURVE",
"401 636 OFFCURVE",
"311 636 CURVE SMOOTH",
"282 636 LINE SMOOTH",
"253.333 636 OFFCURVE",
"230 635.333 OFFCURVE",
"212 634 CURVE SMOOTH",
"162.667 630 OFFCURVE",
"128.667 617.333 OFFCURVE",
"110 596 CURVE SMOOTH",
"86 568 OFFCURVE",
"74 526.667 OFFCURVE",
"74 472 CURVE SMOOTH",
"74 396 OFFCURVE",
"97.333 347.333 OFFCURVE",
"144 326 CURVE",
"97.333 301.333 OFFCURVE",
"74 252.333 OFFCURVE",
"74 179 CURVE SMOOTH",
"74 105.667 OFFCURVE",
"91 57.5 OFFCURVE",
"125 34.5 CURVE SMOOTH",
"159 11.5 OFFCURVE",
"211.333 0 OFFCURVE",
"282 0 CURVE SMOOTH"
);
},
{
closed = 1;
nodes = (
"186 42 OFFCURVE",
"158 57.667 OFFCURVE",
"142 75 CURVE SMOOTH",
"124.667 95.667 OFFCURVE",
"116 131.833 OFFCURVE",
"116 183.5 CURVE SMOOTH",
"116 235.167 OFFCURVE",
"130 269.333 OFFCURVE",
"158 286 CURVE SMOOTH",
"188.667 304.667 OFFCURVE",
"218 307 OFFCURVE",
"282 307 CURVE SMOOTH",
"311 307 LINE SMOOTH",
"422.143 307 OFFCURVE",
"476 296.017 OFFCURVE",
"476 174 CURVE SMOOTH",
"476 51.853 OFFCURVE",
"422.905 42 OFFCURVE",
"311 42 CURVE SMOOTH",
"282 42 LINE SMOOTH"
);
},
{
closed = 1;
nodes = (
"212 350.333 OFFCURVE",
"170 355.667 OFFCURVE",
"156 365 CURVE SMOOTH",
"149.333 369.667 OFFCURVE",
"142.333 376.667 OFFCURVE",
"135 386 CURVE SMOOTH",
"122.333 402 OFFCURVE",
"116 431.167 OFFCURVE",
"116 473.5 CURVE SMOOTH",
"116 515.833 OFFCURVE",
"123.667 546.5 OFFCURVE",
"139 565.5 CURVE SMOOTH",
"154.333 584.5 OFFCURVE",
"202 594 OFFCURVE",
"282 594 CURVE SMOOTH",
"311 594 LINE SMOOTH",
"451.689 594 OFFCURVE",
"454.264 576.108 OFFCURVE",
"468.5 531.5 CURVE SMOOTH",
"474 514 OFFCURVE",
"478 491 OFFCURVE",
"478 468 CURVE SMOOTH",
"478 428 OFFCURVE",
"468 387 OFFCURVE",
"440 367 CURVE SMOOTH",
"424 355 OFFCURVE",
"384.333 349 OFFCURVE",
"321 349 CURVE SMOOTH",
"317.667 349 OFFCURVE",
"314.333 349 OFFCURVE",
"311 349 CURVE SMOOTH",
"282 349 LINE"
);
}
);
width = 592;
},
{
layerId = "85CA6BE8-4AFB-4921-9C51-19E8EEB169E9";
paths = (
{
closed = 1;
nodes = (
"314 67 LINE SMOOTH",
"412.393 67 OFFCURVE",
"476 63.707 OFFCURVE",
"476 179.5 CURVE SMOOTH",
"476 295.293 OFFCURVE",
"412.393 292 OFFCURVE",
"314 292 CURVE SMOOTH",
"279 292 LINE SMOOTH",
"180.967 292 OFFCURVE",
"116 295.327 OFFCURVE",
"116 178.98 CURVE SMOOTH",
"116 63.221 OFFCURVE",
"180.311 67 OFFCURVE",
"279 67 CURVE SMOOTH"
);
},
{
closed = 1;
nodes = (
"371.871 -5 CURVE SMOOTH",
"113.738 -5 OFFCURVE",
"44 33.537 OFFCURVE",
"44 176.183 CURVE SMOOTH",
"44 244.813 OFFCURVE",
"63.336 296.542 OFFCURVE",
"100 326 CURVE",
"63.148 352.311 OFFCURVE",
"44 401.13 OFFCURVE",
"44 468.773 CURVE SMOOTH",
"44 648.797 OFFCURVE",
"172.453 641 OFFCURVE",
"290.882 641 CURVE SMOOTH",
"491.809 641 OFFCURVE",
"548 602.92 OFFCURVE",
"548 466.755 CURVE SMOOTH",
"548 397.635 OFFCURVE",
"529.985 351.532 OFFCURVE",
"493 326 CURVE",
"528.894 295.98 OFFCURVE",
"548 243.65 OFFCURVE",
"548 175.36 CURVE SMOOTH",
"548 -5.96 OFFCURVE",
"419.266 -5 OFFCURVE"
);
},
{
closed = 1;
nodes = (
"314 569 CURVE SMOOTH",
"277 569 LINE SMOOTH",
"183.176 569 OFFCURVE",
"116 582.91 OFFCURVE",
"116 456.499 CURVE SMOOTH",
"116 394.916 OFFCURVE",
"137.207 372.607 OFFCURVE",
"201.931 366.103 CURVE SMOOTH",
"233.006 362.98 OFFCURVE",
"273.865 364 OFFCURVE",
"298.963 364 CURVE SMOOTH",
"360.345 364 OFFCURVE",
"410.436 357.897 OFFCURVE",
"440.95 377.157 CURVE SMOOTH",
"463.942 391.669 OFFCURVE",
"476.001 423.492 OFFCURVE",
"476.001 469.655 CURVE SMOOTH",
"476.001 485.117 OFFCURVE",
"475.326 497.359 OFFCURVE",
"474.012 505.735 CURVE SMOOTH",
"462.299 580.39 OFFCURVE",
"368.129 569 OFFCURVE"
);
}
);
width = 592;
}
);
unicode = 0038;
},
{
glyphname = nine;
lastChange = "2016-06-28 16:49:57 +0000";
layers = (
{
layerId = "E470338E-0F5C-48CE-A795-CCBFA337B20F";
paths = (
{
closed = 1;
nodes = (
"339.286 -16 OFFCURVE",
"518 174.745 OFFCURVE",
"518 470 CURVE SMOOTH",
"518 580.667 OFFCURVE",
"449 636 OFFCURVE",
"311 636 CURVE SMOOTH",
"261.667 636 OFFCURVE",
"213.667 627.667 OFFCURVE",
"167 611 CURVE SMOOTH",
"111 591 OFFCURVE",
"74 541.667 OFFCURVE",
"74 471 CURVE SMOOTH",
"74 361.667 OFFCURVE",
"153 307 OFFCURVE",
"311 307 CURVE SMOOTH",
"380.333 307 OFFCURVE",
"431.667 319.667 OFFCURVE",
"465 345 CURVE",
"431.233 176.163 OFFCURVE",
"333.934 82.248 OFFCURVE",
"251.5 45.5 CURVE SMOOTH",
"196.167 20.833 OFFCURVE",
"149 34.167 OFFCURVE",
"149 5.5 CURVE SMOOTH",
"149 -8.833 OFFCURVE",
"157.667 -16 OFFCURVE",
"175 -16 CURVE SMOOTH"
);
},
{
closed = 1;
nodes = (
"243 350.333 OFFCURVE",
"192.667 360.667 OFFCURVE",
"160 380 CURVE",
"136 396 OFFCURVE",
"116 428.333 OFFCURVE",
"116 471 CURVE SMOOTH",
"116 553 OFFCURVE",
"181 594 OFFCURVE",
"311 594 CURVE SMOOTH",
"421 594 OFFCURVE",
"476 552.667 OFFCURVE",
"476 470 CURVE SMOOTH",
"476 389.333 OFFCURVE",
"421 349 OFFCURVE",
"311 349 CURVE"
);
}
);
width = 592;
},
{
layerId = "85CA6BE8-4AFB-4921-9C51-19E8EEB169E9";
paths = (
{
closed = 1;
nodes = (
"44 464.785 CURVE SMOOTH",
"44 576.499 OFFCURVE",
"140.685 641 OFFCURVE",
"308.142 641 CURVE SMOOTH",
"470.972 641 OFFCURVE",
"548 574.57 OFFCURVE",
"548 434.143 CURVE SMOOTH",
"548 199.401 OFFCURVE",
"372.536 -16 OFFCURVE",
"181.316 -16 CURVE SMOOTH",
"138.093 -16 OFFCURVE",
"118.793 -6.678 OFFCURVE",
"118.793 14.198 CURVE SMOOTH",
"118.793 60.679 OFFCURVE",
"203.938 62.989 OFFCURVE",
"250.402 76.255 CURVE SMOOTH",
"336.503 100.835 OFFCURVE",
"427.145 205.582 OFFCURVE",
"457 315 CURVE",
"422.478 299.499 OFFCURVE",
"376.099 292 OFFCURVE",
"314.757 292 CURVE SMOOTH",
"138.726 292 OFFCURVE",
"44 352.45 OFFCURVE"
);
},
{
closed = 1;
nodes = (
"309.653 569 CURVE SMOOTH",
"187.476 569 OFFCURVE",
"116 529.823 OFFCURVE",
"116 462.856 CURVE SMOOTH",
"116 401.507 OFFCURVE",
"180.204 364 OFFCURVE",
"285.221 364 CURVE SMOOTH",
"423.393 364 OFFCURVE",
"476 391.963 OFFCURVE",
"476 465.408 CURVE SMOOTH",
"476 535.895 OFFCURVE",
"422.841 569 OFFCURVE"
);
}
);
width = 592;
}
);
unicode = 0039;
},
{
glyphname = colon;
lastChange = "2016-06-28 16:50:45 +0000";
layers = (
{
layerId = "E470338E-0F5C-48CE-A795-CCBFA337B20F";
paths = (
{
closed = 1;
nodes = (
"142 398 OFFCURVE",
"165 410 OFFCURVE",
"165 433 CURVE SMOOTH",
"165 456 OFFCURVE",
"143 468 OFFCURVE",
"121 468 CURVE SMOOTH",
"98 468 OFFCURVE",
"75 456 OFFCURVE",
"73 433 CURVE",
"73 410 OFFCURVE",
"96 398 OFFCURVE",
"119 398 CURVE SMOOTH"
);
},
{
closed = 1;
nodes = (
"142 45 OFFCURVE",
"165 57 OFFCURVE",
"165 80 CURVE SMOOTH",
"165 103 OFFCURVE",
"143 115 OFFCURVE",
"121 115 CURVE SMOOTH",
"98 115 OFFCURVE",
"75 103 OFFCURVE",
"73 80 CURVE",
"73 57 OFFCURVE",
"96 45 OFFCURVE",
"119 45 CURVE SMOOTH"
);
}
);
width = 238;
},
{
layerId = "85CA6BE8-4AFB-4921-9C51-19E8EEB169E9";
paths = (
{
closed = 1;
nodes = (
"195 80 CURVE SMOOTH",
"195 51.196 OFFCURVE",
"169.307 30.235 OFFCURVE",
"134 30.235 CURVE SMOOTH",
"98.693 30.235 OFFCURVE",
"73 51.196 OFFCURVE",
"73 80 CURVE SMOOTH",
"73 108.804 OFFCURVE",
"98.693 129.765 OFFCURVE",
"134 129.765 CURVE SMOOTH",
"169.307 129.765 OFFCURVE",
"195 108.804 OFFCURVE"
);
},
{
closed = 1;
nodes = (
"195 433 CURVE SMOOTH",
"195 404.196 OFFCURVE",
"169.307 383.235 OFFCURVE",
"134 383.235 CURVE SMOOTH",
"98.693 383.235 OFFCURVE",
"73 404.196 OFFCURVE",
"73 433 CURVE SMOOTH",
"73 461.804 OFFCURVE",
"98.693 482.765 OFFCURVE",
"134 482.765 CURVE SMOOTH",
"169.307 482.765 OFFCURVE",
"195 461.804 OFFCURVE"
);
}
);
width = 268;
}
);
unicode = 003A;
},
{
glyphname = semicolon;
lastChange = "2016-06-28 16:50:45 +0000";
layers = (
{
layerId = "E470338E-0F5C-48CE-A795-CCBFA337B20F";
paths = (
{
closed = 1;
nodes = (
"104.333 -29 OFFCURVE",
"111 -22 OFFCURVE",
"117 -8 CURVE",
"159 75 LINE",
"161 79 OFFCURVE",
"163 83 OFFCURVE",
"163 87 CURVE SMOOTH",
"163 101 OFFCURVE",
"149 112 OFFCURVE",
"127 112 CURVE SMOOTH",
"117.667 112 OFFCURVE",
"111 105.333 OFFCURVE",
"107 92 CURVE SMOOTH",
"83 6 LINE SMOOTH",
"81 0 OFFCURVE",
"80 -5 OFFCURVE",
"80 -9 CURVE SMOOTH",
"80 -22.333 OFFCURVE",
"85.667 -29 OFFCURVE",
"97 -29 CURVE SMOOTH"
);
},
{
closed = 1;
nodes = (
"142 398 OFFCURVE",
"165 410 OFFCURVE",
"165 433 CURVE SMOOTH",
"165 456 OFFCURVE",
"143 468 OFFCURVE",
"121 468 CURVE SMOOTH",
"98 468 OFFCURVE",
"75 456 OFFCURVE",
"73 433 CURVE",
"73 410 OFFCURVE",
"96 398 OFFCURVE",
"119 398 CURVE SMOOTH"
);
}
);
width = 241;
},
{
layerId = "85CA6BE8-4AFB-4921-9C51-19E8EEB169E9";
paths = (
{
closed = 1;
nodes = (
"108.959 -44 CURVE SMOOTH",
"90.543 -44 OFFCURVE",
"80 -31.85 OFFCURVE",
"80 -10.628 CURVE SMOOTH",
"80 18.02 OFFCURVE",
"99.472 68.712 OFFCURVE",
"105.194 89.453 CURVE SMOOTH",
"112.477 115.854 OFFCURVE",
"124.947 127 OFFCURVE",
"147.2 127 CURVE SMOOTH",
"173.341 127 OFFCURVE",
"191.783 113.673 OFFCURVE",
"191.783 94.784 CURVE SMOOTH",
"191.783 66.325 OFFCURVE",
"156.734 8.273 OFFCURVE",
"144.625 -16.854 CURVE SMOOTH",
"135.75 -35.269 OFFCURVE",
"124.279 -44 OFFCURVE"
);
},
{
closed = 1;
nodes = (
"195 433 CURVE SMOOTH",
"195 404.196 OFFCURVE",
"169.307 383.235 OFFCURVE",
"134 383.235 CURVE SMOOTH",
"98.693 383.235 OFFCURVE",
"73 404.196 OFFCURVE",
"73 433 CURVE SMOOTH",
"73 461.804 OFFCURVE",
"98.693 482.765 OFFCURVE",
"134 482.765 CURVE SMOOTH",
"169.307 482.765 OFFCURVE",
"195 461.804 OFFCURVE"
);
}
);
width = 271;
}
);
unicode = 003B;
},
{
glyphname = less;
lastChange = "2016-06-28 16:50:43 +0000";
layers = (
{
layerId = "E470338E-0F5C-48CE-A795-CCBFA337B20F";
paths = (
{
closed = 1;
nodes = (
"443.667 94 OFFCURVE",
"450 102.333 OFFCURVE",
"450 119 CURVE SMOOTH",
"450 125 OFFCURVE",
"444.333 131 OFFCURVE",
"433 137 CURVE SMOOTH",
"95 333 LINE",
"434 527 LINE",
"444.667 535 OFFCURVE",
"450 543 OFFCURVE",
"450 551 CURVE SMOOTH",
"450 563 OFFCURVE",
"443.333 569 OFFCURVE",
"430 569 CURVE SMOOTH",
"424 569 OFFCURVE",
"418 567.333 OFFCURVE",
"412 564 CURVE SMOOTH",
"49 354 LINE SMOOTH",
"38 348 OFFCURVE",
"33 341 OFFCURVE",
"33 333 CURVE SMOOTH",
"33 325 OFFCURVE",
"38 317 OFFCURVE",
"49 310 CURVE",
"412 100 LINE SMOOTH",
"420 96 OFFCURVE",
"426.333 94 OFFCURVE",
"431 94 CURVE SMOOTH"
);
}
);
width = 522;
},
{
layerId = "85CA6BE8-4AFB-4921-9C51-19E8EEB169E9";
paths = (
{
closed = 1;
nodes = (
"33 332.569 CURVE SMOOTH",
"33 345.439 OFFCURVE",
"41.37 358.158 OFFCURVE",
"55 366 CURVE SMOOTH",
"420 576 LINE SMOOTH",
"429.995 581.75 OFFCURVE",
"436.993 584.002 OFFCURVE",
"444.871 584.002 CURVE SMOOTH",
"464.51 584.002 OFFCURVE",
"480.024 570.319 OFFCURVE",
"480.024 552.997 CURVE SMOOTH",
"480.024 538.955 OFFCURVE",
"469.928 523.625 OFFCURVE",
"455 515 CURVE SMOOTH",
"140 333 LINE",
"455 149 LINE SMOOTH",
"471.427 139.405 OFFCURVE",
"480 127.108 OFFCURVE",
"480 113.141 CURVE SMOOTH",
"480 93.867 OFFCURVE",
"465.118 79.957 OFFCURVE",
"444.495 79.957 CURVE SMOOTH",
"436.004 79.957 OFFCURVE",
"429.246 82.089 OFFCURVE",
"419 88 CURVE SMOOTH",
"55 298 LINE SMOOTH",
"41.751 305.643 OFFCURVE",
"33 319.394 OFFCURVE"
);
}
);
width = 548;
}
);
unicode = 003C;
},
{
glyphname = equal;
lastChange = "2016-06-28 16:49:57 +0000";
layers = (
{
layerId = "E470338E-0F5C-48CE-A795-CCBFA337B20F";
paths = (
{
closed = 1;
nodes = (
"350 362 LINE SMOOTH",
"369.333 362 OFFCURVE",
"379 368.667 OFFCURVE",
"379 382 CURVE SMOOTH",
"379 397.333 OFFCURVE",
"369.333 405 OFFCURVE",
"350 405 CURVE SMOOTH",
"105 405 LINE",
"104.333 405 OFFCURVE",
"103.667 405 OFFCURVE",
"103 405 CURVE",
"87 405 OFFCURVE",
"79 398 OFFCURVE",
"79 384 CURVE SMOOTH",
"79 369.333 OFFCURVE",
"87.667 362 OFFCURVE",
"105 362 CURVE SMOOTH"
);
},
{
closed = 1;
nodes = (
"103.667 259 OFFCURVE",
"104.333 259 OFFCURVE",
"105 259 CURVE",
"350 259 LINE SMOOTH",
"369.333 259 OFFCURVE",
"379 265.667 OFFCURVE",
"379 279 CURVE SMOOTH",
"379 294.333 OFFCURVE",
"369.333 302 OFFCURVE",
"350 302 CURVE SMOOTH",
"105 302 LINE SMOOTH",
"87.667 302 OFFCURVE",
"79 294.667 OFFCURVE",
"79 280 CURVE SMOOTH",
"79 266 OFFCURVE",
"87 259 OFFCURVE",
"103 259 CURVE"
);
}
);
width = 458;
},
{
layerId = "85CA6BE8-4AFB-4921-9C51-19E8EEB169E9";
paths = (
{
closed = 1;
nodes = (
"365 420 LINE SMOOTH",
"393.458 420 OFFCURVE",
"409 407.769 OFFCURVE",
"409 385.375 CURVE SMOOTH",
"409 362.424 OFFCURVE",
"391.315 347 OFFCURVE",
"365 347 CURVE SMOOTH",
"120 347 LINE SMOOTH",
"93.314 347 OFFCURVE",
"79 359.102 OFFCURVE",
"79 381.664 CURVE SMOOTH",
"79 405.04 OFFCURVE",
"95 420 OFFCURVE",
"120 420 CURVE SMOOTH"
);
},
{
closed = 1;
nodes = (
"365 317 LINE SMOOTH",
"393.458 317 OFFCURVE",
"409 304.769 OFFCURVE",
"409 282.375 CURVE SMOOTH",
"409 259.424 OFFCURVE",
"391.315 244 OFFCURVE",
"365 244 CURVE SMOOTH",
"120 244 LINE SMOOTH",
"93.314 244 OFFCURVE",
"79 256.102 OFFCURVE",
"79 278.664 CURVE SMOOTH",
"79 302.04 OFFCURVE",
"95 317 OFFCURVE",
"120 317 CURVE SMOOTH"
);
}
);
width = 488;
}
);
unicode = 003D;
},
{
glyphname = greater;
lastChange = "2016-06-28 16:50:43 +0000";
layers = (
{
layerId = "E470338E-0F5C-48CE-A795-CCBFA337B20F";
paths = (
{
closed = 1;
nodes = (
"98.667 94 OFFCURVE",
"104.333 95.667 OFFCURVE",
"109 99 CURVE SMOOTH",
"473 309 LINE SMOOTH",
"484 315 OFFCURVE",
"489 322 OFFCURVE",
"489 330 CURVE SMOOTH",
"489 338 OFFCURVE",
"484 346 OFFCURVE",
"473 353 CURVE",
"109 563 LINE SMOOTH",
"102.333 567 OFFCURVE",
"96.333 569 OFFCURVE",
"91 569 CURVE",
"78.333 568.333 OFFCURVE",
"72 560 OFFCURVE",
"72 544 CURVE SMOOTH",
"72 537.333 OFFCURVE",
"77.667 531.333 OFFCURVE",
"89 526 CURVE",
"427 331 LINE",
"88 136 LINE SMOOTH",
"77.333 129.333 OFFCURVE",
"72 121.667 OFFCURVE",
"72 113 CURVE SMOOTH",
"72 100.333 OFFCURVE",
"78.667 94 OFFCURVE",
"92 94 CURVE SMOOTH"
);
}
);
width = 522;
},
{
layerId = "85CA6BE8-4AFB-4921-9C51-19E8EEB169E9";
paths = (
{
closed = 1;
nodes = (
"104.039 78.998 CURVE SMOOTH",
"85.404 78.998 OFFCURVE",
"67.902 96.246 OFFCURVE",
"67.902 114.609 CURVE SMOOTH",
"67.902 127.168 OFFCURVE",
"77.025 139.669 OFFCURVE",
"93 149 CURVE SMOOTH",
"408 333 LINE",
"93 515 LINE SMOOTH",
"77.349 524.043 OFFCURVE",
"68 538.048 OFFCURVE",
"68 552.45 CURVE SMOOTH",
"68 570.54 OFFCURVE",
"82.757 583.6 OFFCURVE",
"103.198 583.6 CURVE SMOOTH",
"111.475 583.6 OFFCURVE",
"118.568 581.427 OFFCURVE",
"128 576 CURVE SMOOTH",
"493 366 LINE SMOOTH",
"506.63 358.158 OFFCURVE",
"515 345.439 OFFCURVE",
"515 332.569 CURVE SMOOTH",
"515 319.394 OFFCURVE",
"506.249 305.643 OFFCURVE",
"493 298 CURVE SMOOTH",
"129 88 LINE SMOOTH",
"117.067 81.116 OFFCURVE",
"111.195 78.998 OFFCURVE"
);
}
);
width = 548;
}
);
unicode = 003E;
},
{
glyphname = question;
lastChange = "2016-06-28 16:50:45 +0000";
layers = (
{
layerId = "E470338E-0F5C-48CE-A795-CCBFA337B20F";
paths = (
{
closed = 1;
nodes = (
"258 166 OFFCURVE",
"268 175 OFFCURVE",
"268 194 CURVE SMOOTH",
"268 303 LINE",
"362 329 LINE SMOOTH",
"452.667 354.333 OFFCURVE",
"485 396 OFFCURVE",
"485 484 CURVE SMOOTH",
"485 572 OFFCURVE",
"438.667 644 OFFCURVE",
"324 644 CURVE SMOOTH",
"248 644 LINE SMOOTH",
"178.667 644 OFFCURVE",
"138 638 OFFCURVE",
"98 614 CURVE SMOOTH",
"59.333 591.333 OFFCURVE",
"39.667 543.667 OFFCURVE",
"39 471 CURVE",
"39 452 OFFCURVE",
"50 443 OFFCURVE",
"61 443 CURVE SMOOTH",
"71 443 OFFCURVE",
"82 452 OFFCURVE",
"82 471 CURVE SMOOTH",
"82 593.277 OFFCURVE",
"134.424 602 OFFCURVE",
"248 602 CURVE SMOOTH",
"341 602 LINE SMOOTH",
"411.667 602 OFFCURVE",
"443 542.333 OFFCURVE",
"443 485 CURVE SMOOTH",
"443 427.667 OFFCURVE",
"416.333 386.667 OFFCURVE",
"379 376 CURVE SMOOTH",
"226 334 LINE",
"226 194 LINE SMOOTH",
"226 175 OFFCURVE",
"237 166 OFFCURVE",
"247 166 CURVE SMOOTH"
);
},
{
closed = 1;
nodes = (
"268 -7 OFFCURVE",
"293 11 OFFCURVE",
"293 31 CURVE SMOOTH",
"293 39 OFFCURVE",
"289 47 OFFCURVE",
"277.5 54 CURVE",
"269 62 OFFCURVE",
"259 65 OFFCURVE",
"249 65 CURVE SMOOTH",
"225 65 OFFCURVE",
"201 47 OFFCURVE",
"201 27 CURVE SMOOTH",
"201 19 OFFCURVE",
"205 11 OFFCURVE",
"216 4 CURVE",
"224 -4 OFFCURVE",
"234 -7 OFFCURVE",
"244 -7 CURVE SMOOTH"
);
}
);
width = 528;
},
{
layerId = "85CA6BE8-4AFB-4921-9C51-19E8EEB169E9";
paths = (
{
closed = 1;
nodes = (
"321 29 CURVE SMOOTH",
"321 0.196 OFFCURVE",
"295.307 -20.765 OFFCURVE",
"260 -20.765 CURVE SMOOTH",
"224.693 -20.765 OFFCURVE",
"199 0.196 OFFCURVE",
"199 29 CURVE SMOOTH",
"199 57.804 OFFCURVE",
"224.693 78.765 OFFCURVE",
"260 78.765 CURVE SMOOTH",
"295.307 78.765 OFFCURVE",
"321 57.804 OFFCURVE"
);
},
{
closed = 1;
nodes = (
"224 194 CURVE SMOOTH",
"224 346 LINE",
"389 391 LINE SMOOTH",
"419.68 399.367 OFFCURVE",
"441 438.755 OFFCURVE",
"441 487.066 CURVE SMOOTH",
"441 546.965 OFFCURVE",
"406.146 587 OFFCURVE",
"354 587 CURVE SMOOTH",
"261 587 LINE SMOOTH",
"136.739 587 OFFCURVE",
"110 570.571 OFFCURVE",
"110 494.223 CURVE SMOOTH",
"110 449.627 OFFCURVE",
"97.885 427.471 OFFCURVE",
"73.5 427.471 CURVE SMOOTH",
"48.71 427.471 OFFCURVE",
"37 450.46 OFFCURVE",
"37 499.127 CURVE SMOOTH",
"37 614.125 OFFCURVE",
"99.874 659 OFFCURVE",
"261 659 CURVE SMOOTH",
"337 659 LINE SMOOTH",
"448.574 659 OFFCURVE",
"513 592.845 OFFCURVE",
"513 478.275 CURVE SMOOTH",
"513 336.771 OFFCURVE",
"414.862 324.072 OFFCURVE",
"296 291 CURVE",
"296 194 LINE SMOOTH",
"296 168.702 OFFCURVE",
"280.922 150.471 OFFCURVE",
"260 150.471 CURVE SMOOTH",
"239.078 150.471 OFFCURVE",
"224 168.702 OFFCURVE"
);
}
);
width = 553;
}
);
unicode = 003F;
},
{
glyphname = at;
lastChange = "2016-06-28 16:49:57 +0000";
layers = (
{
layerId = "E470338E-0F5C-48CE-A795-CCBFA337B20F";
paths = (
{
closed = 1;
nodes = (
"420 0 LINE SMOOTH",
"502.667 0 OFFCURVE",
"516 47.333 OFFCURVE",
"516 110 CURVE SMOOTH",
"516 127.333 OFFCURVE",
"509 136.333 OFFCURVE",
"495 137 CURVE",
"481 137 OFFCURVE",
"474 126.167 OFFCURVE",
"474 104.5 CURVE SMOOTH",
"474 82.833 OFFCURVE",
"469.5 67 OFFCURVE",
"460.5 57 CURVE SMOOTH",
"451.5 47 OFFCURVE",
"435.667 42 OFFCURVE",
"413 42 CURVE SMOOTH",
"279 42 LINE SMOOTH",
"169.667 42 OFFCURVE",
"113 115.667 OFFCURVE",
"113 241 CURVE SMOOTH",
"113 395 LINE SMOOTH",
"113 520.333 OFFCURVE",
"169.667 594 OFFCURVE",
"279 594 CURVE SMOOTH",
"308 594 LINE SMOOTH",
"417.333 594 OFFCURVE",
"474 522.833 OFFCURVE",
"474 387.5 CURVE SMOOTH",
"474 319.833 OFFCURVE",
"465 277.667 OFFCURVE",
"447 261 CURVE SMOOTH",
"438.333 253 OFFCURVE",
"424.667 247 OFFCURVE",
"406 243 CURVE",
"414.667 264.333 OFFCURVE",
"419 297.167 OFFCURVE",
"419 341.5 CURVE SMOOTH",
"419 385.833 OFFCURVE",
"410.5 418.833 OFFCURVE",
"393.5 440.5 CURVE SMOOTH",
"376.5 462.167 OFFCURVE",
"344.5 473 OFFCURVE",
"297.5 473 CURVE SMOOTH",
"203.5 473 OFFCURVE",
"176 433.5 OFFCURVE",
"176 331.5 CURVE SMOOTH",
"176 280.5 OFFCURVE",
"184.5 244.167 OFFCURVE",
"201.5 222.5 CURVE SMOOTH",
"218.5 200.833 OFFCURVE",
"252.5 190 OFFCURVE",
"303.5 190 CURVE SMOOTH",
"354.5 190 OFFCURVE",
"395.5 195.5 OFFCURVE",
"426.5 206.5 CURVE SMOOTH",
"457.5 217.5 OFFCURVE",
"480.167 235.167 OFFCURVE",
"494.5 259.5 CURVE SMOOTH",
"508.833 283.833 OFFCURVE",
"516 331.333 OFFCURVE",
"516 402 CURVE SMOOTH",
"516 472.667 OFFCURVE",
"497.167 529.333 OFFCURVE",
"459.5 572 CURVE SMOOTH",
"421.833 614.667 OFFCURVE",
"371.333 636 OFFCURVE",
"308 636 CURVE SMOOTH",
"279 636 LINE SMOOTH",
"152.333 636 OFFCURVE",
"71 545.667 OFFCURVE",
"71 395 CURVE SMOOTH",
"71 241 LINE SMOOTH",
"71 90.333 OFFCURVE",
"152.333 0 OFFCURVE",
"279 0 CURVE SMOOTH"
);
},
{
closed = 1;
nodes = (
"228.833 232 OFFCURVE",
"218 253.5 OFFCURVE",
"218 331.5 CURVE SMOOTH",
"218 409.5 OFFCURVE",
"228.833 431 OFFCURVE",
"297.5 431 CURVE SMOOTH",
"366.167 431 OFFCURVE",
"377 409.5 OFFCURVE",
"377 331.5 CURVE SMOOTH",
"377 253.5 OFFCURVE",
"366.167 232 OFFCURVE",
"297.5 232 CURVE SMOOTH"
);
}
);
width = 584;
},
{
layerId = "85CA6BE8-4AFB-4921-9C51-19E8EEB169E9";
paths = (
{
closed = 1;
nodes = (
"69 395 LINE SMOOTH",
"69 551.939 OFFCURVE",
"155.292 651 OFFCURVE",
"292 651 CURVE SMOOTH",
"321 651 LINE SMOOTH",
"462.501 651 OFFCURVE",
"544.064 550.659 OFFCURVE",
"544.064 376.579 CURVE SMOOTH",
"544.064 231.845 OFFCURVE",
"488.715 175 OFFCURVE",
"347.791 175 CURVE SMOOTH",
"217.633 175 OFFCURVE",
"174 214.303 OFFCURVE",
"174 331.544 CURVE SMOOTH",
"174 445.689 OFFCURVE",
"211.039 488 OFFCURVE",
"310.963 488 CURVE SMOOTH",
"411.536 488 OFFCURVE",
"447 445.338 OFFCURVE",
"447 324.352 CURVE SMOOTH",
"447 301.225 OFFCURVE",
"444.991 282.025 OFFCURVE",
"441 267 CURVE",
"478.047 285.085 OFFCURVE",
"472 373.068 OFFCURVE",
"472 407.105 CURVE SMOOTH",
"472 513.737 OFFCURVE",
"414.671 579 OFFCURVE",
"321 579 CURVE SMOOTH",
"292 579 LINE SMOOTH",
"193.944 579 OFFCURVE",
"141 514.485 OFFCURVE",
"141 395 CURVE SMOOTH",
"141 241 LINE SMOOTH",
"141 121.515 OFFCURVE",
"193.944 57 OFFCURVE",
"292 57 CURVE SMOOTH",
"426 57 LINE SMOOTH",
"510.611 57 OFFCURVE",
"437.89 152 OFFCURVE",
"503.456 152 CURVE SMOOTH",
"531.58 152 OFFCURVE",
"544 134.663 OFFCURVE",
"544 95.405 CURVE SMOOTH",
"544 21.853 OFFCURVE",
"506.948 -15 OFFCURVE",
"433 -15 CURVE SMOOTH",
"292 -15 LINE SMOOTH",
"155.292 -15 OFFCURVE",
"69 84.061 OFFCURVE",
"69 241 CURVE SMOOTH"
);
},
{
closed = 1;
nodes = (
"246 333.645 CURVE SMOOTH",
"246 273.28 OFFCURVE",
"245.018 247 OFFCURVE",
"310.563 247 CURVE SMOOTH",
"375.712 247 OFFCURVE",
"375 272.963 OFFCURVE",
"375 331.5 CURVE SMOOTH",
"375 390.037 OFFCURVE",
"375.712 416 OFFCURVE",
"309.716 416 CURVE SMOOTH",
"245.11 416 OFFCURVE",
"246 391.12 OFFCURVE"
);
}
);
width = 612;
}
);
unicode = 0040;
},
{
glyphname = A;
lastChange = "2016-06-28 16:49:57 +0000";
layers = (
{
layerId = "E470338E-0F5C-48CE-A795-CCBFA337B20F";
paths = (
{
closed = 1;
nodes = (
"52.667 -16 OFFCURVE",
"60 -9.333 OFFCURVE",
"66 4 CURVE",
"138 204 LINE",
"410 204 LINE",
"482 4 LINE SMOOTH",
"487.333 -9.333 OFFCURVE",
"494.667 -16 OFFCURVE",
"504 -16 CURVE SMOOTH",
"518 -16 OFFCURVE",
"525 -9.333 OFFCURVE",
"525 4 CURVE SMOOTH",
"525 8.667 OFFCURVE",
"524 13.333 OFFCURVE",
"522 18 CURVE SMOOTH",
"297 636 LINE",
"251 636 LINE",
"26 18 LINE SMOOTH",
"24 13.333 OFFCURVE",
"23 8.667 OFFCURVE",
"23 4 CURVE SMOOTH",
"23 -9.333 OFFCURVE",
"30 -16 OFFCURVE",
"44 -16 CURVE SMOOTH"
);
},
{
closed = 1;
nodes = (
"273 575 LINE",
"394 246 LINE",
"154 246 LINE"
);
}
);
width = 548;
},
{
layerId = "85CA6BE8-4AFB-4921-9C51-19E8EEB169E9";
paths = (
{
closed = 1;
nodes = (
"346 636 LINE",
"385.939 538.592 OFFCURVE",
"585.459 86.341 OFFCURVE",
"585.459 20.468 CURVE SMOOTH",
"585.459 0.979 OFFCURVE",
"568.972 -16 OFFCURVE",
"550.049 -16 CURVE SMOOTH",
"534.534 -16 OFFCURVE",
"519.48 -4.623 OFFCURVE",
"513 12 CURVE SMOOTH",
"444 189 LINE",
"166 189 LINE",
"97 12 LINE SMOOTH",
"90.523 -4.614 OFFCURVE",
"75.454 -16 OFFCURVE",
"59.942 -16 CURVE SMOOTH",
"41.025 -16 OFFCURVE",
"24.542 0.981 OFFCURVE",
"24.542 20.468 CURVE SMOOTH",
"24.542 86.341 OFFCURVE",
"224.061 538.593 OFFCURVE",
"264 636 CURVE"
);
},
{
closed = 1;
nodes = (
"195 261 LINE",
"415 261 LINE",
"304 532 LINE"
);
}
);
width = 610;
}
);
unicode = 0041;
},
{
glyphname = B;
lastChange = "2016-06-28 16:49:57 +0000";
layers = (
{
layerId = "E470338E-0F5C-48CE-A795-CCBFA337B20F";
paths = (
{
closed = 1;
nodes = (
"321 0 LINE SMOOTH",
"461 0 OFFCURVE",
"528 35 OFFCURVE",
"528 175 CURVE SMOOTH",
"528 204 LINE SMOOTH",
"528 300 OFFCURVE",
"496.333 347 OFFCURVE",
"431 367 CURVE",
"467.667 390.333 OFFCURVE",
"486 430.333 OFFCURVE",
"486 487 CURVE SMOOTH",
"486 543.667 OFFCURVE",
"468.667 582.667 OFFCURVE",
"434 604 CURVE SMOOTH",
"399.333 625.333 OFFCURVE",
"347.667 636 OFFCURVE",
"279 636 CURVE SMOOTH",
"103 636 LINE SMOOTH",
"90.333 636 OFFCURVE",
"84 625.667 OFFCURVE",
"84 605 CURVE SMOOTH",
"84 31 LINE SMOOTH",
"84 10.333 OFFCURVE",
"90.333 0 OFFCURVE",
"103 0 CURVE SMOOTH"
);
},
{
closed = 1;
nodes = (
"126 337 LINE",
"321 337 LINE SMOOTH",
"432.143 337 OFFCURVE",
"486 326.017 OFFCURVE",
"486 204 CURVE SMOOTH",
"486 175 LINE SMOOTH",
"486 52.983 OFFCURVE",
"432.143 42 OFFCURVE",
"321 42 CURVE SMOOTH",
"126 42 LINE"
);
},
{
closed = 1;
nodes = (
"126 594 LINE",
"279 594 LINE SMOOTH",
"399 594 OFFCURVE",
"444 574 OFFCURVE",
"444 486 CURVE SMOOTH",
"444 398 OFFCURVE",
"397.667 380.333 OFFCURVE",
"279 379 CURVE",
"126 379 LINE"
);
}
);
width = 584;
},
{
layerId = "85CA6BE8-4AFB-4921-9C51-19E8EEB169E9";
paths = (
{
closed = 1;
nodes = (
"156 312 LINE",
"156 72 LINE",
"374.416 71.837 LINE",
"486.482 71.837 OFFCURVE",
"516 95.989 OFFCURVE",
"516 187.683 CURVE SMOOTH",
"516 285.895 OFFCURVE",
"485.298 312.01 OFFCURVE",
"369.838 312.01 CURVE"
);
},
{
closed = 1;
nodes = (
"84 44 CURVE SMOOTH",
"84 592 LINE SMOOTH",
"84 620.439 OFFCURVE",
"96.024 636 OFFCURVE",
"118 636 CURVE SMOOTH",
"306 636 LINE SMOOTH",
"474.424 636 OFFCURVE",
"546 588.718 OFFCURVE",
"546 477.459 CURVE SMOOTH",
"546 428.937 OFFCURVE",
"532.186 390.445 OFFCURVE",
"506 366 CURVE",
"560.305 339.058 OFFCURVE",
"588 283.517 OFFCURVE",
"588 201.554 CURVE SMOOTH",
"588 52.67 OFFCURVE",
"522.148 0 OFFCURVE",
"336 0 CURVE SMOOTH",
"118 0 LINE SMOOTH",
"96.024 0 OFFCURVE",
"84 15.561 OFFCURVE"
);
},
{
closed = 1;
nodes = (
"336.79 383.854 LINE",
"433.181 383.854 OFFCURVE",
"474 410.017 OFFCURVE",
"474 471.799 CURVE SMOOTH",
"474 533.078 OFFCURVE",
"433.771 559.189 OFFCURVE",
"339.359 559.189 CURVE",
"156 559 LINE",
"156 384 LINE"
);
}
);
width = 644;
}
);
unicode = 0042;
},
{
glyphname = C;
lastChange = "2016-06-28 16:50:43 +0000";
layers = (
{
layerId = "E470338E-0F5C-48CE-A795-CCBFA337B20F";
paths = (
{
closed = 1;
nodes = (
"421 0 LINE SMOOTH",
"505 0 OFFCURVE",
"516 48.667 OFFCURVE",
"516 110 CURVE SMOOTH",
"516 127.333 OFFCURVE",
"509 136.333 OFFCURVE",
"495 137 CURVE",
"481 137 OFFCURVE",
"474 126.167 OFFCURVE",
"474 104.5 CURVE SMOOTH",
"474 82.833 OFFCURVE",
"469.667 67 OFFCURVE",
"461 57 CURVE SMOOTH",
"452.333 47 OFFCURVE",
"436.667 42 OFFCURVE",
"414 42 CURVE SMOOTH",
"280 42 LINE SMOOTH",
"167.186 42 OFFCURVE",
"114 52.983 OFFCURVE",
"114 175 CURVE SMOOTH",
"114 461 LINE SMOOTH",
"114 583.017 OFFCURVE",
"167.186 594 OFFCURVE",
"280 594 CURVE SMOOTH",
"414 594 LINE SMOOTH",
"459.333 594 OFFCURVE",
"474 573.667 OFFCURVE",
"474 531 CURVE SMOOTH",
"474 509.667 OFFCURVE",
"481 499 OFFCURVE",
"495 499 CURVE",
"507 498 OFFCURVE",
"517 520 OFFCURVE",
"517 547 CURVE SMOOTH",
"517 589 OFFCURVE",
"494 642 OFFCURVE",
"421 636 CURVE",
"280 636 LINE SMOOTH",
"138.667 636 OFFCURVE",
"72 601 OFFCURVE",
"72 461 CURVE SMOOTH",
"72 175 LINE SMOOTH",
"72 35 OFFCURVE",
"138.667 0 OFFCURVE",
"280 0 CURVE SMOOTH"
);
}
);
width = 572;
},
{
layerId = "85CA6BE8-4AFB-4921-9C51-19E8EEB169E9";
paths = (
{
closed = 1;
nodes = (
"465 0 CURVE SMOOTH",
"324 0 LINE SMOOTH",
"138.202 0 OFFCURVE",
"71 48.874 OFFCURVE",
"71 184 CURVE SMOOTH",
"71 452 LINE SMOOTH",
"71 585.703 OFFCURVE",
"135.238 636 OFFCURVE",
"306 636 CURVE SMOOTH",
"465 636 LINE SMOOTH",
"537.679 636 OFFCURVE",
"575 598.867 OFFCURVE",
"575 526.553 CURVE SMOOTH",
"575 487.533 OFFCURVE",
"563.05 469 OFFCURVE",
"537.89 469 CURVE SMOOTH",
"480.225 469 OFFCURVE",
"524.824 565.135 OFFCURVE",
"422.443 565.135 CURVE SMOOTH",
"411.337 565.135 OFFCURVE",
"353.115 564.003 OFFCURVE",
"297.157 564.003 CURVE SMOOTH",
"175.086 564.003 OFFCURVE",
"143 540.275 OFFCURVE",
"143 450 CURVE SMOOTH",
"143 186 LINE SMOOTH",
"143 99.376 OFFCURVE",
"177.084 71.827 OFFCURVE",
"284.254 71.827 CURVE",
"458 72 LINE",
"538.17 72 OFFCURVE",
"473.619 167 OFFCURVE",
"534.488 167 CURVE SMOOTH",
"561.744 167 OFFCURVE",
"575 147.529 OFFCURVE",
"575 107.495 CURVE SMOOTH",
"575 36.803 OFFCURVE",
"537.339 0 OFFCURVE"
);
}
);
width = 631;
}
);
unicode = 0043;
},
{
glyphname = D;
lastChange = "2016-06-28 16:49:57 +0000";
layers = (
{
layerId = "E470338E-0F5C-48CE-A795-CCBFA337B20F";
paths = (
{
closed = 1;
nodes = (
"321 0 LINE SMOOTH",
"461 0 OFFCURVE",
"528 35 OFFCURVE",
"528 175 CURVE SMOOTH",
"528 461 LINE SMOOTH",
"528 601 OFFCURVE",
"461 636 OFFCURVE",
"321 636 CURVE SMOOTH",
"103 636 LINE SMOOTH",
"90.333 636 OFFCURVE",
"84 625.667 OFFCURVE",
"84 605 CURVE SMOOTH",
"84 31 LINE SMOOTH",
"84 10.333 OFFCURVE",
"90.333 0 OFFCURVE",
"103 0 CURVE SMOOTH"
);
},
{
closed = 1;
nodes = (
"126 594 LINE",
"321 594 LINE SMOOTH",
"432.143 594 OFFCURVE",
"486 583.017 OFFCURVE",
"486 461 CURVE SMOOTH",
"486 175 LINE SMOOTH",
"486 52.983 OFFCURVE",
"432.143 42 OFFCURVE",
"321 42 CURVE SMOOTH",
"126 42 LINE"
);
}
);
width = 600;
},
{
layerId = "85CA6BE8-4AFB-4921-9C51-19E8EEB169E9";
paths = (
{
closed = 1;
nodes = (
"588 452 CURVE SMOOTH",
"588 184 LINE SMOOTH",
"588 48.592 OFFCURVE",
"521.45 0 OFFCURVE",
"336 0 CURVE SMOOTH",
"118 0 LINE SMOOTH",
"95.9 0 OFFCURVE",
"84 15.4 OFFCURVE",
"84 44 CURVE SMOOTH",
"84 592 LINE SMOOTH",
"84 620.6 OFFCURVE",
"95.9 636 OFFCURVE",
"118 636 CURVE SMOOTH",
"354 636 LINE SMOOTH",
"524.235 636 OFFCURVE",
"588 585.86 OFFCURVE"
);
},
{
closed = 1;
nodes = (
"516 186 CURVE SMOOTH",
"516 450 LINE SMOOTH",
"516 540.72 OFFCURVE",
"485.166 564.003 OFFCURVE",
"365.023 564.003 CURVE",
"156 564 LINE",
"156 72 LINE",
"375.871 71.826 LINE",
"483.037 71.826 OFFCURVE",
"516 98.683 OFFCURVE"
);
}
);
width = 659;
}
);
unicode = 0044;
},
{
glyphname = E;
lastChange = "2016-06-28 16:49:57 +0000";
layers = (
{
layerId = "E470338E-0F5C-48CE-A795-CCBFA337B20F";
paths = (
{
closed = 1;
nodes = (
"499 0 LINE SMOOTH",
"518.333 0 OFFCURVE",
"528 6.333 OFFCURVE",
"528 19 CURVE SMOOTH",
"528 34.333 OFFCURVE",
"518.333 42 OFFCURVE",
"499 42 CURVE SMOOTH",
"126 42 LINE",
"126 337 LINE",
"381 337 LINE SMOOTH",
"401 337 OFFCURVE",
"411 343.333 OFFCURVE",
"411 356 CURVE SMOOTH",
"411 371.333 OFFCURVE",
"401 379 OFFCURVE",
"381 379 CURVE SMOOTH",
"126 379 LINE",
"126 594 LINE",
"499 594 LINE SMOOTH",
"518.333 594 OFFCURVE",
"528 600.333 OFFCURVE",
"528 613 CURVE SMOOTH",
"528 628.333 OFFCURVE",
"518.333 636 OFFCURVE",
"499 636 CURVE SMOOTH",
"103 636 LINE SMOOTH",
"90.333 636 OFFCURVE",
"84 625.667 OFFCURVE",
"84 605 CURVE SMOOTH",
"84 31 LINE SMOOTH",
"84 10.333 OFFCURVE",
"90.333 0 OFFCURVE",
"103 0 CURVE SMOOTH"
);
}
);
width = 577;
},
{
layerId = "85CA6BE8-4AFB-4921-9C51-19E8EEB169E9";
paths = (
{
closed = 1;
nodes = (
"156 322 LINE",
"156 72 LINE",
"544 72 LINE SMOOTH",
"570.395 72 OFFCURVE",
"588 57.259 OFFCURVE",
"588 35.158 CURVE SMOOTH",
"588 13.748 OFFCURVE",
"570.795 0 OFFCURVE",
"544 0 CURVE SMOOTH",
"118 0 LINE SMOOTH",
"97.45 0 OFFCURVE",
"84 17.405 OFFCURVE",
"84 44 CURVE SMOOTH",
"84 592 LINE SMOOTH",
"84 618.595 OFFCURVE",
"97.45 636 OFFCURVE",
"118 636 CURVE SMOOTH",
"544 636 LINE SMOOTH",
"570.395 636 OFFCURVE",
"588 621.259 OFFCURVE",
"588 599.158 CURVE SMOOTH",
"588 577.747 OFFCURVE",
"570.795 564 OFFCURVE",
"544 564 CURVE SMOOTH",
"156 564 LINE",
"156 394 LINE",
"421 394 LINE SMOOTH",
"451.377 394 OFFCURVE",
"471 379.748 OFFCURVE",
"471 357.685 CURVE SMOOTH",
"471 336.072 OFFCURVE",
"451.282 322 OFFCURVE",
"421 322 CURVE SMOOTH"
);
}
);
width = 636;
}
);
unicode = 0045;
},
{
glyphname = F;
lastChange = "2016-06-28 16:50:45 +0000";
layers = (
{
layerId = "E470338E-0F5C-48CE-A795-CCBFA337B20F";
paths = (
{
closed = 1;
nodes = (
"116 -7 OFFCURVE",
"126 3 OFFCURVE",
"126 23 CURVE SMOOTH",
"126 337 LINE",
"381 337 LINE SMOOTH",
"401 337 OFFCURVE",
"411 343.333 OFFCURVE",
"411 356 CURVE SMOOTH",
"411 371.333 OFFCURVE",
"401 379 OFFCURVE",
"381 379 CURVE SMOOTH",
"126 379 LINE",
"126 594 LINE",
"499 594 LINE SMOOTH",
"518.333 594 OFFCURVE",
"528 600.333 OFFCURVE",
"528 613 CURVE SMOOTH",
"528 628.333 OFFCURVE",
"518.333 636 OFFCURVE",
"499 636 CURVE SMOOTH",
"103 636 LINE SMOOTH",
"90.333 636 OFFCURVE",
"84 625.667 OFFCURVE",
"84 605 CURVE SMOOTH",
"84 23 LINE SMOOTH",
"84 3 OFFCURVE",
"95 -7 OFFCURVE",
"105 -7 CURVE SMOOTH"
);
}
);
width = 558;
},
{
layerId = "85CA6BE8-4AFB-4921-9C51-19E8EEB169E9";
paths = (
{
closed = 1;
nodes = (
"120.141 -7 CURVE SMOOTH",
"96.469 -7 OFFCURVE",
"84 7.836 OFFCURVE",
"84 36 CURVE SMOOTH",
"84 592 LINE SMOOTH",
"84 620.716 OFFCURVE",
"95.81 636 OFFCURVE",
"118 636 CURVE SMOOTH",
"544 636 LINE SMOOTH",
"572.589 636 OFFCURVE",
"588 623.193 OFFCURVE",
"588 599.437 CURVE SMOOTH",
"588 576.154 OFFCURVE",
"572.91 564 OFFCURVE",
"544 564 CURVE SMOOTH",
"156 564 LINE",
"156 394 LINE",
"421 394 LINE SMOOTH",
"453.387 394 OFFCURVE",
"471 381.162 OFFCURVE",
"471 357.557 CURVE SMOOTH",
"471 334.367 OFFCURVE",
"453.61 322 OFFCURVE",
"421 322 CURVE SMOOTH",
"156 322 LINE",
"156 35 LINE SMOOTH",
"156 7.516 OFFCURVE",
"143.607 -7 OFFCURVE"
);
}
);
width = 615;
}
);
unicode = 0046;
},
{
glyphname = G;
lastChange = "2016-06-28 16:50:43 +0000";
layers = (
{
layerId = "E470338E-0F5C-48CE-A795-CCBFA337B20F";
paths = (
{
closed = 1;
nodes = (
"421 0 LINE SMOOTH",
"441.667 0 OFFCURVE",
"458.667 3 OFFCURVE",
"472 9 CURVE SMOOTH",
"501.333 21.667 OFFCURVE",
"516 54 OFFCURVE",
"516 106 CURVE SMOOTH",
"516 293 LINE",
"341 293 LINE SMOOTH",
"321 293 OFFCURVE",
"311 283 OFFCURVE",
"311 272 CURVE SMOOTH",
"311 262 OFFCURVE",
"321 251 OFFCURVE",
"341 251 CURVE SMOOTH",
"474 251 LINE",
"474 108 LINE SMOOTH",
"474 60 OFFCURVE",
"459.333 42 OFFCURVE",
"414 42 CURVE SMOOTH",
"280 42 LINE SMOOTH",
"167.186 42 OFFCURVE",
"114 52.983 OFFCURVE",
"114 175 CURVE SMOOTH",
"114 461 LINE SMOOTH",
"114 583.017 OFFCURVE",
"167.186 594 OFFCURVE",
"280 594 CURVE SMOOTH",
"414 594 LINE SMOOTH",
"459.333 594 OFFCURVE",
"474 574.833 OFFCURVE",
"474 531.5 CURVE SMOOTH",
"474 509.833 OFFCURVE",
"481 499 OFFCURVE",
"495 499 CURVE",
"507 498 OFFCURVE",
"517 520 OFFCURVE",
"517 547 CURVE SMOOTH",
"517 589 OFFCURVE",
"494 642 OFFCURVE",
"421 636 CURVE",
"280 636 LINE SMOOTH",
"210.667 636 OFFCURVE",
"170 630 OFFCURVE",
"130 606 CURVE SMOOTH",
"91.333 582.667 OFFCURVE",
"72 534.333 OFFCURVE",
"72 461 CURVE SMOOTH",
"72 175 LINE SMOOTH",
"72 101.667 OFFCURVE",
"91.333 53.333 OFFCURVE",
"130 30 CURVE SMOOTH",
"170 6 OFFCURVE",
"210.667 0 OFFCURVE",
"280 0 CURVE SMOOTH"
);
}
);
width = 585;
},
{
layerId = "85CA6BE8-4AFB-4921-9C51-19E8EEB169E9";
paths = (
{
closed = 1;
nodes = (
"503 236 LINE",
"376 236 LINE SMOOTH",
"343.86 236 OFFCURVE",
"326 248.859 OFFCURVE",
"326 272 CURVE SMOOTH",
"326 295.141 OFFCURVE",
"343.86 308 OFFCURVE",
"376 308 CURVE SMOOTH",
"575 308 LINE",
"575 115 LINE SMOOTH",
"575 35.972 OFFCURVE",
"540.592 0 OFFCURVE",
"465 0 CURVE SMOOTH",
"306 0 LINE SMOOTH",
"134.766 0 OFFCURVE",
"71 49.114 OFFCURVE",
"71 181 CURVE SMOOTH",
"71 455 LINE SMOOTH",
"71 589.044 OFFCURVE",
"136.635 636 OFFCURVE",
"324 636 CURVE SMOOTH",
"465 636 LINE SMOOTH",
"537.695 636 OFFCURVE",
"575 600.02 OFFCURVE",
"575 529.908 CURVE SMOOTH",
"575 489.49 OFFCURVE",
"562.387 468.502 OFFCURVE",
"539 470 CURVE",
"538 469 LINE",
"472.104 464.071 OFFCURVE",
"540.276 564 OFFCURVE",
"458 564 CURVE",
"285.737 564.162 LINE",
"178.189 564.162 OFFCURVE",
"143 536.511 OFFCURVE",
"143 452 CURVE SMOOTH",
"143 184 LINE SMOOTH",
"143 96.102 OFFCURVE",
"174.245 71.985 OFFCURVE",
"288.125 71.985 CURVE",
"458 72 LINE SMOOTH",
"493.04 72.003 OFFCURVE",
"503 82.627 OFFCURVE",
"503 120 CURVE SMOOTH"
);
}
);
width = 645;
}
);
unicode = 0047;
},
{
glyphname = H;
lastChange = "2016-06-28 16:50:45 +0000";
layers = (
{
layerId = "E470338E-0F5C-48CE-A795-CCBFA337B20F";
paths = (
{
closed = 1;
nodes = (
"116 -7 OFFCURVE",
"126 3 OFFCURVE",
"126 23 CURVE SMOOTH",
"126 322 LINE",
"486 322 LINE",
"486 23 LINE SMOOTH",
"486 3 OFFCURVE",
"497 -7 OFFCURVE",
"507 -7 CURVE SMOOTH",
"518 -7 OFFCURVE",
"528 3 OFFCURVE",
"528 23 CURVE SMOOTH",
"528 612 LINE SMOOTH",
"528 633 OFFCURVE",
"518 643 OFFCURVE",
"507 643 CURVE SMOOTH",
"497 643 OFFCURVE",
"486 633 OFFCURVE",
"486 612 CURVE SMOOTH",
"486 364 LINE",
"126 364 LINE",
"126 612 LINE SMOOTH",
"126 632.667 OFFCURVE",
"118.333 643 OFFCURVE",
"103 643 CURVE SMOOTH",
"90.333 643 OFFCURVE",
"84 632.667 OFFCURVE",
"84 612 CURVE SMOOTH",
"84 23 LINE SMOOTH",
"84 3 OFFCURVE",
"95 -7 OFFCURVE",
"105 -7 CURVE SMOOTH"
);
}
);
width = 612;
},
{
layerId = "85CA6BE8-4AFB-4921-9C51-19E8EEB169E9";
paths = (
{
closed = 1;
nodes = (
"120 -7 CURVE SMOOTH",
"96.871 -7 OFFCURVE",
"84 8.016 OFFCURVE",
"84 35 CURVE SMOOTH",
"84 600 LINE SMOOTH",
"84 627.821 OFFCURVE",
"96.452 643 OFFCURVE",
"119.276 643 CURVE SMOOTH",
"142.679 643 OFFCURVE",
"156 627.403 OFFCURVE",
"156 600 CURVE SMOOTH",
"156 379 LINE",
"516 379 LINE",
"516 600 LINE SMOOTH",
"516 627.629 OFFCURVE",
"528.869 643 OFFCURVE",
"552 643 CURVE SMOOTH",
"575.131 643 OFFCURVE",
"588 627.629 OFFCURVE",
"588 600 CURVE SMOOTH",
"588 35 LINE SMOOTH",
"588 8.016 OFFCURVE",
"575.129 -7 OFFCURVE",
"552 -7 CURVE SMOOTH",
"528.871 -7 OFFCURVE",
"516 8.016 OFFCURVE",
"516 35 CURVE SMOOTH",
"516 307 LINE",
"156 307 LINE",
"156 35 LINE SMOOTH",
"156 8.016 OFFCURVE",
"143.129 -7 OFFCURVE"
);
}
);
width = 672;
}
);
unicode = 0048;
},
{
glyphname = I;
lastChange = "2016-06-28 16:50:45 +0000";
layers = (
{
layerId = "E470338E-0F5C-48CE-A795-CCBFA337B20F";
paths = (
{
closed = 1;
nodes = (
"116 -7 OFFCURVE",
"126 2 OFFCURVE",
"126 20 CURVE SMOOTH",
"126 615 LINE SMOOTH",
"126 634 OFFCURVE",
"116 643 OFFCURVE",
"105 643 CURVE SMOOTH",
"95 643 OFFCURVE",
"84 634 OFFCURVE",
"84 615 CURVE SMOOTH",
"84 20 LINE SMOOTH",
"84 2 OFFCURVE",
"95 -7 OFFCURVE",
"105 -7 CURVE SMOOTH"
);
}
);
width = 210;
},
{
layerId = "85CA6BE8-4AFB-4921-9C51-19E8EEB169E9";
paths = (
{
closed = 1;
nodes = (
"156 33 LINE SMOOTH",
"156 8.661 OFFCURVE",
"141.905 -7 OFFCURVE",
"120 -7 CURVE SMOOTH",
"98.095 -7 OFFCURVE",
"84 8.661 OFFCURVE",
"84 33 CURVE SMOOTH",
"84 602 LINE SMOOTH",
"84 626.985 OFFCURVE",
"98.062 643 OFFCURVE",
"120 643 CURVE SMOOTH",
"141.938 643 OFFCURVE",
"156 626.985 OFFCURVE",
"156 602 CURVE SMOOTH"
);
}
);
width = 240;
}
);
unicode = 0049;
},
{
glyphname = J;
lastChange = "2016-06-28 16:50:43 +0000";
layers = (
{
layerId = "E470338E-0F5C-48CE-A795-CCBFA337B20F";
paths = (
{
closed = 1;
nodes = (
"310.333 -8 OFFCURVE",
"351 -2 OFFCURVE",
"391 22 CURVE SMOOTH",
"429.667 45.333 OFFCURVE",
"449 93.667 OFFCURVE",
"449 167 CURVE SMOOTH",
"449 615 LINE SMOOTH",
"449 634 OFFCURVE",
"439 643 OFFCURVE",
"428 643 CURVE SMOOTH",
"418 643 OFFCURVE",
"407 634 OFFCURVE",
"407 615 CURVE SMOOTH",
"407 167 LINE SMOOTH",
"407 44.983 OFFCURVE",
"353.814 34 OFFCURVE",
"241 34 CURVE SMOOTH",
"115.667 34 OFFCURVE",
"75 52.333 OFFCURVE",
"75 167 CURVE SMOOTH",
"75 185.667 OFFCURVE",
"68.333 195 OFFCURVE",
"55 195 CURVE SMOOTH",
"39.667 195 OFFCURVE",
"32 185.667 OFFCURVE",
"32 167 CURVE SMOOTH",
"32 93.667 OFFCURVE",
"51.333 45.333 OFFCURVE",
"90 22 CURVE SMOOTH",
"130 -2 OFFCURVE",
"171.667 -8 OFFCURVE",
"241 -8 CURVE SMOOTH"
);
}
);
width = 530;
},
{
layerId = "85CA6BE8-4AFB-4921-9C51-19E8EEB169E9";
paths = (
{
closed = 1;
nodes = (
"475.748 643 CURVE SMOOTH",
"497.801 643 OFFCURVE",
"510 628.398 OFFCURVE",
"510 602 CURVE SMOOTH",
"510 173 LINE SMOOTH",
"510 40.975 OFFCURVE",
"446.004 -8 OFFCURVE",
"273.489 -8 CURVE SMOOTH",
"97.239 -8 OFFCURVE",
"33 36.552 OFFCURVE",
"33 158.789 CURVE SMOOTH",
"33 205.846 OFFCURVE",
"43.086 225 OFFCURVE",
"67.866 225 CURVE SMOOTH",
"93.736 225 OFFCURVE",
"106 204.485 OFFCURVE",
"106 161.213 CURVE SMOOTH",
"106 59.683 OFFCURVE",
"173.165 64 OFFCURVE",
"261.023 64 CURVE SMOOTH",
"363.589 64 OFFCURVE",
"438 58.117 OFFCURVE",
"438 176 CURVE SMOOTH",
"438 603 LINE SMOOTH",
"438 627.093 OFFCURVE",
"453.012 643 OFFCURVE"
);
}
);
width = 591;
}
);
unicode = 004A;
},
{
glyphname = K;
lastChange = "2016-06-28 16:50:45 +0000";
layers = (
{
layerId = "E470338E-0F5C-48CE-A795-CCBFA337B20F";
paths = (
{
closed = 1;
nodes = (
"116 -7 OFFCURVE",
"126 2 OFFCURVE",
"126 20 CURVE SMOOTH",
"126 255 LINE",
"184 325 LINE",
"452 6 LINE",
"459 -3 OFFCURVE",
"467 -7 OFFCURVE",
"474 -7 CURVE SMOOTH",
"485 -7 OFFCURVE",
"493 2 OFFCURVE",
"493 13 CURVE SMOOTH",
"493 19 OFFCURVE",
"491 26 OFFCURVE",
"484 33 CURVE",
"212 357 LINE",
"418 603 LINE SMOOTH",
"424 610 OFFCURVE",
"426 617 OFFCURVE",
"426 623 CURVE SMOOTH",
"426 635 OFFCURVE",
"418 643 OFFCURVE",
"408 643 CURVE SMOOTH",
"401 643 OFFCURVE",
"393 639 OFFCURVE",
"386 630 CURVE",
"126 321 LINE",
"126 615 LINE SMOOTH",
"126 634 OFFCURVE",
"116 643 OFFCURVE",
"105 643 CURVE SMOOTH",
"95 643 OFFCURVE",
"84 634 OFFCURVE",
"84 615 CURVE SMOOTH",
"84 20 LINE SMOOTH",
"84 2 OFFCURVE",
"95 -7 OFFCURVE",
"105 -7 CURVE SMOOTH"
);
}
);
width = 497;
},
{
layerId = "85CA6BE8-4AFB-4921-9C51-19E8EEB169E9";
paths = (
{
closed = 1;
nodes = (
"552.138 27.818 CURVE SMOOTH",
"552.138 8.979 OFFCURVE",
"537.005 -6.972 OFFCURVE",
"519.133 -6.972 CURVE SMOOTH",
"508.065 -6.972 OFFCURVE",
"497.13 -0.893 OFFCURVE",
"485 12 CURVE SMOOTH",
"199 316 LINE",
"156 264 LINE",
"156 35 LINE SMOOTH",
"156 7.634 OFFCURVE",
"143.364 -7 OFFCURVE",
"119.733 -7 CURVE SMOOTH",
"96.51 -7 OFFCURVE",
"84 7.004 OFFCURVE",
"84 33 CURVE SMOOTH",
"84 602 LINE SMOOTH",
"84 628.413 OFFCURVE",
"96.237 643 OFFCURVE",
"118.396 643 CURVE SMOOTH",
"141.523 643 OFFCURVE",
"156 626.446 OFFCURVE",
"156 600 CURVE SMOOTH",
"156 346 LINE",
"419 624 LINE SMOOTH",
"431.054 636.741 OFFCURVE",
"442.683 643.081 OFFCURVE",
"453.999 643.081 CURVE SMOOTH",
"471.619 643.081 OFFCURVE",
"485.85 627.559 OFFCURVE",
"485.85 608.339 CURVE SMOOTH",
"485.85 598.17 OFFCURVE",
"481.75 587.841 OFFCURVE",
"475 581 CURVE SMOOTH",
"251 354 LINE",
"541 55 LINE SMOOTH",
"547.953 47.831 OFFCURVE",
"552.138 37.619 OFFCURVE"
);
}
);
width = 560;
}
);
unicode = 004B;
},
{
glyphname = L;
lastChange = "2016-06-28 16:50:43 +0000";
layers = (
{
layerId = "E470338E-0F5C-48CE-A795-CCBFA337B20F";
paths = (
{
closed = 1;
nodes = (
"444 0 LINE SMOOTH",
"463 0 OFFCURVE",
"472 11 OFFCURVE",
"472 21 CURVE SMOOTH",
"472 32 OFFCURVE",
"463 42 OFFCURVE",
"444 42 CURVE SMOOTH",
"126 42 LINE",
"126 615 LINE SMOOTH",
"126 634 OFFCURVE",
"116 643 OFFCURVE",
"105 643 CURVE SMOOTH",
"95 643 OFFCURVE",
"84 634 OFFCURVE",
"84 615 CURVE SMOOTH",
"84 31 LINE SMOOTH",
"84 10.333 OFFCURVE",
"90.333 0 OFFCURVE",
"103 0 CURVE SMOOTH"
);
}
);
width = 495;
},
{
layerId = "85CA6BE8-4AFB-4921-9C51-19E8EEB169E9";
paths = (
{
closed = 1;
nodes = (
"118 0 LINE SMOOTH",
"96.034 0 OFFCURVE",
"84 15.22 OFFCURVE",
"84 43 CURVE SMOOTH",
"84 603 LINE SMOOTH",
"84 625.97 OFFCURVE",
"99.508 643.353 OFFCURVE",
"120 643.353 CURVE SMOOTH",
"140.492 643.353 OFFCURVE",
"156 625.97 OFFCURVE",
"156 603 CURVE SMOOTH",
"156 72 LINE",
"489 72 LINE SMOOTH",
"516.793 72 OFFCURVE",
"532 59.269 OFFCURVE",
"532 36 CURVE SMOOTH",
"532 12.731 OFFCURVE",
"516.793 0 OFFCURVE",
"489 0 CURVE SMOOTH"
);
}
);
width = 554;
}
);
unicode = 004C;
},
{
glyphname = M;
lastChange = "2016-06-28 16:50:45 +0000";
layers = (
{
layerId = "E470338E-0F5C-48CE-A795-CCBFA337B20F";
paths = (
{
closed = 1;
nodes = (
"116 -7 OFFCURVE",
"126 3 OFFCURVE",
"126 23 CURVE SMOOTH",
"126 557 LINE",
"304 285 LINE",
"307 281 OFFCURVE",
"312 279 OFFCURVE",
"317 279 CURVE SMOOTH",
"321 279 OFFCURVE",
"326 281 OFFCURVE",
"329 285 CURVE",
"507 557 LINE",
"507 23 LINE SMOOTH",
"507 3 OFFCURVE",
"518 -7 OFFCURVE",
"528 -7 CURVE SMOOTH",
"539 -7 OFFCURVE",
"549 3 OFFCURVE",
"549 23 CURVE SMOOTH",
"549 612 LINE SMOOTH",
"549 632.667 OFFCURVE",
"542.333 643 OFFCURVE",
"529 643 CURVE SMOOTH",
"519.667 643 OFFCURVE",
"511.333 637.333 OFFCURVE",
"504 626 CURVE SMOOTH",
"316 342 LINE",
"129 626 LINE SMOOTH",
"121.667 637.333 OFFCURVE",
"113 643 OFFCURVE",
"103 643 CURVE SMOOTH",
"90.333 643 OFFCURVE",
"84 632.667 OFFCURVE",
"84 612 CURVE SMOOTH",
"84 23 LINE SMOOTH",
"84 3 OFFCURVE",
"95 -7 OFFCURVE",
"105 -7 CURVE SMOOTH"
);
}
);
width = 633;
},
{
layerId = "85CA6BE8-4AFB-4921-9C51-19E8EEB169E9";
paths = (
{
closed = 1;
nodes = (
"346.5 279 CURVE SMOOTH",
"335.5 279 OFFCURVE",
"323.864 284.078 OFFCURVE",
"319 291 CURVE SMOOTH",
"156 523 LINE",
"156 38 LINE SMOOTH",
"156 8.87 OFFCURVE",
"143.176 -7 OFFCURVE",
"119.636 -7 CURVE SMOOTH",
"96.649 -7 OFFCURVE",
"84 7.908 OFFCURVE",
"84 35 CURVE SMOOTH",
"84 600 LINE SMOOTH",
"84 627.516 OFFCURVE",
"95.635 643 OFFCURVE",
"116.309 643 CURVE SMOOTH",
"131.356 643 OFFCURVE",
"145.374 634.877 OFFCURVE",
"156 620 CURVE SMOOTH",
"346 354 LINE",
"537 620 LINE SMOOTH",
"547.806 635.05 OFFCURVE",
"561.388 643 OFFCURVE",
"576.292 643 CURVE SMOOTH",
"597.143 643 OFFCURVE",
"609 627.412 OFFCURVE",
"609 600 CURVE SMOOTH",
"609 35 LINE SMOOTH",
"609 7.908 OFFCURVE",
"596.351 -7 OFFCURVE",
"573.364 -7 CURVE SMOOTH",
"549.824 -7 OFFCURVE",
"537 8.87 OFFCURVE",
"537 38 CURVE SMOOTH",
"537 523 LINE",
"374 291 LINE SMOOTH",
"369.136 284.078 OFFCURVE",
"357.5 279 OFFCURVE"
);
}
);
width = 693;
}
);
unicode = 004D;
},
{
glyphname = N;
lastChange = "2016-06-28 16:50:45 +0000";
layers = (
{
layerId = "E470338E-0F5C-48CE-A795-CCBFA337B20F";
paths = (
{
closed = 1;
nodes = (
"116 -7 OFFCURVE",
"126 3 OFFCURVE",
"126 23 CURVE SMOOTH",
"126 557 LINE",
"492 0 LINE SMOOTH",
"494.667 -4.667 OFFCURVE",
"500 -7 OFFCURVE",
"508 -7 CURVE SMOOTH",
"521.333 -7 OFFCURVE",
"528 3 OFFCURVE",
"528 23 CURVE SMOOTH",
"528 612 LINE SMOOTH",
"528 633 OFFCURVE",
"518 643 OFFCURVE",
"507 643 CURVE SMOOTH",
"497 643 OFFCURVE",
"486 633 OFFCURVE",
"486 612 CURVE SMOOTH",
"486 84 LINE",
"129 626 LINE SMOOTH",
"121.667 637.333 OFFCURVE",
"113 643 OFFCURVE",
"103 643 CURVE SMOOTH",
"90.333 643 OFFCURVE",
"84 632.667 OFFCURVE",
"84 612 CURVE SMOOTH",
"84 23 LINE SMOOTH",
"84 3 OFFCURVE",
"95 -7 OFFCURVE",
"105 -7 CURVE SMOOTH"
);
}
);
width = 612;
},
{
layerId = "85CA6BE8-4AFB-4921-9C51-19E8EEB169E9";
paths = (
{
closed = 1;
nodes = (
"544.15 -7.003 CURVE SMOOTH",
"541.934 -7.003 OFFCURVE",
"530.048 -7.072 OFFCURVE",
"525 0 CURVE SMOOTH",
"156 517 LINE",
"156 32 LINE SMOOTH",
"156 7.171 OFFCURVE",
"143.041 -7 OFFCURVE",
"120.334 -7 CURVE SMOOTH",
"97.082 -7 OFFCURVE",
"84 8.122 OFFCURVE",
"84 35 CURVE SMOOTH",
"84 600 LINE SMOOTH",
"84 627.233 OFFCURVE",
"95.873 643 OFFCURVE",
"116.381 643 CURVE SMOOTH",
"131.261 643 OFFCURVE",
"145.387 634.799 OFFCURVE",
"156 620 CURVE SMOOTH",
"516 118 LINE",
"516 597 LINE SMOOTH",
"516 626.465 OFFCURVE",
"529.053 643 OFFCURVE",
"552.313 643 CURVE SMOOTH",
"575.07 643 OFFCURVE",
"588 627.42 OFFCURVE",
"588 600 CURVE SMOOTH",
"588 35 LINE SMOOTH",
"588 5.893 OFFCURVE",
"574.536 -7.003 OFFCURVE"
);
}
);
width = 672;
}
);
unicode = 004E;
},
{
glyphname = O;
lastChange = "2016-06-28 16:49:57 +0000";
layers = (
{
layerId = "E470338E-0F5C-48CE-A795-CCBFA337B20F";
paths = (
{
closed = 1;
nodes = (
"416.333 -9 OFFCURVE",
"509 80.333 OFFCURVE",
"509 227 CURVE SMOOTH",
"509 409 LINE SMOOTH",
"509 555.667 OFFCURVE",
"416.333 645 OFFCURVE",
"287 645 CURVE SMOOTH",
"157.667 645 OFFCURVE",
"65 555.667 OFFCURVE",
"65 409 CURVE SMOOTH",
"65 227 LINE SMOOTH",
"65 80.333 OFFCURVE",
"157.667 -9 OFFCURVE",
"287 -9 CURVE SMOOTH"
);
},
{
closed = 1;
nodes = (
"175 33 OFFCURVE",
"107 105.667 OFFCURVE",
"107 227 CURVE SMOOTH",
"107 409 LINE SMOOTH",
"107 530.333 OFFCURVE",
"175 603 OFFCURVE",
"287 603 CURVE SMOOTH",
"399 603 OFFCURVE",
"467 530.333 OFFCURVE",
"467 409 CURVE SMOOTH",
"467 227 LINE SMOOTH",
"467 105.667 OFFCURVE",
"399 33 OFFCURVE",
"287 33 CURVE SMOOTH"
);
}
);
width = 574;
},
{
layerId = "85CA6BE8-4AFB-4921-9C51-19E8EEB169E9";
paths = (
{
closed = 1;
nodes = (
"64 230 CURVE SMOOTH",
"64 406 LINE SMOOTH",
"64 549.258 OFFCURVE",
"164.554 645 OFFCURVE",
"315.012 645 CURVE SMOOTH",
"466.038 645 OFFCURVE",
"568 548.676 OFFCURVE",
"568 406 CURVE SMOOTH",
"568 230 LINE SMOOTH",
"568 87.324 OFFCURVE",
"466.038 -9 OFFCURVE",
"315.012 -9 CURVE SMOOTH",
"164.554 -9 OFFCURVE",
"64 86.742 OFFCURVE"
);
},
{
closed = 1;
nodes = (
"136 403 CURVE SMOOTH",
"136 233 LINE SMOOTH",
"136 126.348 OFFCURVE",
"203.074 63 OFFCURVE",
"316 63 CURVE SMOOTH",
"428.926 63 OFFCURVE",
"496 126.348 OFFCURVE",
"496 233 CURVE SMOOTH",
"496 403 LINE SMOOTH",
"496 509.629 OFFCURVE",
"428.902 573 OFFCURVE",
"316 573 CURVE SMOOTH",
"203.098 573 OFFCURVE",
"136 509.629 OFFCURVE"
);
}
);
width = 632;
}
);
unicode = 004F;
},
{
glyphname = P;
lastChange = "2016-06-28 16:50:45 +0000";
layers = (
{
layerId = "E470338E-0F5C-48CE-A795-CCBFA337B20F";
paths = (
{
closed = 1;
nodes = (
"116 -7 OFFCURVE",
"126 2 OFFCURVE",
"126 20 CURVE SMOOTH",
"126 337 LINE",
"321 337 LINE SMOOTH",
"431 337 OFFCURVE",
"486 388.667 OFFCURVE",
"486 492 CURVE SMOOTH",
"486 598.667 OFFCURVE",
"416.333 636 OFFCURVE",
"279 636 CURVE SMOOTH",
"103 636 LINE SMOOTH",
"90.333 636 OFFCURVE",
"84 625.667 OFFCURVE",
"84 605 CURVE SMOOTH",
"84 20 LINE SMOOTH",
"84 2 OFFCURVE",
"95 -7 OFFCURVE",
"105 -7 CURVE SMOOTH"
);
},
{
closed = 1;
nodes = (
"126 594 LINE",
"279 594 LINE SMOOTH",
"399 594 OFFCURVE",
"444 574 OFFCURVE",
"444 486 CURVE SMOOTH",
"444 398 OFFCURVE",
"399 379 OFFCURVE",
"279 379 CURVE SMOOTH",
"126 379 LINE"
);
}
);
width = 520;
},
{
layerId = "85CA6BE8-4AFB-4921-9C51-19E8EEB169E9";
paths = (
{
closed = 1;
nodes = (
"120 -7 CURVE SMOOTH",
"96.713 -7 OFFCURVE",
"84 7.125 OFFCURVE",
"84 33 CURVE SMOOTH",
"84 597 LINE SMOOTH",
"84 625.427 OFFCURVE",
"96.034 641 OFFCURVE",
"118 641 CURVE SMOOTH",
"309 641 LINE SMOOTH",
"471.645 641 OFFCURVE",
"546 591.624 OFFCURVE",
"546 483.617 CURVE SMOOTH",
"546 380.144 OFFCURVE",
"478.005 322 OFFCURVE",
"357 322 CURVE SMOOTH",
"156 322 LINE",
"156 33 LINE SMOOTH",
"156 7.125 OFFCURVE",
"143.287 -7 OFFCURVE"
);
},
{
closed = 1;
nodes = (
"338.598 393.868 LINE",
"434.114 393.868 OFFCURVE",
"474 419.827 OFFCURVE",
"474 481.989 CURVE SMOOTH",
"474 543.482 OFFCURVE",
"435.008 569.178 OFFCURVE",
"341.695 569.178 CURVE",
"156 569 LINE",
"156 394 LINE"
);
}
);
width = 580;
}
);
unicode = 0050;
},
{
glyphname = Q;
lastChange = "2016-06-28 16:50:45 +0000";
layers = (
{
layerId = "E470338E-0F5C-48CE-A795-CCBFA337B20F";
paths = (
{
closed = 1;
nodes = (
"499 -11 OFFCURVE",
"506 -3 OFFCURVE",
"506 7 CURVE SMOOTH",
"506 14 OFFCURVE",
"503 22 OFFCURVE",
"496 29 CURVE SMOOTH",
"458 67 LINE",
"492 107.667 OFFCURVE",
"509 161 OFFCURVE",
"509 227 CURVE SMOOTH",
"509 409 LINE SMOOTH",
"509 555.667 OFFCURVE",
"416.333 645 OFFCURVE",
"287 645 CURVE SMOOTH",
"157.667 645 OFFCURVE",
"65 555.667 OFFCURVE",
"65 409 CURVE SMOOTH",
"65 227 LINE SMOOTH",
"65 80.333 OFFCURVE",
"160.167 -9 OFFCURVE",
"279.5 -9 CURVE SMOOTH",
"339.167 -9 OFFCURVE",
"389 6.333 OFFCURVE",
"429 37 CURVE",
"466 -1 LINE",
"474 -8 OFFCURVE",
"482 -11 OFFCURVE",
"488 -11 CURVE SMOOTH"
);
},
{
closed = 1;
nodes = (
"228.5 33 OFFCURVE",
"187 50.167 OFFCURVE",
"155 84.5 CURVE SMOOTH",
"123 118.833 OFFCURVE",
"107 166.333 OFFCURVE",
"107 227 CURVE SMOOTH",
"107 409 LINE SMOOTH",
"107 530.333 OFFCURVE",
"175 603 OFFCURVE",
"287 603 CURVE SMOOTH",
"399 603 OFFCURVE",
"467 530.333 OFFCURVE",
"467 409 CURVE SMOOTH",
"467 227 LINE SMOOTH",
"467 172.333 OFFCURVE",
"454.333 128.333 OFFCURVE",
"429 95 CURVE",
"371 154 LINE SMOOTH",
"363 162 OFFCURVE",
"356 165 OFFCURVE",
"349 165 CURVE SMOOTH",
"339 165 OFFCURVE",
"331 156 OFFCURVE",
"331 145 CURVE SMOOTH",
"331 139 OFFCURVE",
"334 131 OFFCURVE",
"341 124 CURVE SMOOTH",
"399 67 LINE",
"370.333 44.333 OFFCURVE",
"330.5 33 OFFCURVE",
"279.5 33 CURVE SMOOTH"
);
}
);
width = 574;
},
{
layerId = "85CA6BE8-4AFB-4921-9C51-19E8EEB169E9";
paths = (
{
closed = 1;
nodes = (
"136 403 CURVE SMOOTH",
"136 233 LINE SMOOTH",
"136 122.824 OFFCURVE",
"199.852 63 OFFCURVE",
"317.448 63 CURVE SMOOTH",
"356.242 63 OFFCURVE",
"389.448 69.739 OFFCURVE",
"416 83 CURVE",
"399.352 96.93 OFFCURVE",
"348.947 129.31 OFFCURVE",
"348.947 156.514 CURVE SMOOTH",
"348.947 173.007 OFFCURVE",
"367.085 189.041 OFFCURVE",
"385.743 189.041 CURVE SMOOTH",
"415.781 189.041 OFFCURVE",
"450.171 148.342 OFFCURVE",
"470 130 CURVE",
"487.153 157.718 OFFCURVE",
"496 192.764 OFFCURVE",
"496 233 CURVE SMOOTH",
"496 403 LINE SMOOTH",
"496 512.889 OFFCURVE",
"432.353 573 OFFCURVE",
"316 573 CURVE SMOOTH",
"199.647 573 OFFCURVE",
"136 512.889 OFFCURVE"
);
},
{
closed = 1;
nodes = (
"319.207 -9 CURVE SMOOTH",
"162.003 -9 OFFCURVE",
"64 82.779 OFFCURVE",
"64 230 CURVE SMOOTH",
"64 406 LINE SMOOTH",
"64 552.479 OFFCURVE",
"161.309 645 OFFCURVE",
"315.368 645 CURVE SMOOTH",
"469.758 645 OFFCURVE",
"568 552.059 OFFCURVE",
"568 406 CURVE SMOOTH",
"568 230 LINE SMOOTH",
"568 169.618 OFFCURVE",
"552.535 117.725 OFFCURVE",
"523 79 CURVE",
"538.911 65.474 OFFCURVE",
"564.043 46.165 OFFCURVE",
"564.043 22.888 CURVE SMOOTH",
"564.043 3.992 OFFCURVE",
"547.104 -12.69 OFFCURVE",
"527.916 -12.69 CURVE SMOOTH",
"504.471 -12.69 OFFCURVE",
"484.208 12.792 OFFCURVE",
"470 28 CURVE",
"429.404 3.787 OFFCURVE",
"377.291 -9 OFFCURVE"
);
}
);
width = 632;
}
);
unicode = 0051;
},
{
glyphname = R;
lastChange = "2016-06-28 16:50:45 +0000";
layers = (
{
layerId = "E470338E-0F5C-48CE-A795-CCBFA337B20F";
paths = (
{
closed = 1;
nodes = (
"116 -7 OFFCURVE",
"126 2 OFFCURVE",
"126 20 CURVE SMOOTH",
"126 337 LINE",
"314 337 LINE",
"342 315 OFFCURVE",
"367.333 278 OFFCURVE",
"390 226 CURVE SMOOTH",
"412.667 174 OFFCURVE",
"428.667 129 OFFCURVE",
"438 91 CURVE SMOOTH",
"447.333 53 OFFCURVE",
"452 30 OFFCURVE",
"452 22 CURVE SMOOTH",
"452 6 OFFCURVE",
"461.333 -5.667 OFFCURVE",
"472 -7 CURVE",
"486.667 -7 OFFCURVE",
"494 2 OFFCURVE",
"494 20 CURVE SMOOTH",
"494 36 OFFCURVE",
"471.833 130.833 OFFCURVE",
"428.5 235.5 CURVE SMOOTH",
"406.833 287.833 OFFCURVE",
"385 322.667 OFFCURVE",
"363 340 CURVE",
"441.667 352 OFFCURVE",
"486 402 OFFCURVE",
"486 486 CURVE SMOOTH",
"486 600.667 OFFCURVE",
"416.333 636 OFFCURVE",
"279 636 CURVE SMOOTH",
"103 636 LINE SMOOTH",
"90.333 636 OFFCURVE",
"84 625.667 OFFCURVE",
"84 605 CURVE SMOOTH",
"84 20 LINE SMOOTH",
"84 2 OFFCURVE",
"95 -7 OFFCURVE",
"105 -7 CURVE SMOOTH"
);
},
{
closed = 1;
nodes = (
"126 594 LINE",
"279 594 LINE SMOOTH",
"399 594 OFFCURVE",
"444 574 OFFCURVE",
"444 486 CURVE SMOOTH",
"444 398 OFFCURVE",
"397.667 380.333 OFFCURVE",
"279 379 CURVE",
"126 379 LINE"
);
}
);
width = 549;
},
{
layerId = "85CA6BE8-4AFB-4921-9C51-19E8EEB169E9";
paths = (
{
closed = 1;
nodes = (
"438 336 CURVE",
"483.192 279.474 OFFCURVE",
"554.016 98.066 OFFCURVE",
"554.016 38.839 CURVE SMOOTH",
"554.016 11.828 OFFCURVE",
"538.678 -7.512 OFFCURVE",
"517.257 -7.512 CURVE SMOOTH",
"508.651 -7.512 OFFCURVE",
"499.434 -3.739 OFFCURVE",
"494.836 1.666 CURVE SMOOTH",
"482.922 15.671 OFFCURVE",
"472.002 81.894 OFFCURVE",
"464.832 110.731 CURVE SMOOTH",
"444.81 191.258 OFFCURVE",
"387.493 289.842 OFFCURVE",
"342 322 CURVE",
"156 322 LINE",
"156 33 LINE SMOOTH",
"156 7.128 OFFCURVE",
"143.285 -7 OFFCURVE",
"120 -7 CURVE SMOOTH",
"96.715 -7 OFFCURVE",
"84 7.128 OFFCURVE",
"84 33 CURVE SMOOTH",
"84 602 LINE SMOOTH",
"84 630.424 OFFCURVE",
"96.036 646 OFFCURVE",
"118 646 CURVE SMOOTH",
"306 646 LINE SMOOTH",
"474.437 646 OFFCURVE",
"546 598.672 OFFCURVE",
"546 487.277 CURVE SMOOTH",
"546 407.742 OFFCURVE",
"509.232 356.241 OFFCURVE"
);
},
{
closed = 1;
nodes = (
"156 569 LINE",
"156 394 LINE",
"338.298 393.832 LINE",
"433.71 393.832 OFFCURVE",
"474 419.786 OFFCURVE",
"474 481.247 CURVE SMOOTH",
"474 542.844 OFFCURVE",
"433.249 569.166 OFFCURVE",
"337.889 569.166 CURVE"
);
}
);
width = 609;
}
);
unicode = 0052;
},
{
glyphname = S;
lastChange = "2016-06-28 16:50:43 +0000";
layers = (
{
layerId = "E470338E-0F5C-48CE-A795-CCBFA337B20F";
paths = (
{
closed = 1;
nodes = (
"347 -8 LINE SMOOTH",
"461.667 -8 OFFCURVE",
"508 66 OFFCURVE",
"508 154 CURVE SMOOTH",
"508 246.667 OFFCURVE",
"467 303.333 OFFCURVE",
"385 324 CURVE",
"168 376 LINE SMOOTH",
"132 385.333 OFFCURVE",
"104 427.833 OFFCURVE",
"104 484.5 CURVE SMOOTH",
"104 541.167 OFFCURVE",
"135.333 602 OFFCURVE",
"206 602 CURVE SMOOTH",
"300 602 LINE SMOOTH",
"412.528 602 OFFCURVE",
"465 593.277 OFFCURVE",
"465 471 CURVE SMOOTH",
"465 452 OFFCURVE",
"476 443 OFFCURVE",
"487 443 CURVE SMOOTH",
"497 443 OFFCURVE",
"508 452 OFFCURVE",
"508 471 CURVE SMOOTH",
"508 543.667 OFFCURVE",
"488.667 591.333 OFFCURVE",
"450 614 CURVE SMOOTH",
"410 638 OFFCURVE",
"369.333 644 OFFCURVE",
"300 644 CURVE SMOOTH",
"224 644 LINE SMOOTH",
"109.333 644 OFFCURVE",
"62 572.167 OFFCURVE",
"62 483.5 CURVE SMOOTH",
"62 394.833 OFFCURVE",
"95.333 350.333 OFFCURVE",
"186 329 CURVE",
"402 276 LINE",
"437 276 OFFCURVE",
"465 216 OFFCURVE",
"465 155 CURVE SMOOTH",
"465 95 OFFCURVE",
"438 35 OFFCURVE",
"364 34 CURVE",
"271 34 LINE SMOOTH",
"145.667 34 OFFCURVE",
"105 52.333 OFFCURVE",
"105 167 CURVE SMOOTH",
"105 185.667 OFFCURVE",
"98.333 195 OFFCURVE",
"85 195 CURVE SMOOTH",
"69.667 195 OFFCURVE",
"62 185.667 OFFCURVE",
"62 167 CURVE SMOOTH",
"62 93.667 OFFCURVE",
"81.333 45.333 OFFCURVE",
"120 22 CURVE SMOOTH",
"160 -2 OFFCURVE",
"201.667 -8 OFFCURVE",
"271 -8 CURVE SMOOTH"
);
}
);
width = 570;
},
{
layerId = "85CA6BE8-4AFB-4921-9C51-19E8EEB169E9";
paths = (
{
closed = 1;
nodes = (
"597 162.14 CURVE SMOOTH",
"597 55.62 OFFCURVE",
"526.328 -8 OFFCURVE",
"408 -8 CURVE SMOOTH",
"312 -8 LINE SMOOTH",
"129.167 -8 OFFCURVE",
"61 37.228 OFFCURVE",
"61 158.537 CURVE SMOOTH",
"61 204.962 OFFCURVE",
"71.565 225 OFFCURVE",
"96.041 225 CURVE SMOOTH",
"121.327 225 OFFCURVE",
"134 203.874 OFFCURVE",
"134 161.721 CURVE SMOOTH",
"134 87.091 OFFCURVE",
"169.04 63.934 OFFCURVE",
"281.965 63.934 CURVE",
"430 64 LINE",
"488.397 64 OFFCURVE",
"524.051 102.075 OFFCURVE",
"524.051 164.437 CURVE SMOOTH",
"524.051 217.389 OFFCURVE",
"502.697 259.452 OFFCURVE",
"473 265 CURVE SMOOTH",
"200 316 LINE SMOOTH",
"105.097 333.729 OFFCURVE",
"61 383.074 OFFCURVE",
"61 471.123 CURVE SMOOTH",
"61 582.193 OFFCURVE",
"135.006 644 OFFCURVE",
"268 644 CURVE SMOOTH",
"344 644 LINE SMOOTH",
"527.796 644 OFFCURVE",
"597 599.768 OFFCURVE",
"597 482.291 CURVE SMOOTH",
"597 434.647 OFFCURVE",
"584.827 413.135 OFFCURVE",
"557.864 413.135 CURVE SMOOTH",
"500.137 413.135 OFFCURVE",
"544.78 512.086 OFFCURVE",
"496.586 547.641 CURVE SMOOTH",
"463.312 572.19 OFFCURVE",
"378.354 572 OFFCURVE",
"344 572 CURVE SMOOTH",
"238 572 LINE SMOOTH",
"176.806 572 OFFCURVE",
"133.084 531.988 OFFCURVE",
"133.084 475.988 CURVE SMOOTH",
"133.084 430.068 OFFCURVE",
"155.833 390.197 OFFCURVE",
"185 385 CURVE SMOOTH",
"460 336 LINE SMOOTH",
"545.884 320.697 OFFCURVE",
"597 255.653 OFFCURVE"
);
}
);
width = 658;
}
);
unicode = 0053;
},
{
glyphname = T;
lastChange = "2016-06-28 16:50:45 +0000";
layers = (
{
layerId = "E470338E-0F5C-48CE-A795-CCBFA337B20F";
paths = (
{
closed = 1;
nodes = (
"241 -7 OFFCURVE",
"251 2 OFFCURVE",
"251 20 CURVE SMOOTH",
"251 594 LINE",
"405 594 LINE SMOOTH",
"424 594 OFFCURVE",
"433 605 OFFCURVE",
"433 615 CURVE SMOOTH",
"433 626 OFFCURVE",
"424 636 OFFCURVE",
"405 636 CURVE SMOOTH",
"54 636 LINE SMOOTH",
"35 636 OFFCURVE",
"26 626 OFFCURVE",
"26 615 CURVE SMOOTH",
"26 605 OFFCURVE",
"35 594 OFFCURVE",
"54 594 CURVE SMOOTH",
"209 594 LINE",
"209 20 LINE SMOOTH",
"209 2 OFFCURVE",
"220 -7 OFFCURVE",
"230 -7 CURVE SMOOTH"
);
}
);
width = 460;
},
{
layerId = "85CA6BE8-4AFB-4921-9C51-19E8EEB169E9";
paths = (
{
closed = 1;
nodes = (
"450 636 LINE SMOOTH",
"477.471 636 OFFCURVE",
"493 623 OFFCURVE",
"493 600 CURVE SMOOTH",
"493 577 OFFCURVE",
"477.471 564 OFFCURVE",
"450 564 CURVE SMOOTH",
"302 564 LINE",
"302 33 LINE SMOOTH",
"302 10.426 OFFCURVE",
"283.381 -7.532 OFFCURVE",
"259.974 -7.532 CURVE SMOOTH",
"236.899 -7.532 OFFCURVE",
"219 10.174 OFFCURVE",
"219 33 CURVE SMOOTH",
"219 564 LINE",
"69 564 LINE SMOOTH",
"44.431 564 OFFCURVE",
"25.471 579.681 OFFCURVE",
"25.471 600 CURVE SMOOTH",
"25.471 620.319 OFFCURVE",
"44.431 636 OFFCURVE",
"69 636 CURVE SMOOTH"
);
}
);
width = 520;
}
);
unicode = 0054;
},
{
glyphname = U;
lastChange = "2016-06-28 16:50:43 +0000";
layers = (
{
layerId = "E470338E-0F5C-48CE-A795-CCBFA337B20F";
paths = (
{
closed = 1;
nodes = (
"428.333 -9 OFFCURVE",
"521 80.333 OFFCURVE",
"521 227 CURVE SMOOTH",
"521 615 LINE SMOOTH",
"521 634 OFFCURVE",
"511 643 OFFCURVE",
"500 643 CURVE SMOOTH",
"490 643 OFFCURVE",
"479 634 OFFCURVE",
"479 615 CURVE SMOOTH",
"479 227 LINE SMOOTH",
"479 105.667 OFFCURVE",
"411 33 OFFCURVE",
"299 33 CURVE SMOOTH",
"187 33 OFFCURVE",
"119 105.667 OFFCURVE",
"119 227 CURVE SMOOTH",
"119 615 LINE SMOOTH",
"119 634 OFFCURVE",
"109 643 OFFCURVE",
"98 643 CURVE SMOOTH",
"88 643 OFFCURVE",
"77 634 OFFCURVE",
"77 615 CURVE SMOOTH",
"77 227 LINE SMOOTH",
"77 80.333 OFFCURVE",
"169.667 -9 OFFCURVE",
"299 -9 CURVE SMOOTH"
);
}
);
width = 598;
},
{
layerId = "85CA6BE8-4AFB-4921-9C51-19E8EEB169E9";
paths = (
{
closed = 1;
nodes = (
"544.833 643 CURVE SMOOTH",
"567.266 643 OFFCURVE",
"581 627.431 OFFCURVE",
"581 602 CURVE SMOOTH",
"581 230 LINE SMOOTH",
"581 86.766 OFFCURVE",
"479.424 -9 OFFCURVE",
"327.5 -9 CURVE SMOOTH",
"176.491 -9 OFFCURVE",
"77 85.923 OFFCURVE",
"77 230 CURVE SMOOTH",
"77 602 LINE SMOOTH",
"77 627.062 OFFCURVE",
"90.297 643 OFFCURVE",
"111.208 643 CURVE SMOOTH",
"132.692 643 OFFCURVE",
"149 625.739 OFFCURVE",
"149 603 CURVE SMOOTH",
"149 233 LINE SMOOTH",
"149 125.891 OFFCURVE",
"215.59 63 OFFCURVE",
"329 63 CURVE SMOOTH",
"442.41 63 OFFCURVE",
"509 125.891 OFFCURVE",
"509 233 CURVE SMOOTH",
"509 603 LINE SMOOTH",
"509 627.827 OFFCURVE",
"522.592 643 OFFCURVE"
);
}
);
width = 658;
}
);
unicode = 0055;
},
{
glyphname = V;
lastChange = "2016-06-28 16:50:43 +0000";
layers = (
{
layerId = "E470338E-0F5C-48CE-A795-CCBFA337B20F";
paths = (
{
closed = 1;
nodes = (
"297 0 LINE",
"522 617 LINE SMOOTH",
"523 621 OFFCURVE",
"524 626 OFFCURVE",
"524 631 CURVE SMOOTH",
"524 642 OFFCURVE",
"519 652 OFFCURVE",
"504 652 CURVE SMOOTH",
"494.667 652 OFFCURVE",
"487.333 645.333 OFFCURVE",
"482 632 CURVE SMOOTH",
"274 60 LINE",
"66 632 LINE",
"60 645.333 OFFCURVE",
"53.333 652 OFFCURVE",
"46 652 CURVE SMOOTH",
"32.667 652 OFFCURVE",
"25 645.333 OFFCURVE",
"23 632 CURVE",
"23 628 OFFCURVE",
"24 623 OFFCURVE",
"26 617 CURVE SMOOTH",
"251 0 LINE"
);
}
);
width = 548;
},
{
layerId = "85CA6BE8-4AFB-4921-9C51-19E8EEB169E9";
paths = (
{
closed = 1;
nodes = (
"550.598 652 CURVE SMOOTH",
"567.767 652 OFFCURVE",
"585.459 639.009 OFFCURVE",
"585.459 626.401 CURVE SMOOTH",
"585.459 588.713 OFFCURVE",
"370.034 60.745 OFFCURVE",
"346 0 CURVE",
"264 0 LINE",
"239.966 60.745 OFFCURVE",
"24.542 588.713 OFFCURVE",
"24.542 626.401 CURVE SMOOTH",
"24.542 639.098 OFFCURVE",
"42.441 652 OFFCURVE",
"60.056 652 CURVE SMOOTH",
"76.994 652 OFFCURVE",
"89.58 642.461 OFFCURVE",
"97 624 CURVE SMOOTH",
"306 104 LINE",
"513 624 LINE SMOOTH",
"520.098 641.832 OFFCURVE",
"533.752 652 OFFCURVE"
);
}
);
width = 610;
}
);
unicode = 0056;
},
{
glyphname = W;
lastChange = "2016-06-28 16:50:43 +0000";
layers = (
{
layerId = "E470338E-0F5C-48CE-A795-CCBFA337B20F";
paths = (
{
closed = 1;
nodes = (
"269 0 LINE",
"444 565 LINE",
"620 0 LINE",
"670 0 LINE",
"862 617 LINE",
"865 619 OFFCURVE",
"866 623 OFFCURVE",
"866 627 CURVE SMOOTH",
"866 638 OFFCURVE",
"858 652 OFFCURVE",
"846 652 CURVE SMOOTH",
"839 652 OFFCURVE",
"830 646 OFFCURVE",
"822 632 CURVE",
"646 60 LINE",
"469 630 LINE SMOOTH",
"464 645 OFFCURVE",
"455 652 OFFCURVE",
"445 652 CURVE SMOOTH",
"435 652 OFFCURVE",
"426 645 OFFCURVE",
"421 630 CURVE SMOOTH",
"245 60 LINE",
"67 632 LINE SMOOTH",
"63 645.333 OFFCURVE",
"56.667 652 OFFCURVE",
"48 652 CURVE SMOOTH",
"37.333 652 OFFCURVE",
"24 642 OFFCURVE",
"24 634 CURVE SMOOTH",
"24 628.667 OFFCURVE",
"30.667 621 OFFCURVE",
"32 617 CURVE SMOOTH",
"220 0 LINE"
);
}
);
width = 892;
},
{
layerId = "85CA6BE8-4AFB-4921-9C51-19E8EEB169E9";
paths = (
{
closed = 1;
nodes = (
"694 96 LINE",
"856 621 LINE SMOOTH",
"861.546 638.974 OFFCURVE",
"875.805 649 OFFCURVE",
"895.82 649 CURVE SMOOTH",
"916.057 649 OFFCURVE",
"928 638.654 OFFCURVE",
"928 621.124 CURVE SMOOTH",
"928 555.919 OFFCURVE",
"762.594 99.657 OFFCURVE",
"730 0 CURVE",
"656 0 LINE",
"477 531 LINE",
"299 0 LINE",
"226 0 LINE",
"195.132 94.88 OFFCURVE",
"27 570.067 OFFCURVE",
"27 627.998 CURVE SMOOTH",
"27 643.351 OFFCURVE",
"38.906 653 OFFCURVE",
"57.85 653 CURVE SMOOTH",
"77.932 653 OFFCURVE",
"93.631 642.318 OFFCURVE",
"99 625 CURVE SMOOTH",
"263 96 LINE",
"436 620 LINE SMOOTH",
"442.138 638.592 OFFCURVE",
"459.647 652 OFFCURVE",
"477.785 652 CURVE SMOOTH",
"496.027 652 OFFCURVE",
"513.588 638.273 OFFCURVE",
"520 619 CURVE SMOOTH"
);
}
);
width = 955;
}
);
unicode = 0057;
},
{
glyphname = X;
lastChange = "2016-06-28 16:50:45 +0000";
layers = (
{
layerId = "E470338E-0F5C-48CE-A795-CCBFA337B20F";
paths = (
{
closed = 1;
nodes = (
"61 -8 OFFCURVE",
"69 -4 OFFCURVE",
"77 7 CURVE",
"268 281 LINE",
"460 7 LINE",
"468 -4 OFFCURVE",
"476 -8 OFFCURVE",
"483 -8 CURVE SMOOTH",
"493 -8 OFFCURVE",
"500 2 OFFCURVE",
"500 14 CURVE SMOOTH",
"500 20 OFFCURVE",
"499 26 OFFCURVE",
"495 32 CURVE",
"294 317 LINE",
"495 604 LINE",
"499 609 OFFCURVE",
"501 615 OFFCURVE",
"501 621 CURVE SMOOTH",
"501 632 OFFCURVE",
"494 643 OFFCURVE",
"483 643 CURVE SMOOTH",
"476 643 OFFCURVE",
"468 639 OFFCURVE",
"460 627 CURVE SMOOTH",
"268 354 LINE",
"77 627 LINE SMOOTH",
"69 639 OFFCURVE",
"61 643 OFFCURVE",
"54 643 CURVE SMOOTH",
"43 643 OFFCURVE",
"36 633 OFFCURVE",
"36 621 CURVE SMOOTH",
"36 615 OFFCURVE",
"38 609 OFFCURVE",
"42 604 CURVE",
"243 317 LINE",
"42 32 LINE",
"38 26 OFFCURVE",
"36 20 OFFCURVE",
"36 14 CURVE SMOOTH",
"36 2 OFFCURVE",
"44 -8 OFFCURVE",
"54 -8 CURVE SMOOTH"
);
}
);
width = 537;
},
{
layerId = "85CA6BE8-4AFB-4921-9C51-19E8EEB169E9";
paths = (
{
closed = 1;
nodes = (
"532.319 643.707 CURVE SMOOTH",
"549.815 643.707 OFFCURVE",
"564.78 626.762 OFFCURVE",
"564.78 606.952 CURVE SMOOTH",
"564.78 598.238 OFFCURVE",
"561.625 589.271 OFFCURVE",
"556 582 CURVE SMOOTH",
"351 317 LINE",
"556 53 LINE SMOOTH",
"562.014 45.255 OFFCURVE",
"565.239 36.583 OFFCURVE",
"565.239 28.152 CURVE SMOOTH",
"565.239 8.951 OFFCURVE",
"549.755 -7.686 OFFCURVE",
"531.885 -7.686 CURVE SMOOTH",
"519.769 -7.686 OFFCURVE",
"506.91 -0.061 OFFCURVE",
"497 13 CURVE SMOOTH",
"302 270 LINE",
"108 13 LINE SMOOTH",
"98.629 0.586 OFFCURVE",
"85.359 -6.998 OFFCURVE",
"73.01 -6.998 CURVE SMOOTH",
"54.685 -6.998 OFFCURVE",
"38.479 9.447 OFFCURVE",
"38.479 28.044 CURVE SMOOTH",
"38.479 36.124 OFFCURVE",
"41.548 43.404 OFFCURVE",
"49 53 CURVE SMOOTH",
"254 317 LINE",
"49 582 LINE SMOOTH",
"42.688 590.159 OFFCURVE",
"39 600.393 OFFCURVE",
"39 609.748 CURVE SMOOTH",
"39 628.512 OFFCURVE",
"55.25 644 OFFCURVE",
"74.937 644 CURVE SMOOTH",
"91.429 644 OFFCURVE",
"99.619 632.06 OFFCURVE",
"108 621 CURVE SMOOTH",
"302 365 LINE",
"497 621 LINE SMOOTH",
"508.459 636.044 OFFCURVE",
"520.379 643.707 OFFCURVE"
);
}
);
width = 605;
}
);
unicode = 0058;
},
{
glyphname = Y;
lastChange = "2016-06-28 16:50:45 +0000";
layers = (
{
layerId = "E470338E-0F5C-48CE-A795-CCBFA337B20F";
paths = (
{
closed = 1;
nodes = (
"260 -7 OFFCURVE",
"270 2 OFFCURVE",
"270 20 CURVE SMOOTH",
"270 310 LINE",
"475 604 LINE SMOOTH",
"480 610 OFFCURVE",
"482 617 OFFCURVE",
"482 622 CURVE SMOOTH",
"482 633 OFFCURVE",
"474 642 OFFCURVE",
"461 643 CURVE",
"455.667 643 OFFCURVE",
"448.667 637.667 OFFCURVE",
"440 627 CURVE",
"249 354 LINE",
"57 627 LINE SMOOTH",
"49 639 OFFCURVE",
"43 643 OFFCURVE",
"37 643 CURVE SMOOTH",
"32 643 OFFCURVE",
"27 640 OFFCURVE",
"22 636 CURVE",
"18 632 OFFCURVE",
"16 628 OFFCURVE",
"16 622 CURVE SMOOTH",
"16 617 OFFCURVE",
"18 611 OFFCURVE",
"23 604 CURVE SMOOTH",
"229 310 LINE",
"229 20 LINE",
"230 2 OFFCURVE",
"240 -7 OFFCURVE",
"250 -7 CURVE SMOOTH"
);
}
);
width = 499;
},
{
layerId = "85CA6BE8-4AFB-4921-9C51-19E8EEB169E9";
paths = (
{
closed = 1;
nodes = (
"243 306 LINE",
"28 583 LINE SMOOTH",
"21.152 591.822 OFFCURVE",
"17.673 600.493 OFFCURVE",
"17.673 608.738 CURVE SMOOTH",
"17.673 626.714 OFFCURVE",
"32.952 642.553 OFFCURVE",
"50.292 642.553 CURVE SMOOTH",
"62.516 642.553 OFFCURVE",
"75.597 634.658 OFFCURVE",
"86 621 CURVE SMOOTH",
"281 365 LINE",
"475 621 LINE SMOOTH",
"485.228 634.497 OFFCURVE",
"498.801 642.553 OFFCURVE",
"511.313 642.553 CURVE SMOOTH",
"528.817 642.553 OFFCURVE",
"544.092 626.741 OFFCURVE",
"544.092 608.622 CURVE SMOOTH",
"544.092 600.356 OFFCURVE",
"540.643 591.598 OFFCURVE",
"534 583 CURVE SMOOTH",
"320 306 LINE",
"320 32 LINE SMOOTH",
"320 7.878 OFFCURVE",
"305.56 -7 OFFCURVE",
"282.148 -7 CURVE SMOOTH",
"258.34 -7 OFFCURVE",
"243 8.281 OFFCURVE",
"243 32 CURVE SMOOTH"
);
}
);
width = 563;
}
);
unicode = 0059;
},
{
glyphname = Z;
lastChange = "2016-06-28 16:50:43 +0000";
layers = (
{
layerId = "E470338E-0F5C-48CE-A795-CCBFA337B20F";
paths = (
{
closed = 1;
nodes = (
"459 0 LINE SMOOTH",
"479 0 OFFCURVE",
"489 11 OFFCURVE",
"489 21 CURVE SMOOTH",
"489 32 OFFCURVE",
"479 42 OFFCURVE",
"459 42 CURVE SMOOTH",
"95 42 LINE",
"489 590 LINE",
"489 636 LINE",
"76 636 LINE SMOOTH",
"55 636 OFFCURVE",
"45 626 OFFCURVE",
"45 615 CURVE SMOOTH",
"45 605 OFFCURVE",
"55 594 OFFCURVE",
"76 594 CURVE SMOOTH",
"442 594 LINE",
"46 44 LINE",
"46 0 LINE"
);
}
);
width = 535;
},
{
layerId = "85CA6BE8-4AFB-4921-9C51-19E8EEB169E9";
paths = (
{
closed = 1;
nodes = (
"50 0 LINE",
"50 64 LINE",
"461 564 LINE",
"95 564 LINE SMOOTH",
"65.436 564 OFFCURVE",
"49 576.863 OFFCURVE",
"49 600 CURVE SMOOTH",
"49 623.137 OFFCURVE",
"65.436 636 OFFCURVE",
"95 636 CURVE SMOOTH",
"553 636 LINE",
"553 569 LINE",
"144 72 LINE",
"508 72 LINE SMOOTH",
"536.919 72 OFFCURVE",
"553 59.135 OFFCURVE",
"553 36 CURVE SMOOTH",
"553 12.865 OFFCURVE",
"536.919 0 OFFCURVE",
"508 0 CURVE SMOOTH"
);
}
);
width = 602;
}
);
unicode = 005A;
},
{
glyphname = bracketleft;
lastChange = "2016-06-28 16:49:57 +0000";
layers = (
{
layerId = "E470338E-0F5C-48CE-A795-CCBFA337B20F";
paths = (
{
closed = 1;
nodes = (
"200 -42 LINE",
"200 0 LINE",
"122 0 LINE",
"122 636 LINE",
"200 636 LINE",
"200 678 LINE",
"80 678 LINE",
"80 -42 LINE"
);
}
);
width = 244;
},
{
layerId = "85CA6BE8-4AFB-4921-9C51-19E8EEB169E9";
paths = (
{
closed = 1;
nodes = (
"153 15 LINE",
"231 15 LINE",
"231 -57 LINE",
"81 -57 LINE",
"81 693 LINE",
"231 693 LINE",
"231 621 LINE",
"153 621 LINE"
);
}
);
width = 279;
}
);
unicode = 005B;
},
{
glyphname = backslash;
lastChange = "2016-06-28 16:49:57 +0000";
layers = (
{
layerId = "E470338E-0F5C-48CE-A795-CCBFA337B20F";
paths = (
{
closed = 1;
nodes = (
"298.667 -8 OFFCURVE",
"306 -1.667 OFFCURVE",
"306 11 CURVE SMOOTH",
"306 15 OFFCURVE",
"305 20.333 OFFCURVE",
"303 27 CURVE SMOOTH",
"85 625 LINE",
"81 638.333 OFFCURVE",
"74 645 OFFCURVE",
"64 645 CURVE SMOOTH",
"50 645 OFFCURVE",
"43 638.667 OFFCURVE",
"43 626 CURVE SMOOTH",
"43 621.333 OFFCURVE",
"44 616 OFFCURVE",
"46 610 CURVE SMOOTH",
"264 12 LINE",
"268 -1.333 OFFCURVE",
"274.667 -8 OFFCURVE",
"284 -8 CURVE SMOOTH"
);
}
);
width = 349;
},
{
layerId = "85CA6BE8-4AFB-4921-9C51-19E8EEB169E9";
paths = (
{
closed = 1;
nodes = (
"42.02 624.503 CURVE SMOOTH",
"42.02 646.048 OFFCURVE",
"54.854 660 OFFCURVE",
"74.673 660 CURVE SMOOTH",
"91.638 660 OFFCURVE",
"106.568 648.703 OFFCURVE",
"113 631 CURVE SMOOTH",
"323 53 LINE SMOOTH",
"329.884 34.052 OFFCURVE",
"332.662 21.985 OFFCURVE",
"332.662 11.03 CURVE SMOOTH",
"332.662 -10.649 OFFCURVE",
"321.197 -23 OFFCURVE",
"301.072 -23 CURVE SMOOTH",
"282.967 -23 OFFCURVE",
"268.677 -12.394 OFFCURVE",
"262 6 CURVE SMOOTH",
"50 590 LINE SMOOTH",
"44.132 606.165 OFFCURVE",
"42.02 615.295 OFFCURVE"
);
}
);
width = 375;
}
);
unicode = 005C;
},
{
glyphname = bracketright;
lastChange = "2016-06-28 16:49:57 +0000";
layers = (
{
layerId = "E470338E-0F5C-48CE-A795-CCBFA337B20F";
paths = (
{
closed = 1;
nodes = (
"164 -42 LINE",
"164 678 LINE",
"44 678 LINE",
"44 636 LINE",
"122 636 LINE",
"122 0 LINE",
"44 0 LINE",
"44 -42 LINE"
);
}
);
width = 244;
},
{
layerId = "85CA6BE8-4AFB-4921-9C51-19E8EEB169E9";
paths = (
{
closed = 1;
nodes = (
"126 15 LINE",
"126 621 LINE",
"48 621 LINE",
"48 693 LINE",
"198 693 LINE",
"198 -57 LINE",
"48 -57 LINE",
"48 15 LINE"
);
}
);
width = 279;
}
);
unicode = 005D;
},
{
glyphname = asciicircum;
lastChange = "2016-06-28 16:49:57 +0000";
layers = (
{
layerId = "E470338E-0F5C-48CE-A795-CCBFA337B20F";
paths = (
{
closed = 1;
nodes = (
"113 365 OFFCURVE",
"121 371 OFFCURVE",
"127 383 CURVE SMOOTH",
"220 590 LINE",
"223 590 LINE",
"316 383 LINE SMOOTH",
"322 371 OFFCURVE",
"330 365 OFFCURVE",
"340 365 CURVE SMOOTH",
"352 365 OFFCURVE",
"358 371 OFFCURVE",
"358 383 CURVE SMOOTH",
"358 387 OFFCURVE",
"357.333 390.333 OFFCURVE",
"356 393 CURVE SMOOTH",
"249 636 LINE",
"195 636 LINE",
"87 393 LINE",
"85.667 387.667 OFFCURVE",
"85 384.333 OFFCURVE",
"85 383 CURVE",
"85 371 OFFCURVE",
"91 365 OFFCURVE",
"103 365 CURVE SMOOTH"
);
}
);
width = 443;
},
{
layerId = "85CA6BE8-4AFB-4921-9C51-19E8EEB169E9";
paths = (
{
closed = 1;
nodes = (
"103.664 350 CURVE SMOOTH",
"86.284 350 OFFCURVE",
"70.438 363.089 OFFCURVE",
"70.438 377.444 CURVE SMOOTH",
"70.438 408.338 OFFCURVE",
"170.98 617.799 OFFCURVE",
"186 651 CURVE",
"258 651 LINE",
"274.972 613.151 OFFCURVE",
"373.147 410.375 OFFCURVE",
"373.147 376.365 CURVE SMOOTH",
"373.147 362.28 OFFCURVE",
"358.377 349.709 OFFCURVE",
"341.826 349.709 CURVE SMOOTH",
"325.271 349.709 OFFCURVE",
"307.874 361.339 OFFCURVE",
"301 377 CURVE SMOOTH",
"222 557 LINE",
"141 377 LINE SMOOTH",
"133.059 359.354 OFFCURVE",
"120.125 350 OFFCURVE"
);
}
);
width = 443;
}
);
unicode = 005E;
},
{
glyphname = underscore;
lastChange = "2016-06-28 16:50:43 +0000";
layers = (
{
layerId = "E470338E-0F5C-48CE-A795-CCBFA337B20F";
paths = (
{
closed = 1;
nodes = (
"447 -42 LINE SMOOTH",
"466 -42 OFFCURVE",
"475 -32 OFFCURVE",
"475 -21 CURVE SMOOTH",
"475 -11 OFFCURVE",
"466 0 OFFCURVE",
"447 0 CURVE SMOOTH",
"28 0 LINE SMOOTH",
"9 0 OFFCURVE",
"0 -11 OFFCURVE",
"0 -21 CURVE SMOOTH",
"0 -32 OFFCURVE",
"9 -42 OFFCURVE",
"28 -42 CURVE SMOOTH"
);
}
);
width = 475;
},
{
layerId = "85CA6BE8-4AFB-4921-9C51-19E8EEB169E9";
paths = (
{
closed = 1;
nodes = (
"447 15 LINE SMOOTH",
"475.338 15 OFFCURVE",
"490 2.725 OFFCURVE",
"490 -21 CURVE SMOOTH",
"490 -44.725 OFFCURVE",
"475.338 -57 OFFCURVE",
"447 -57 CURVE SMOOTH",
"28 -57 LINE SMOOTH",
"-0.338 -57 OFFCURVE",
"-15 -44.725 OFFCURVE",
"-15 -21 CURVE SMOOTH",
"-15 2.725 OFFCURVE",
"-0.338 15 OFFCURVE",
"28 15 CURVE SMOOTH"
);
}
);
width = 475;
}
);
unicode = 005F;
},
{
glyphname = grave;
lastChange = "2016-06-28 16:50:45 +0000";
layers = (
{
layerId = "E470338E-0F5C-48CE-A795-CCBFA337B20F";
paths = (
{
closed = 1;
nodes = (
"172 511 OFFCURVE",
"179 520 OFFCURVE",
"179 531 CURVE SMOOTH",
"179 537 OFFCURVE",
"176 544 OFFCURVE",
"171 550 CURVE",
"75 665 LINE",
"67 674 OFFCURVE",
"59 677 OFFCURVE",
"52 677 CURVE SMOOTH",
"41 677 OFFCURVE",
"34 668 OFFCURVE",
"34 657 CURVE SMOOTH",
"34 651 OFFCURVE",
"37 644 OFFCURVE",
"42 638 CURVE",
"138 523 LINE",
"146 514 OFFCURVE",
"154 511 OFFCURVE",
"161 511 CURVE SMOOTH"
);
}
);
width = 212;
},
{
layerId = "85CA6BE8-4AFB-4921-9C51-19E8EEB169E9";
paths = (
{
closed = 1;
nodes = (
"192.271 532.46 CURVE SMOOTH",
"192.271 511.952 OFFCURVE",
"177.851 495.108 OFFCURVE",
"160.295 495.108 CURVE SMOOTH",
"148.686 495.108 OFFCURVE",
"135.883 502.161 OFFCURVE",
"126 514 CURVE SMOOTH",
"30 629 LINE SMOOTH",
"23.127 637.233 OFFCURVE",
"19.343 646.837 OFFCURVE",
"19.343 656.047 CURVE SMOOTH",
"19.343 675.795 OFFCURVE",
"34.98 693.039 OFFCURVE",
"52.888 693.039 CURVE SMOOTH",
"64.452 693.039 OFFCURVE",
"76.912 686.085 OFFCURVE",
"87 674 CURVE SMOOTH",
"183 559 LINE SMOOTH",
"188.825 552.022 OFFCURVE",
"192.271 542.156 OFFCURVE"
);
}
);
width = 212;
}
);
unicode = 0060;
},
{
glyphname = a;
lastChange = "2016-06-28 16:50:45 +0000";
layers = (
{
layerId = "E470338E-0F5C-48CE-A795-CCBFA337B20F";
paths = (
{
closed = 1;
nodes = (
"452 -7 OFFCURVE",
"462 3 OFFCURVE",
"462 23 CURVE SMOOTH",
"462 337 LINE SMOOTH",
"462 430.333 OFFCURVE",
"440.333 461 OFFCURVE",
"367 461 CURVE SMOOTH",
"212 461 LINE SMOOTH",
"122.667 461 OFFCURVE",
"60 426 OFFCURVE",
"60 354 CURVE SMOOTH",
"60 334 OFFCURVE",
"71 324 OFFCURVE",
"81 324 CURVE SMOOTH",
"92 324 OFFCURVE",
"102 334 OFFCURVE",
"102 354 CURVE SMOOTH",
"102 397.333 OFFCURVE",
"141 419 OFFCURVE",
"219 419 CURVE SMOOTH",
"360 419 LINE SMOOTH",
"405.333 419 OFFCURVE",
"420 400.667 OFFCURVE",
"420 354 CURVE SMOOTH",
"420 290 LINE",
"268 290 LINE SMOOTH",
"215.333 290 OFFCURVE",
"173 284 OFFCURVE",
"141 272 CURVE SMOOTH",
"87 252 OFFCURVE",
"60 199.333 OFFCURVE",
"60 114 CURVE SMOOTH",
"60 82 OFFCURVE",
"69.333 54.667 OFFCURVE",
"88 32 CURVE SMOOTH",
"106.667 10.667 OFFCURVE",
"131.333 0 OFFCURVE",
"162 0 CURVE SMOOTH",
"255 0 LINE SMOOTH",
"329 0 OFFCURVE",
"384 24 OFFCURVE",
"420 72 CURVE",
"420 23 LINE SMOOTH",
"420 3 OFFCURVE",
"431 -7 OFFCURVE",
"441 -7 CURVE SMOOTH"
);
},
{
closed = 1;
nodes = (
"123 42 OFFCURVE",
"103 86 OFFCURVE",
"103 133 CURVE SMOOTH",
"103 152 OFFCURVE",
"106 170 OFFCURVE",
"111.5 187 CURVE SMOOTH",
"131.338 243.382 OFFCURVE",
"183.796 248 OFFCURVE",
"268 248 CURVE SMOOTH",
"420 248 LINE",
"420 228 LINE SMOOTH",
"420 108 OFFCURVE",
"360.333 42 OFFCURVE",
"255 42 CURVE SMOOTH",
"162 42 LINE SMOOTH"
);
}
);
width = 534;
},
{
layerId = "85CA6BE8-4AFB-4921-9C51-19E8EEB169E9";
paths = (
{
closed = 1;
nodes = (
"451 305 LINE",
"451 347 LINE SMOOTH",
"451 376.923 OFFCURVE",
"438.138 388.928 OFFCURVE",
"406 389 CURVE SMOOTH",
"228.378 389.398 LINE SMOOTH",
"168.287 389.533 OFFCURVE",
"133 373.37 OFFCURVE",
"133 345.711 CURVE SMOOTH",
"133 323.023 OFFCURVE",
"117.063 305 OFFCURVE",
"97 305 CURVE SMOOTH",
"74.619 305 OFFCURVE",
"61 324.889 OFFCURVE",
"61 357.574 CURVE SMOOTH",
"61 425.526 OFFCURVE",
"128.57 461 OFFCURVE",
"258 461 CURVE SMOOTH",
"413 461 LINE SMOOTH",
"492.047 461 OFFCURVE",
"523 424.419 OFFCURVE",
"523 331 CURVE SMOOTH",
"523 35 LINE SMOOTH",
"523 10.605 OFFCURVE",
"507.666 -7 OFFCURVE",
"486.417 -7 CURVE SMOOTH",
"462.726 -7 OFFCURVE",
"448.079 16.573 OFFCURVE",
"451 50 CURVE",
"409.713 16.373 OFFCURVE",
"350.77 0 OFFCURVE",
"271 0 CURVE SMOOTH",
"178 0 LINE SMOOTH",
"108.69 0 OFFCURVE",
"61 60.29 OFFCURVE",
"61 147.912 CURVE SMOOTH",
"61 258.224 OFFCURVE",
"136.335 305 OFFCURVE",
"314 305 CURVE SMOOTH"
);
},
{
closed = 1;
nodes = (
"451 233 LINE",
"270.071 233.288 LINE",
"172.137 233.288 OFFCURVE",
"133 207.525 OFFCURVE",
"133 143.056 CURVE SMOOTH",
"133 100.42 OFFCURVE",
"150.999 72 OFFCURVE",
"178 72 CURVE SMOOTH",
"271 72 LINE SMOOTH",
"391.544 72 OFFCURVE",
"451.029 123.846 OFFCURVE",
"451.029 228.912 CURVE"
);
}
);
width = 594;
}
);
unicode = 0061;
},
{
glyphname = b;
lastChange = "2016-06-28 16:50:45 +0000";
layers = (
{
layerId = "E470338E-0F5C-48CE-A795-CCBFA337B20F";
paths = (
{
closed = 1;
nodes = (
"106 -7 OFFCURVE",
"116 3 OFFCURVE",
"116 23 CURVE SMOOTH",
"116 72 LINE",
"153.333 24 OFFCURVE",
"208.667 0 OFFCURVE",
"282 0 CURVE SMOOTH",
"311 0 LINE SMOOTH",
"451 0 OFFCURVE",
"518 35 OFFCURVE",
"518 175 CURVE SMOOTH",
"518 286 LINE SMOOTH",
"518 426 OFFCURVE",
"451 461 OFFCURVE",
"311 461 CURVE SMOOTH",
"282 461 LINE SMOOTH",
"208.667 461 OFFCURVE",
"153.333 437 OFFCURVE",
"116 389 CURVE",
"116 612 LINE SMOOTH",
"116 632.667 OFFCURVE",
"108.333 643 OFFCURVE",
"93 643 CURVE SMOOTH",
"80.333 643 OFFCURVE",
"74 632.667 OFFCURVE",
"74 612 CURVE SMOOTH",
"74 23 LINE SMOOTH",
"74 3 OFFCURVE",
"85 -7 OFFCURVE",
"95 -7 CURVE SMOOTH"
);
},
{
closed = 1;
nodes = (
"175.333 42 OFFCURVE",
"116 108 OFFCURVE",
"116 228 CURVE SMOOTH",
"116 232 LINE SMOOTH",
"116 352 OFFCURVE",
"175.333 419 OFFCURVE",
"282 419 CURVE SMOOTH",
"311 419 LINE SMOOTH",
"422.143 419 OFFCURVE",
"476 408.017 OFFCURVE",
"476 286 CURVE SMOOTH",
"476 175 LINE SMOOTH",
"476 52.983 OFFCURVE",
"422.143 42 OFFCURVE",
"311 42 CURVE SMOOTH",
"282 42 LINE SMOOTH"
);
}
);
width = 580;
},
{
layerId = "85CA6BE8-4AFB-4921-9C51-19E8EEB169E9";
paths = (
{
closed = 1;
nodes = (
"147 411 LINE",
"190.779 446.25 OFFCURVE",
"250.316 461 OFFCURVE",
"348.824 461 CURVE SMOOTH",
"541.463 461 OFFCURVE",
"609 414.795 OFFCURVE",
"609 283 CURVE SMOOTH",
"609 178 LINE SMOOTH",
"609 60.156 OFFCURVE",
"541.435 -0.001 OFFCURVE",
"409.081 -0.001 CURVE SMOOTH",
"253.963 -0.001 OFFCURVE",
"195.199 11.21 OFFCURVE",
"147 50 CURVE",
"147.7 9.855 OFFCURVE",
"137.092 -7 OFFCURVE",
"111.124 -7 CURVE SMOOTH",
"87.442 -7 OFFCURVE",
"75 7.466 OFFCURVE",
"75 35 CURVE SMOOTH",
"75 597 LINE SMOOTH",
"75 627.148 OFFCURVE",
"87.228 643 OFFCURVE",
"110.483 643 CURVE SMOOTH",
"134.194 643 OFFCURVE",
"147 626.868 OFFCURVE",
"147 597 CURVE SMOOTH"
);
},
{
closed = 1;
nodes = (
"147 233.214 CURVE SMOOTH",
"147 65.601 OFFCURVE",
"278.369 71.739 OFFCURVE",
"365.332 71.739 CURVE SMOOTH",
"502.048 71.739 OFFCURVE",
"537 93.985 OFFCURVE",
"537 181 CURVE SMOOTH",
"537 280 LINE SMOOTH",
"537 366.673 OFFCURVE",
"502.236 389.261 OFFCURVE",
"368.84 389.261 CURVE SMOOTH",
"272.76 389.261 OFFCURVE",
"147 397.211 OFFCURVE"
);
}
);
width = 670;
}
);
unicode = 0062;
},
{
glyphname = c;
lastChange = "2016-06-28 16:50:43 +0000";
layers = (
{
layerId = "E470338E-0F5C-48CE-A795-CCBFA337B20F";
paths = (
{
closed = 1;
nodes = (
"411 0 LINE SMOOTH",
"495 0 OFFCURVE",
"506 48.667 OFFCURVE",
"506 110 CURVE SMOOTH",
"506 127.333 OFFCURVE",
"499 136.333 OFFCURVE",
"485 137 CURVE",
"471 137 OFFCURVE",
"464 126.167 OFFCURVE",
"464 104.5 CURVE SMOOTH",
"464 82.833 OFFCURVE",
"459.667 67 OFFCURVE",
"451 57 CURVE SMOOTH",
"442.333 47 OFFCURVE",
"426.667 42 OFFCURVE",
"404 42 CURVE SMOOTH",
"270 42 LINE SMOOTH",
"157.186 42 OFFCURVE",
"104 52.983 OFFCURVE",
"104 175 CURVE SMOOTH",
"104 286 LINE SMOOTH",
"104 408.017 OFFCURVE",
"157.186 419 OFFCURVE",
"270 419 CURVE SMOOTH",
"404 419 LINE SMOOTH",
"449.333 419 OFFCURVE",
"464 398.667 OFFCURVE",
"464 356 CURVE SMOOTH",
"464 334.667 OFFCURVE",
"471 324 OFFCURVE",
"485 324 CURVE SMOOTH",
"499 324 OFFCURVE",
"506 340 OFFCURVE",
"506 362 CURVE SMOOTH",
"506 383 OFFCURVE",
"500 408 OFFCURVE",
"490 429 CURVE SMOOTH",
"480 450.333 OFFCURVE",
"455 461 OFFCURVE",
"415 461 CURVE",
"413.667 461 OFFCURVE",
"412.333 461 OFFCURVE",
"411 461 CURVE",
"270 461 LINE SMOOTH",
"128.667 461 OFFCURVE",
"62 426 OFFCURVE",
"62 286 CURVE SMOOTH",
"62 175 LINE SMOOTH",
"62 35 OFFCURVE",
"128.667 0 OFFCURVE",
"270 0 CURVE SMOOTH"
);
}
);
width = 564;
},
{
layerId = "85CA6BE8-4AFB-4921-9C51-19E8EEB169E9";
paths = (
{
closed = 1;
nodes = (
"455 0 CURVE SMOOTH",
"314 0 LINE SMOOTH",
"129.033 0 OFFCURVE",
"61 47.865 OFFCURVE",
"61 178 CURVE SMOOTH",
"61 283 LINE SMOOTH",
"61 413.135 OFFCURVE",
"129.033 461 OFFCURVE",
"314 461 CURVE SMOOTH",
"455 461 LINE SMOOTH",
"527.67 461 OFFCURVE",
"565 423.874 OFFCURVE",
"565 351.603 CURVE SMOOTH",
"565 312.2 OFFCURVE",
"552.468 294 OFFCURVE",
"525.336 294 CURVE SMOOTH",
"463.191 294 OFFCURVE",
"527.944 389 OFFCURVE",
"448 389 CURVE SMOOTH",
"314 389 LINE SMOOTH",
"237.347 389 OFFCURVE",
"182.647 380.886 OFFCURVE",
"161.487 366.377 CURVE SMOOTH",
"141.919 352.96 OFFCURVE",
"133 325.915 OFFCURVE",
"133 280 CURVE SMOOTH",
"133 181 LINE SMOOTH",
"133 135.085 OFFCURVE",
"141.92 108.04 OFFCURVE",
"161.487 94.623 CURVE SMOOTH",
"182.648 80.114 OFFCURVE",
"237.346 72 OFFCURVE",
"314 72 CURVE SMOOTH",
"448 72 LINE SMOOTH",
"528.165 72 OFFCURVE",
"463.624 167 OFFCURVE",
"524.187 167 CURVE SMOOTH",
"551.531 167 OFFCURVE",
"565 147.157 OFFCURVE",
"565 106.872 CURVE SMOOTH",
"565 36.71 OFFCURVE",
"527.216 0 OFFCURVE"
);
}
);
width = 624;
}
);
unicode = 0063;
},
{
glyphname = d;
lastChange = "2016-06-28 16:50:45 +0000";
layers = (
{
layerId = "E470338E-0F5C-48CE-A795-CCBFA337B20F";
paths = (
{
closed = 1;
nodes = (
"496 -7 OFFCURVE",
"506 3 OFFCURVE",
"506 23 CURVE SMOOTH",
"506 612 LINE SMOOTH",
"506 632.667 OFFCURVE",
"499.667 643 OFFCURVE",
"487 643 CURVE SMOOTH",
"471.667 643 OFFCURVE",
"464 632.667 OFFCURVE",
"464 612 CURVE SMOOTH",
"464 461 LINE",
"270 461 LINE SMOOTH",
"128.667 461 OFFCURVE",
"62 426 OFFCURVE",
"62 286 CURVE SMOOTH",
"62 175 LINE SMOOTH",
"62 35 OFFCURVE",
"128.667 0 OFFCURVE",
"270 0 CURVE SMOOTH",
"299 0 LINE SMOOTH",
"373 0 OFFCURVE",
"428 24 OFFCURVE",
"464 72 CURVE",
"464 23 LINE SMOOTH",
"464 3 OFFCURVE",
"475 -7 OFFCURVE",
"485 -7 CURVE SMOOTH"
);
},
{
closed = 1;
nodes = (
"157.186 42 OFFCURVE",
"104 52.983 OFFCURVE",
"104 175 CURVE SMOOTH",
"104 286 LINE SMOOTH",
"104 408.017 OFFCURVE",
"157.186 419 OFFCURVE",
"270 419 CURVE SMOOTH",
"464 419 LINE",
"464 228 LINE SMOOTH",
"464 108 OFFCURVE",
"404.333 42 OFFCURVE",
"299 42 CURVE SMOOTH",
"270 42 LINE SMOOTH"
);
}
);
width = 580;
},
{
layerId = "85CA6BE8-4AFB-4921-9C51-19E8EEB169E9";
paths = (
{
closed = 1;
nodes = (
"133 181 LINE SMOOTH",
"133 64.76 OFFCURVE",
"209.617 71.683 OFFCURVE",
"306.17 71.683 CURVE SMOOTH",
"464.694 71.683 OFFCURVE",
"523 113.986 OFFCURVE",
"523 229 CURVE SMOOTH",
"523 389 LINE",
"267.816 389.155 LINE",
"164.799 389.155 OFFCURVE",
"133 363.409 OFFCURVE",
"133 280 CURVE SMOOTH"
);
},
{
closed = 1;
nodes = (
"61 283 LINE SMOOTH",
"61 412.91 OFFCURVE",
"126.921 461 OFFCURVE",
"305 461 CURVE SMOOTH",
"523 461 LINE",
"523 598 LINE SMOOTH",
"523 627.051 OFFCURVE",
"535.968 643 OFFCURVE",
"559.589 643 CURVE SMOOTH",
"582.713 643 OFFCURVE",
"595 627.386 OFFCURVE",
"595 598 CURVE SMOOTH",
"595 35 LINE SMOOTH",
"595 7.636 OFFCURVE",
"582.401 -7 OFFCURVE",
"558.846 -7 CURVE SMOOTH",
"533.033 -7 OFFCURVE",
"522.235 10.169 OFFCURVE",
"523 50 CURVE",
"479.133 14.733 OFFCURVE",
"419.415 0 OFFCURVE",
"320.33 0 CURVE SMOOTH",
"128.712 0 OFFCURVE",
"61 46.476 OFFCURVE",
"61 178 CURVE SMOOTH"
);
}
);
width = 670;
}
);
unicode = 0064;
},
{
glyphname = e;
lastChange = "2016-06-28 16:49:57 +0000";
layers = (
{
layerId = "E470338E-0F5C-48CE-A795-CCBFA337B20F";
paths = (
{
closed = 1;
nodes = (
"411 0 LINE SMOOTH",
"495 0 OFFCURVE",
"506 48.667 OFFCURVE",
"506 110 CURVE SMOOTH",
"506 127.333 OFFCURVE",
"499 136.333 OFFCURVE",
"485 137 CURVE",
"471 137 OFFCURVE",
"464 126.167 OFFCURVE",
"464 104.5 CURVE SMOOTH",
"464 82.833 OFFCURVE",
"459.667 67 OFFCURVE",
"451 57 CURVE SMOOTH",
"442.333 47 OFFCURVE",
"426.667 42 OFFCURVE",
"404 42 CURVE SMOOTH",
"270 42 LINE SMOOTH",
"157.186 42 OFFCURVE",
"104 52.983 OFFCURVE",
"104 175 CURVE SMOOTH",
"104 250 LINE",
"506 250 LINE",
"506 286 LINE SMOOTH",
"506 426 OFFCURVE",
"439 461 OFFCURVE",
"299 461 CURVE SMOOTH",
"270 461 LINE SMOOTH",
"128.667 461 OFFCURVE",
"62 426 OFFCURVE",
"62 286 CURVE SMOOTH",
"62 175 LINE SMOOTH",
"62 35 OFFCURVE",
"128.667 0 OFFCURVE",
"270 0 CURVE SMOOTH"
);
},
{
closed = 1;
nodes = (
"104 400 OFFCURVE",
"147.333 419 OFFCURVE",
"270 419 CURVE SMOOTH",
"299 419 LINE SMOOTH",
"420.333 419 OFFCURVE",
"464 400 OFFCURVE",
"464 292 CURVE",
"104 292 LINE"
);
}
);
width = 566;
},
{
layerId = "85CA6BE8-4AFB-4921-9C51-19E8EEB169E9";
paths = (
{
closed = 1;
nodes = (
"595 283 CURVE SMOOTH",
"595 235 LINE",
"133 235 LINE",
"133 181 LINE SMOOTH",
"133 101.043 OFFCURVE",
"169.89 71.719 OFFCURVE",
"270.478 71.719 CURVE",
"468 72 LINE",
"543.519 72 OFFCURVE",
"487.743 167 OFFCURVE",
"544.47 167 CURVE SMOOTH",
"570.696 167 OFFCURVE",
"585 145.615 OFFCURVE",
"585 106.407 CURVE SMOOTH",
"585 39.348 OFFCURVE",
"544.323 0 OFFCURVE",
"475 0 CURVE SMOOTH",
"314 0 LINE SMOOTH",
"131.226 0 OFFCURVE",
"61 49.408 OFFCURVE",
"61 178 CURVE SMOOTH",
"61 283 LINE SMOOTH",
"61 411.167 OFFCURVE",
"131.369 461.002 OFFCURVE",
"312.343 461.002 CURVE SMOOTH",
"524.245 461.002 OFFCURVE",
"595 416.444 OFFCURVE"
);
},
{
closed = 1;
nodes = (
"133 307 CURVE",
"523 307 LINE",
"519.07 396.421 OFFCURVE",
"407.013 391.256 OFFCURVE",
"355.22 391.256 CURVE SMOOTH",
"275.674 391.256 OFFCURVE",
"134.076 403.441 OFFCURVE"
);
}
);
width = 651;
}
);
unicode = 0065;
},
{
glyphname = f;
lastChange = "2016-06-28 16:50:43 +0000";
layers = (
{
layerId = "E470338E-0F5C-48CE-A795-CCBFA337B20F";
paths = (
{
closed = 1;
nodes = (
"113.333 -7 OFFCURVE",
"121 3.333 OFFCURVE",
"121 24 CURVE SMOOTH",
"121 419 LINE",
"264 419 LINE SMOOTH",
"284.667 419 OFFCURVE",
"295 425.333 OFFCURVE",
"295 438 CURVE SMOOTH",
"295 453.333 OFFCURVE",
"284.667 461 OFFCURVE",
"264 461 CURVE SMOOTH",
"121 461 LINE",
"121 583.017 OFFCURVE",
"174.186 594 OFFCURVE",
"287 594 CURVE SMOOTH",
"307.667 594 OFFCURVE",
"318 600.333 OFFCURVE",
"318 613 CURVE SMOOTH",
"318 628.333 OFFCURVE",
"307.667 636 OFFCURVE",
"287 636 CURVE SMOOTH",
"217.667 636 OFFCURVE",
"177 630 OFFCURVE",
"137 606 CURVE SMOOTH",
"98.333 582.667 OFFCURVE",
"79 534.333 OFFCURVE",
"79 461 CURVE",
"58 461 OFFCURVE",
"48 451 OFFCURVE",
"48 440 CURVE SMOOTH",
"48 430 OFFCURVE",
"58 419 OFFCURVE",
"79 419 CURVE",
"79 24 LINE SMOOTH",
"79 3.333 OFFCURVE",
"85.333 -7 OFFCURVE",
"98 -7 CURVE SMOOTH"
);
}
);
width = 313;
},
{
layerId = "85CA6BE8-4AFB-4921-9C51-19E8EEB169E9";
paths = (
{
closed = 1;
nodes = (
"152 461 CURVE",
"280 461 LINE SMOOTH",
"309.864 461 OFFCURVE",
"326 448.189 OFFCURVE",
"326 424.479 CURVE SMOOTH",
"326 401.224 OFFCURVE",
"310.152 389 OFFCURVE",
"280 389 CURVE SMOOTH",
"152 389 LINE",
"152 36 LINE SMOOTH",
"152 8.052 OFFCURVE",
"139.194 -7 OFFCURVE",
"115.416 -7 CURVE SMOOTH",
"92.121 -7 OFFCURVE",
"80 7.717 OFFCURVE",
"80 36 CURVE SMOOTH",
"80 394 LINE",
"61.741 397.492 OFFCURVE",
"49 411.441 OFFCURVE",
"49 427.94 CURVE SMOOTH",
"49 444.487 OFFCURVE",
"61.795 457.72 OFFCURVE",
"80 460 CURVE",
"84.476 581.388 OFFCURVE",
"143.741 636 OFFCURVE",
"270.993 636 CURVE SMOOTH",
"328.731 636 OFFCURVE",
"349 626.529 OFFCURVE",
"349 599.548 CURVE SMOOTH",
"349 556.101 OFFCURVE",
"296.301 563.323 OFFCURVE",
"258.211 563.323 CURVE SMOOTH",
"184.746 563.323 OFFCURVE",
"154.037 533.738 OFFCURVE"
);
}
);
width = 345;
}
);
unicode = 0066;
},
{
glyphname = g;
lastChange = "2016-06-28 16:50:43 +0000";
layers = (
{
layerId = "E470338E-0F5C-48CE-A795-CCBFA337B20F";
paths = (
{
closed = 1;
nodes = (
"154.333 -205 OFFCURVE",
"155.667 -205 OFFCURVE",
"157 -205 CURVE",
"420 -205 LINE SMOOTH",
"486.667 -205 OFFCURVE",
"506 -177.333 OFFCURVE",
"506 -92 CURVE SMOOTH",
"506 438 LINE SMOOTH",
"506 458 OFFCURVE",
"496 468 OFFCURVE",
"485 468 CURVE SMOOTH",
"475 468 OFFCURVE",
"464 458 OFFCURVE",
"464 438 CURVE SMOOTH",
"464 389 LINE",
"428 437 OFFCURVE",
"373 461 OFFCURVE",
"299 461 CURVE SMOOTH",
"270 461 LINE SMOOTH",
"128.667 461 OFFCURVE",
"62 426 OFFCURVE",
"62 286 CURVE SMOOTH",
"62 175 LINE SMOOTH",
"62 35 OFFCURVE",
"128.667 0 OFFCURVE",
"270 0 CURVE SMOOTH",
"411 0 LINE SMOOTH",
"433.667 0 OFFCURVE",
"451.333 3 OFFCURVE",
"464 9 CURVE",
"464 -108 LINE SMOOTH",
"464 -150.667 OFFCURVE",
"454.333 -163 OFFCURVE",
"413 -163 CURVE SMOOTH",
"164 -163 LINE SMOOTH",
"118.667 -163 OFFCURVE",
"104 -142.667 OFFCURVE",
"104 -100 CURVE SMOOTH",
"104 -78.667 OFFCURVE",
"97 -68 OFFCURVE",
"83 -68 CURVE SMOOTH",
"69 -68 OFFCURVE",
"62 -84 OFFCURVE",
"62 -106 CURVE SMOOTH",
"62 -127 OFFCURVE",
"68 -152 OFFCURVE",
"78 -173 CURVE SMOOTH",
"88 -194.333 OFFCURVE",
"113 -205 OFFCURVE",
"153 -205 CURVE"
);
},
{
closed = 1;
nodes = (
"157.186 42 OFFCURVE",
"104 52.983 OFFCURVE",
"104 175 CURVE SMOOTH",
"104 286 LINE SMOOTH",
"104 408.017 OFFCURVE",
"157.186 419 OFFCURVE",
"270 419 CURVE SMOOTH",
"299 419 LINE SMOOTH",
"404.333 419 OFFCURVE",
"464 352 OFFCURVE",
"464 232 CURVE SMOOTH",
"464 106 LINE SMOOTH",
"464 59.333 OFFCURVE",
"449.333 42 OFFCURVE",
"404 42 CURVE SMOOTH",
"270 42 LINE SMOOTH"
);
}
);
width = 581;
},
{
layerId = "85CA6BE8-4AFB-4921-9C51-19E8EEB169E9";
paths = (
{
closed = 1;
nodes = (
"595 -77 LINE SMOOTH",
"595 -170.542 OFFCURVE",
"567.811 -205 OFFCURVE",
"494 -205 CURVE SMOOTH",
"171 -205 LINE SMOOTH",
"98.422 -205 OFFCURVE",
"61 -167.673 OFFCURVE",
"61 -95.281 CURVE SMOOTH",
"61 -55.906 OFFCURVE",
"73.77 -38 OFFCURVE",
"101.85 -38 CURVE SMOOTH",
"166.567 -38 OFFCURVE",
"95.196 -133 OFFCURVE",
"178 -133 CURVE SMOOTH",
"487 -133 LINE SMOOTH",
"516.393 -133 OFFCURVE",
"523 -125.659 OFFCURVE",
"523 -93 CURVE SMOOTH",
"523 0 LINE",
"311 0 LINE SMOOTH",
"128.738 0 OFFCURVE",
"61 48.229 OFFCURVE",
"61 178 CURVE SMOOTH",
"61 283 LINE SMOOTH",
"61 401.775 OFFCURVE",
"129.015 461.001 OFFCURVE",
"265.415 461.001 CURVE SMOOTH",
"415.654 461.001 OFFCURVE",
"474.991 449.483 OFFCURVE",
"523 411 CURVE",
"522.945 416.706 LINE",
"522.945 451.743 OFFCURVE",
"534.298 468 OFFCURVE",
"558.765 468 CURVE SMOOTH",
"582.095 468 OFFCURVE",
"595 453.043 OFFCURVE",
"595 426 CURVE SMOOTH"
);
},
{
closed = 1;
nodes = (
"523 72 LINE",
"523 233 LINE SMOOTH",
"523 348.243 OFFCURVE",
"462.228 389.31 OFFCURVE",
"291.688 389.31 CURVE SMOOTH",
"166.416 389.31 OFFCURVE",
"133 366.292 OFFCURVE",
"133 280 CURVE SMOOTH",
"133 181 LINE SMOOTH",
"133 98.866 OFFCURVE",
"166.576 71.76 OFFCURVE",
"268.316 71.76 CURVE"
);
}
);
width = 670;
}
);
unicode = 0067;
},
{
glyphname = h;
lastChange = "2016-06-28 16:50:45 +0000";
layers = (
{
layerId = "E470338E-0F5C-48CE-A795-CCBFA337B20F";
paths = (
{
closed = 1;
nodes = (
"106 -7 OFFCURVE",
"116 3 OFFCURVE",
"116 23 CURVE SMOOTH",
"116 232 LINE SMOOTH",
"116 352 OFFCURVE",
"175.333 419 OFFCURVE",
"282 419 CURVE SMOOTH",
"311 419 LINE SMOOTH",
"422.143 419 OFFCURVE",
"476 408.017 OFFCURVE",
"476 286 CURVE SMOOTH",
"476 23 LINE SMOOTH",
"476 3 OFFCURVE",
"487 -7 OFFCURVE",
"497 -7 CURVE SMOOTH",
"508 -7 OFFCURVE",
"518 3 OFFCURVE",
"518 23 CURVE SMOOTH",
"518 286 LINE SMOOTH",
"518 426 OFFCURVE",
"451 461 OFFCURVE",
"311 461 CURVE SMOOTH",
"282 461 LINE SMOOTH",
"208.667 461 OFFCURVE",
"153.333 437 OFFCURVE",
"116 389 CURVE",
"116 612 LINE SMOOTH",
"116 632.667 OFFCURVE",
"108.333 643 OFFCURVE",
"93 643 CURVE SMOOTH",
"80.333 643 OFFCURVE",
"74 632.667 OFFCURVE",
"74 612 CURVE SMOOTH",
"74 23 LINE SMOOTH",
"74 3 OFFCURVE",
"85 -7 OFFCURVE",
"95 -7 CURVE SMOOTH"
);
}
);
width = 588;
},
{
layerId = "85CA6BE8-4AFB-4921-9C51-19E8EEB169E9";
paths = (
{
closed = 1;
nodes = (
"111 -7 CURVE SMOOTH",
"87.42 -7 OFFCURVE",
"75 7.49 OFFCURVE",
"75 35 CURVE SMOOTH",
"75 597 LINE SMOOTH",
"75 627.149 OFFCURVE",
"87.226 643 OFFCURVE",
"110.48 643 CURVE SMOOTH",
"134.19 643 OFFCURVE",
"147 626.865 OFFCURVE",
"147 597 CURVE SMOOTH",
"147 411 LINE",
"190.753 446.245 OFFCURVE",
"250.305 461 OFFCURVE",
"348.806 461 CURVE SMOOTH",
"541.463 461 OFFCURVE",
"609 414.798 OFFCURVE",
"609 283 CURVE SMOOTH",
"609 35 LINE SMOOTH",
"609 7.49 OFFCURVE",
"596.58 -7 OFFCURVE",
"573 -7 CURVE SMOOTH",
"549.42 -7 OFFCURVE",
"537 7.49 OFFCURVE",
"537 35 CURVE SMOOTH",
"537 280 LINE SMOOTH",
"537 367.277 OFFCURVE",
"501.912 389.26 OFFCURVE",
"362.607 389.26 CURVE SMOOTH",
"275.475 389.26 OFFCURVE",
"147 395.142 OFFCURVE",
"147 229 CURVE SMOOTH",
"147 35 LINE SMOOTH",
"147 7.49 OFFCURVE",
"134.58 -7 OFFCURVE"
);
}
);
width = 679;
}
);
unicode = 0068;
},
{
glyphname = i;
lastChange = "2016-06-28 16:50:45 +0000";
layers = (
{
layerId = "E470338E-0F5C-48CE-A795-CCBFA337B20F";
paths = (
{
closed = 1;
nodes = (
"106 -7 OFFCURVE",
"116 2 OFFCURVE",
"116 20 CURVE SMOOTH",
"116 440 LINE SMOOTH",
"116 459 OFFCURVE",
"106 468 OFFCURVE",
"95 468 CURVE SMOOTH",
"85 468 OFFCURVE",
"74 459 OFFCURVE",
"74 440 CURVE SMOOTH",
"74 20 LINE SMOOTH",
"74 2 OFFCURVE",
"85 -7 OFFCURVE",
"95 -7 CURVE SMOOTH"
);
},
{
closed = 1;
nodes = (
"118 566 OFFCURVE",
"141 578 OFFCURVE",
"141 601 CURVE SMOOTH",
"141 624 OFFCURVE",
"119 636 OFFCURVE",
"97 636 CURVE SMOOTH",
"74 636 OFFCURVE",
"51 624 OFFCURVE",
"49 601 CURVE",
"49 578 OFFCURVE",
"72 566 OFFCURVE",
"95 566 CURVE SMOOTH"
);
}
);
width = 190;
},
{
layerId = "85CA6BE8-4AFB-4921-9C51-19E8EEB169E9";
paths = (
{
closed = 1;
nodes = (
"73 440 LINE SMOOTH",
"73 464.963 OFFCURVE",
"88.355 483.529 OFFCURVE",
"109 483.529 CURVE SMOOTH",
"129.645 483.529 OFFCURVE",
"145 464.963 OFFCURVE",
"145 440 CURVE SMOOTH",
"145 20 LINE SMOOTH",
"145 -7.073 OFFCURVE",
"132.404 -22 OFFCURVE",
"109.557 -22 CURVE SMOOTH",
"86.574 -22 OFFCURVE",
"73 -6.405 OFFCURVE",
"73 20 CURVE SMOOTH"
);
},
{
closed = 1;
nodes = (
"110.583 548.972 CURVE SMOOTH",
"79.944 548.972 OFFCURVE",
"47.819 576.233 OFFCURVE",
"47.819 602.232 CURVE SMOOTH",
"47.819 627.684 OFFCURVE",
"76.817 653.028 OFFCURVE",
"105.939 653.028 CURVE SMOOTH",
"137.255 653.028 OFFCURVE",
"170.271 626.132 OFFCURVE",
"170.271 600.621 CURVE SMOOTH",
"170.271 575.375 OFFCURVE",
"139.759 548.972 OFFCURVE"
);
}
);
width = 218;
}
);
unicode = 0069;
},
{
glyphname = j;
lastChange = "2016-06-28 16:50:45 +0000";
layers = (
{
layerId = "E470338E-0F5C-48CE-A795-CCBFA337B20F";
paths = (
{
closed = 1;
nodes = (
"-21.667 -175 OFFCURVE",
"19 -170 OFFCURVE",
"59 -146 CURVE SMOOTH",
"97.667 -123.333 OFFCURVE",
"117 -74.667 OFFCURVE",
"117 0 CURVE SMOOTH",
"117 437 LINE SMOOTH",
"117 458 OFFCURVE",
"107 468 OFFCURVE",
"96 468 CURVE SMOOTH",
"86 468 OFFCURVE",
"75 458 OFFCURVE",
"75 437 CURVE SMOOTH",
"75 0 LINE SMOOTH",
"75 -122.017 OFFCURVE",
"21.814 -133 OFFCURVE",
"-91 -133 CURVE SMOOTH",
"-112 -133 OFFCURVE",
"-122 -144 OFFCURVE",
"-122 -154 CURVE SMOOTH",
"-122 -165 OFFCURVE",
"-112 -175 OFFCURVE",
"-91 -175 CURVE SMOOTH"
);
},
{
closed = 1;
nodes = (
"118 565 OFFCURVE",
"142 583 OFFCURVE",
"142 603 CURVE SMOOTH",
"142 611 OFFCURVE",
"138 619 OFFCURVE",
"127 626 CURVE",
"119 634 OFFCURVE",
"109 637 OFFCURVE",
"99 637 CURVE SMOOTH",
"75 637 OFFCURVE",
"50 619 OFFCURVE",
"50 599 CURVE SMOOTH",
"50 591 OFFCURVE",
"54 583 OFFCURVE",
"65.5 576 CURVE",
"74 568 OFFCURVE",
"84 565 OFFCURVE",
"94 565 CURVE SMOOTH"
);
}
);
width = 192;
},
{
layerId = "85CA6BE8-4AFB-4921-9C51-19E8EEB169E9";
paths = (
{
closed = 1;
nodes = (
"112.641 548.972 CURVE SMOOTH",
"82.149 548.972 OFFCURVE",
"49.819 576.353 OFFCURVE",
"49.819 602.178 CURVE SMOOTH",
"49.819 627.469 OFFCURVE",
"79.047 653.028 OFFCURVE",
"107.969 653.028 CURVE SMOOTH",
"139.073 653.028 OFFCURVE",
"172.271 625.939 OFFCURVE",
"172.271 600.558 CURVE SMOOTH",
"172.271 575.452 OFFCURVE",
"141.662 548.972 OFFCURVE"
);
},
{
closed = 1;
nodes = (
"147 0 LINE SMOOTH",
"147 -121.791 OFFCURVE",
"89.719 -175 OFFCURVE",
"-41.394 -175 CURVE SMOOTH",
"-102.248 -175 OFFCURVE",
"-122 -166.136 OFFCURVE",
"-122 -138.827 CURVE SMOOTH",
"-122 -92.178 OFFCURVE",
"-62.514 -102.321 OFFCURVE",
"-22.067 -102.321 CURVE SMOOTH",
"46.358 -102.321 OFFCURVE",
"75 -72.129 OFFCURVE",
"75 0 CURVE SMOOTH",
"75 422 LINE SMOOTH",
"75 452.037 OFFCURVE",
"87.493 468 OFFCURVE",
"111 468 CURVE SMOOTH",
"134.507 468 OFFCURVE",
"147 452.037 OFFCURVE",
"147 422 CURVE SMOOTH"
);
}
);
width = 222;
}
);
unicode = 006A;
},
{
glyphname = k;
lastChange = "2016-06-28 16:50:45 +0000";
layers = (
{
layerId = "E470338E-0F5C-48CE-A795-CCBFA337B20F";
paths = (
{
closed = 1;
nodes = (
"106 -7 OFFCURVE",
"116 2 OFFCURVE",
"116 20 CURVE SMOOTH",
"116 203 LINE",
"150 237 LINE",
"381 5 LINE SMOOTH",
"388 -2 OFFCURVE",
"396 -5 OFFCURVE",
"402 -5 CURVE SMOOTH",
"413 -5 OFFCURVE",
"421 3 OFFCURVE",
"421 14 CURVE SMOOTH",
"421 21 OFFCURVE",
"418 28 OFFCURVE",
"411 35 CURVE SMOOTH",
"179 266 LINE",
"338 425 LINE SMOOTH",
"346 433 OFFCURVE",
"349 441 OFFCURVE",
"349 447 CURVE SMOOTH",
"349 458 OFFCURVE",
"341 465 OFFCURVE",
"331 465 CURVE SMOOTH",
"324 465 OFFCURVE",
"316 462 OFFCURVE",
"308 455 CURVE",
"116 262 LINE",
"116 615 LINE SMOOTH",
"116 634 OFFCURVE",
"106 643 OFFCURVE",
"95 643 CURVE SMOOTH",
"85 643 OFFCURVE",
"74 634 OFFCURVE",
"74 615 CURVE SMOOTH",
"74 20 LINE SMOOTH",
"74 2 OFFCURVE",
"85 -7 OFFCURVE",
"95 -7 CURVE SMOOTH"
);
}
);
width = 433;
},
{
layerId = "85CA6BE8-4AFB-4921-9C51-19E8EEB169E9";
paths = (
{
closed = 1;
nodes = (
"481.947 29.59 CURVE SMOOTH",
"481.947 10.537 OFFCURVE",
"465.273 -6.48 OFFCURVE",
"446.603 -6.48 CURVE SMOOTH",
"437.101 -6.48 OFFCURVE",
"428.639 -2.34 OFFCURVE",
"417 8 CURVE SMOOTH",
"166 231 LINE",
"147 212 LINE",
"147 35 LINE SMOOTH",
"147 7.428 OFFCURVE",
"134.485 -7 OFFCURVE",
"110.57 -7 CURVE SMOOTH",
"87.306 -7 OFFCURVE",
"75 6.493 OFFCURVE",
"75 32 CURVE SMOOTH",
"75 600 LINE SMOOTH",
"75 625.122 OFFCURVE",
"90.224 643.529 OFFCURVE",
"111 643.529 CURVE SMOOTH",
"131.777 643.529 OFFCURVE",
"147 625.122 OFFCURVE",
"147 600 CURVE SMOOTH",
"147 282 LINE",
"343 452 LINE SMOOTH",
"355.128 462.519 OFFCURVE",
"363 466.294 OFFCURVE",
"372.808 466.294 CURVE SMOOTH",
"392.52 466.294 OFFCURVE",
"409.836 450.207 OFFCURVE",
"409.836 431.893 CURVE SMOOTH",
"409.836 421.469 OFFCURVE",
"404.174 411.139 OFFCURVE",
"394 403 CURVE SMOOTH",
"219 263 LINE",
"468 57 LINE SMOOTH",
"476.95 49.596 OFFCURVE",
"481.947 39.774 OFFCURVE"
);
}
);
width = 496;
}
);
unicode = 006B;
},
{
glyphname = l;
lastChange = "2016-06-28 16:50:43 +0000";
layers = (
{
layerId = "E470338E-0F5C-48CE-A795-CCBFA337B20F";
paths = (
{
closed = 1;
nodes = (
"192 0 LINE SMOOTH",
"212 0 OFFCURVE",
"222 10 OFFCURVE",
"222 21 CURVE SMOOTH",
"222 31 OFFCURVE",
"212 42 OFFCURVE",
"190 42 CURVE SMOOTH",
"147.333 42 OFFCURVE",
"132 59.333 OFFCURVE",
"132 106 CURVE SMOOTH",
"132 613 LINE SMOOTH",
"132 633 OFFCURVE",
"122 643 OFFCURVE",
"111 643 CURVE SMOOTH",
"101 643 OFFCURVE",
"90 633 OFFCURVE",
"90 613 CURVE SMOOTH",
"90 124 LINE SMOOTH",
"90 30.667 OFFCURVE",
"111.667 0 OFFCURVE",
"185 0 CURVE SMOOTH"
);
}
);
width = 260;
},
{
layerId = "85CA6BE8-4AFB-4921-9C51-19E8EEB169E9";
paths = (
{
closed = 1;
nodes = (
"200.768 0 CURVE SMOOTH",
"120.684 0 OFFCURVE",
"91 35.966 OFFCURVE",
"91 133 CURVE SMOOTH",
"91 598 LINE SMOOTH",
"91 627.076 OFFCURVE",
"103.739 643 OFFCURVE",
"127 643 CURVE SMOOTH",
"150.261 643 OFFCURVE",
"163 627.076 OFFCURVE",
"163 598 CURVE SMOOTH",
"163 118 LINE SMOOTH",
"163 33.126 OFFCURVE",
"253 104.617 OFFCURVE",
"253 39.292 CURVE SMOOTH",
"253 11.878 OFFCURVE",
"237.21 0 OFFCURVE"
);
}
);
width = 294;
}
);
unicode = 006C;
},
{
glyphname = m;
lastChange = "2016-06-28 16:50:45 +0000";
layers = (
{
layerId = "E470338E-0F5C-48CE-A795-CCBFA337B20F";
paths = (
{
closed = 1;
nodes = (
"106 -7 OFFCURVE",
"116 3 OFFCURVE",
"116 23 CURVE SMOOTH",
"116 232 LINE SMOOTH",
"116 352 OFFCURVE",
"165.667 419 OFFCURVE",
"251 419 CURVE SMOOTH",
"345.468 419 OFFCURVE",
"386 408.017 OFFCURVE",
"386 286 CURVE SMOOTH",
"386 23 LINE SMOOTH",
"386 3 OFFCURVE",
"397 -7 OFFCURVE",
"407 -7 CURVE SMOOTH",
"418 -7 OFFCURVE",
"428 3 OFFCURVE",
"428 23 CURVE SMOOTH",
"428 232 LINE SMOOTH",
"428 352 OFFCURVE",
"477.667 419 OFFCURVE",
"563 419 CURVE SMOOTH",
"658.515 419 OFFCURVE",
"699 408.017 OFFCURVE",
"699 286 CURVE SMOOTH",
"699 23 LINE SMOOTH",
"699 3 OFFCURVE",
"710 -7 OFFCURVE",
"720 -7 CURVE SMOOTH",
"731 -7 OFFCURVE",
"741 3 OFFCURVE",
"741 23 CURVE SMOOTH",
"741 286 LINE SMOOTH",
"741 426 OFFCURVE",
"683.333 461 OFFCURVE",
"558 461 CURVE SMOOTH",
"495.333 461 OFFCURVE",
"448.333 432 OFFCURVE",
"417 374 CURVE",
"394.333 442 OFFCURVE",
"337 461 OFFCURVE",
"261 461 CURVE SMOOTH",
"185 461 OFFCURVE",
"156 441 OFFCURVE",
"116 389 CURVE",
"116 437 LINE SMOOTH",
"116 457.667 OFFCURVE",
"108.333 468 OFFCURVE",
"93 468 CURVE SMOOTH",
"80.333 468 OFFCURVE",
"74 457.667 OFFCURVE",
"74 437 CURVE SMOOTH",
"74 23 LINE SMOOTH",
"74 3 OFFCURVE",
"85 -7 OFFCURVE",
"95 -7 CURVE SMOOTH"
);
}
);
width = 812;
},
{
layerId = "85CA6BE8-4AFB-4921-9C51-19E8EEB169E9";
paths = (
{
closed = 1;
nodes = (
"110 -7 CURVE SMOOTH",
"86.422 -7 OFFCURVE",
"74 7.492 OFFCURVE",
"74 35 CURVE SMOOTH",
"74 425 LINE SMOOTH",
"74 453.324 OFFCURVE",
"86.195 468 OFFCURVE",
"109.73 468 CURVE SMOOTH",
"135.23 468 OFFCURVE",
"146.427 451.329 OFFCURVE",
"146 414 CURVE",
"178.892 446.924 OFFCURVE",
"222.132 461 OFFCURVE",
"290.377 461 CURVE SMOOTH",
"366.673 461 OFFCURVE",
"424.681 435.198 OFFCURVE",
"450 390 CURVE",
"489.127 438.785 OFFCURVE",
"543.772 461 OFFCURVE",
"624.652 461 CURVE SMOOTH",
"746.535 461 OFFCURVE",
"799 407.436 OFFCURVE",
"799 283 CURVE SMOOTH",
"799 35 LINE SMOOTH",
"799 7.492 OFFCURVE",
"786.578 -7 OFFCURVE",
"763 -7 CURVE SMOOTH",
"739.422 -7 OFFCURVE",
"727 7.492 OFFCURVE",
"727 35 CURVE SMOOTH",
"727 280 LINE SMOOTH",
"727 365.285 OFFCURVE",
"708.253 389 OFFCURVE",
"640.832 389 CURVE SMOOTH",
"526.589 389 OFFCURVE",
"473 337.911 OFFCURVE",
"473 229 CURVE SMOOTH",
"473 35 LINE SMOOTH",
"473 7.474 OFFCURVE",
"460.249 -7 OFFCURVE",
"436 -7 CURVE SMOOTH",
"411.751 -7 OFFCURVE",
"399 7.474 OFFCURVE",
"399 35 CURVE SMOOTH",
"399 280 LINE SMOOTH",
"399 363.826 OFFCURVE",
"378.527 389 OFFCURVE",
"310.356 389 CURVE SMOOTH",
"196.738 389 OFFCURVE",
"146 339.607 OFFCURVE",
"146 229 CURVE SMOOTH",
"146 35 LINE SMOOTH",
"146 7.492 OFFCURVE",
"133.578 -7 OFFCURVE"
);
}
);
width = 869;
}
);
unicode = 006D;
},
{
glyphname = n;
lastChange = "2016-06-28 17:04:33 +0000";
layers = (
{
layerId = "E470338E-0F5C-48CE-A795-CCBFA337B20F";
paths = (
{
closed = 1;
nodes = (
"106 -7 OFFCURVE",
"116 3 OFFCURVE",
"116 23 CURVE SMOOTH",
"116 232 LINE SMOOTH",
"116 352 OFFCURVE",
"175.333 419 OFFCURVE",
"282 419 CURVE SMOOTH",
"311 419 LINE SMOOTH",
"422.143 419 OFFCURVE",
"476 408.017 OFFCURVE",
"476 286 CURVE SMOOTH",
"476 23 LINE SMOOTH",
"476 3 OFFCURVE",
"487 -7 OFFCURVE",
"497 -7 CURVE SMOOTH",
"508 -7 OFFCURVE",
"518 3 OFFCURVE",
"518 23 CURVE SMOOTH",
"518 286 LINE SMOOTH",
"518 426 OFFCURVE",
"451 461 OFFCURVE",
"311 461 CURVE SMOOTH",
"282 461 LINE SMOOTH",
"208.667 461 OFFCURVE",
"153.333 437 OFFCURVE",
"116 389 CURVE",
"116 437 LINE SMOOTH",
"116 457.667 OFFCURVE",
"108.333 468 OFFCURVE",
"93 468 CURVE SMOOTH",
"80.333 468 OFFCURVE",
"74 457.667 OFFCURVE",
"74 437 CURVE SMOOTH",
"74 23 LINE SMOOTH",
"74 3 OFFCURVE",
"85 -7 OFFCURVE",
"95 -7 CURVE SMOOTH"
);
}
);
width = 587;
},
{
layerId = "85CA6BE8-4AFB-4921-9C51-19E8EEB169E9";
paths = (
{
closed = 1;
nodes = (
"133.137 -7 OFFCURVE",
"146 8.007 OFFCURVE",
"146 35 CURVE SMOOTH",
"146 229 LINE SMOOTH",
"146 318.274 OFFCURVE",
"205.809 389.307 OFFCURVE",
"280.977 389.307 CURVE SMOOTH",
"499.668 389.307 OFFCURVE",
"536 373.734 OFFCURVE",
"536 280 CURVE SMOOTH",
"536 35 LINE SMOOTH",
"536 8.007 OFFCURVE",
"548.863 -7 OFFCURVE",
"572 -7 CURVE SMOOTH",
"595.137 -7 OFFCURVE",
"608 8.007 OFFCURVE",
"608 35 CURVE SMOOTH",
"608 283 LINE SMOOTH",
"608 414.208 OFFCURVE",
"539.939 461 OFFCURVE",
"349.09 461 CURVE SMOOTH",
"249.845 461 OFFCURVE",
"189.85 446.229 OFFCURVE",
"146 411 CURVE",
"148.061 448.093 OFFCURVE",
"135.242 468 OFFCURVE",
"109.296 468 CURVE SMOOTH",
"86.453 468 OFFCURVE",
"74 452.829 OFFCURVE",
"74 425 CURVE SMOOTH",
"74 35 LINE SMOOTH",
"74 8.007 OFFCURVE",
"86.863 -7 OFFCURVE",
"110 -7 CURVE SMOOTH"
);
}
);
width = 678;
}
);
unicode = 006E;
},
{
glyphname = o;
lastChange = "2016-06-28 17:34:26 +0000";
layers = (
{
layerId = "E470338E-0F5C-48CE-A795-CCBFA337B20F";
paths = (
{
closed = 1;
nodes = (
"299 0 LINE SMOOTH",
"439 0 OFFCURVE",
"506 35 OFFCURVE",
"506 175 CURVE SMOOTH",
"506 286 LINE SMOOTH",
"506 426 OFFCURVE",
"439 461 OFFCURVE",
"299 461 CURVE SMOOTH",
"270 461 LINE SMOOTH",
"128.667 461 OFFCURVE",
"62 426 OFFCURVE",
"62 286 CURVE SMOOTH",
"62 175 LINE SMOOTH",
"62 35 OFFCURVE",
"128.667 0 OFFCURVE",
"270 0 CURVE SMOOTH"
);
},
{
closed = 1;
nodes = (
"157.186 42 OFFCURVE",
"104 52.983 OFFCURVE",
"104 175 CURVE SMOOTH",
"104 286 LINE SMOOTH",
"104 408.017 OFFCURVE",
"157.186 419 OFFCURVE",
"270 419 CURVE SMOOTH",
"299 419 LINE SMOOTH",
"410.143 419 OFFCURVE",
"464 408.017 OFFCURVE",
"464 286 CURVE SMOOTH",
"464 175 LINE SMOOTH",
"464 52.983 OFFCURVE",
"410.143 42 OFFCURVE",
"299 42 CURVE SMOOTH",
"270 42 LINE SMOOTH"
);
}
);
width = 568;
},
{
layerId = "85CA6BE8-4AFB-4921-9C51-19E8EEB169E9";
paths = (
{
closed = 1;
nodes = (
"524.821 -0.001 OFFCURVE",
"595 50.518 OFFCURVE",
"595 178 CURVE SMOOTH",
"595 283 LINE SMOOTH",
"595 416.365 OFFCURVE",
"524.444 461.002 OFFCURVE",
"313.641 461.002 CURVE SMOOTH",
"131.242 461.002 OFFCURVE",
"61 411.512 OFFCURVE",
"61 283 CURVE SMOOTH",
"61 178 LINE SMOOTH",
"61 43.907 OFFCURVE",
"131.729 -0.001 OFFCURVE",
"347.729 -0.001 CURVE SMOOTH"
);
},
{
closed = 1;
nodes = (
"213 70 OFFCURVE",
"133 65 OFFCURVE",
"133 181 CURVE SMOOTH",
"133 280 LINE SMOOTH",
"133 410 OFFCURVE",
"240 391 OFFCURVE",
"375.325 391.112 CURVE SMOOTH",
"483.28 391.112 OFFCURVE",
"523 361.226 OFFCURVE",
"523 280 CURVE SMOOTH",
"523 181 LINE SMOOTH",
"523 60.921 OFFCURVE",
"429.423 69.977 OFFCURVE",
"322.997 69.977 CURVE SMOOTH"
);
}
);
width = 656;
}
);
unicode = 006F;
},
{
glyphname = p;
lastChange = "2016-06-28 16:50:43 +0000";
layers = (
{
layerId = "E470338E-0F5C-48CE-A795-CCBFA337B20F";
paths = (
{
closed = 1;
nodes = (
"109.333 -182 OFFCURVE",
"117 -172 OFFCURVE",
"117 -152 CURVE SMOOTH",
"117 0 LINE",
"312 0 LINE SMOOTH",
"452 0 OFFCURVE",
"519 35 OFFCURVE",
"519 175 CURVE SMOOTH",
"519 286 LINE SMOOTH",
"519 426 OFFCURVE",
"452 461 OFFCURVE",
"312 461 CURVE SMOOTH",
"283 461 LINE SMOOTH",
"209.667 461 OFFCURVE",
"154.333 437 OFFCURVE",
"117 389 CURVE",
"117 438 LINE SMOOTH",
"117 458 OFFCURVE",
"107 468 OFFCURVE",
"96 468 CURVE SMOOTH",
"86 468 OFFCURVE",
"75 458 OFFCURVE",
"75 438 CURVE SMOOTH",
"75 -152 LINE SMOOTH",
"75 -172 OFFCURVE",
"81.333 -182 OFFCURVE",
"94 -182 CURVE SMOOTH"
);
},
{
closed = 1;
nodes = (
"117 232 LINE SMOOTH",
"117 352 OFFCURVE",
"176.333 419 OFFCURVE",
"283 419 CURVE SMOOTH",
"312 419 LINE SMOOTH",
"423.143 419 OFFCURVE",
"477 408.017 OFFCURVE",
"477 286 CURVE SMOOTH",
"477 175 LINE SMOOTH",
"477 52.983 OFFCURVE",
"423.143 42 OFFCURVE",
"312 42 CURVE SMOOTH",
"117 42 LINE"
);
}
);
width = 581;
},
{
layerId = "85CA6BE8-4AFB-4921-9C51-19E8EEB169E9";
paths = (
{
closed = 1;
nodes = (
"537 280 LINE SMOOTH",
"537 396.24 OFFCURVE",
"460.383 389.317 OFFCURVE",
"363.83 389.317 CURVE SMOOTH",
"205.306 389.317 OFFCURVE",
"147 347.014 OFFCURVE",
"147 232 CURVE SMOOTH",
"147 72 LINE",
"402.799 71.759 LINE",
"504.359 71.759 OFFCURVE",
"537 98.329 OFFCURVE",
"537 181 CURVE SMOOTH"
);
},
{
closed = 1;
nodes = (
"609 178 LINE SMOOTH",
"609 47.698 OFFCURVE",
"542.277 0 OFFCURVE",
"360 0 CURVE SMOOTH",
"147 0 LINE",
"147 -137 LINE SMOOTH",
"147 -166.051 OFFCURVE",
"134.031 -182 OFFCURVE",
"110.408 -182 CURVE SMOOTH",
"87.283 -182 OFFCURVE",
"75 -166.389 OFFCURVE",
"75 -137 CURVE SMOOTH",
"75 426 LINE SMOOTH",
"75 453.364 OFFCURVE",
"87.599 468 OFFCURVE",
"111.154 468 CURVE SMOOTH",
"136.967 468 OFFCURVE",
"147.765 450.831 OFFCURVE",
"147 411 CURVE",
"190.867 446.267 OFFCURVE",
"250.585 461 OFFCURVE",
"349.673 461 CURVE SMOOTH",
"541.288 461 OFFCURVE",
"609 414.523 OFFCURVE",
"609 283 CURVE SMOOTH"
);
}
);
width = 670;
}
);
unicode = 0070;
},
{
glyphname = q;
lastChange = "2016-06-28 16:50:43 +0000";
layers = (
{
layerId = "E470338E-0F5C-48CE-A795-CCBFA337B20F";
paths = (
{
closed = 1;
nodes = (
"499.667 -182 OFFCURVE",
"506 -172 OFFCURVE",
"506 -152 CURVE SMOOTH",
"506 438 LINE SMOOTH",
"506 458 OFFCURVE",
"496 468 OFFCURVE",
"485 468 CURVE SMOOTH",
"475 468 OFFCURVE",
"464 458 OFFCURVE",
"464 438 CURVE SMOOTH",
"464 389 LINE",
"428 437 OFFCURVE",
"373 461 OFFCURVE",
"299 461 CURVE SMOOTH",
"270 461 LINE SMOOTH",
"128.667 461 OFFCURVE",
"62 426 OFFCURVE",
"62 286 CURVE SMOOTH",
"62 175 LINE SMOOTH",
"62 35 OFFCURVE",
"128.667 0 OFFCURVE",
"270 0 CURVE SMOOTH",
"464 0 LINE",
"464 -152 LINE SMOOTH",
"464 -172 OFFCURVE",
"471.667 -182 OFFCURVE",
"487 -182 CURVE SMOOTH"
);
},
{
closed = 1;
nodes = (
"157.186 42 OFFCURVE",
"104 52.983 OFFCURVE",
"104 175 CURVE SMOOTH",
"104 286 LINE SMOOTH",
"104 408.017 OFFCURVE",
"157.186 419 OFFCURVE",
"270 419 CURVE SMOOTH",
"299 419 LINE SMOOTH",
"404.333 419 OFFCURVE",
"464 352 OFFCURVE",
"464 232 CURVE SMOOTH",
"464 42 LINE",
"270 42 LINE SMOOTH"
);
}
);
width = 581;
},
{
layerId = "85CA6BE8-4AFB-4921-9C51-19E8EEB169E9";
paths = (
{
closed = 1;
nodes = (
"133 280 CURVE SMOOTH",
"133 181 LINE SMOOTH",
"133 61.416 OFFCURVE",
"213.382 72 OFFCURVE",
"311 72 CURVE SMOOTH",
"523 72 LINE",
"523 232 LINE SMOOTH",
"523 344.407 OFFCURVE",
"462.119 389 OFFCURVE",
"308.654 389 CURVE SMOOTH",
"242.79 389 OFFCURVE",
"185.694 381.152 OFFCURVE",
"165.488 369.322 CURVE SMOOTH",
"143.875 356.668 OFFCURVE",
"133 326.769 OFFCURVE"
);
},
{
closed = 1;
nodes = (
"61 178 CURVE SMOOTH",
"61 283 LINE SMOOTH",
"61 463.579 OFFCURVE",
"200.06 461 OFFCURVE",
"270.859 461 CURVE SMOOTH",
"416.101 461 OFFCURVE",
"477.607 448.803 OFFCURVE",
"523 411 CURVE",
"523 452.431 OFFCURVE",
"532.763 468 OFFCURVE",
"558.743 468 CURVE SMOOTH",
"582.693 468 OFFCURVE",
"595 453.744 OFFCURVE",
"595 426 CURVE SMOOTH",
"595 -137 LINE SMOOTH",
"595 -166.505 OFFCURVE",
"583.3 -182 OFFCURVE",
"561.021 -182 CURVE SMOOTH",
"537.592 -182 OFFCURVE",
"523 -164.729 OFFCURVE",
"523 -137 CURVE SMOOTH",
"523 0 LINE",
"311 0 LINE SMOOTH",
"127.663 0 OFFCURVE",
"61 47.464 OFFCURVE"
);
}
);
width = 670;
}
);
unicode = 0071;
},
{
glyphname = r;
lastChange = "2016-06-28 16:50:45 +0000";
layers = (
{
layerId = "E470338E-0F5C-48CE-A795-CCBFA337B20F";
paths = (
{
closed = 1;
nodes = (
"106 -7 OFFCURVE",
"116 3 OFFCURVE",
"116 23 CURVE SMOOTH",
"116 232 LINE SMOOTH",
"116 352 OFFCURVE",
"175.333 419 OFFCURVE",
"282 419 CURVE SMOOTH",
"328 419 LINE SMOOTH",
"348 419 OFFCURVE",
"358 430 OFFCURVE",
"358 440 CURVE SMOOTH",
"358 451 OFFCURVE",
"348 461 OFFCURVE",
"328 461 CURVE SMOOTH",
"282 461 LINE SMOOTH",
"208.667 461 OFFCURVE",
"153.333 437 OFFCURVE",
"116 389 CURVE",
"116 437 LINE SMOOTH",
"116 457.667 OFFCURVE",
"108.333 468 OFFCURVE",
"93 468 CURVE SMOOTH",
"80.333 468 OFFCURVE",
"74 457.667 OFFCURVE",
"74 437 CURVE SMOOTH",
"74 23 LINE SMOOTH",
"74 3 OFFCURVE",
"85 -7 OFFCURVE",
"95 -7 CURVE SMOOTH"
);
}
);
width = 372;
},
{
layerId = "85CA6BE8-4AFB-4921-9C51-19E8EEB169E9";
paths = (
{
closed = 1;
nodes = (
"110 -7 CURVE SMOOTH",
"86.728 -7 OFFCURVE",
"74 7.849 OFFCURVE",
"74 35 CURVE SMOOTH",
"74 425 LINE SMOOTH",
"74 453.031 OFFCURVE",
"86.453 468 OFFCURVE",
"109.771 468 CURVE SMOOTH",
"135.471 468 OFFCURVE",
"146.608 450.478 OFFCURVE",
"146 411 CURVE",
"184.734 443.255 OFFCURVE",
"238.325 461 OFFCURVE",
"297 461 CURVE SMOOTH",
"343 461 LINE SMOOTH",
"372.076 461 OFFCURVE",
"388 448.26 OFFCURVE",
"388 425 CURVE SMOOTH",
"388 401.74 OFFCURVE",
"372.076 389 OFFCURVE",
"343 389 CURVE SMOOTH",
"297 389 LINE SMOOTH",
"199.653 389 OFFCURVE",
"146 332.149 OFFCURVE",
"146 229 CURVE SMOOTH",
"146 35 LINE SMOOTH",
"146 7.849 OFFCURVE",
"133.273 -7 OFFCURVE"
);
}
);
width = 406;
}
);
unicode = 0072;
},
{
glyphname = s;
lastChange = "2016-06-28 16:50:43 +0000";
layers = (
{
layerId = "E470338E-0F5C-48CE-A795-CCBFA337B20F";
paths = (
{
closed = 1;
nodes = (
"383 0 LINE SMOOTH",
"465 0 OFFCURVE",
"506 41 OFFCURVE",
"506 123 CURVE SMOOTH",
"506 212.333 OFFCURVE",
"465 257 OFFCURVE",
"383 257 CURVE SMOOTH",
"166 257 LINE SMOOTH",
"128.667 257 OFFCURVE",
"102 288.333 OFFCURVE",
"102 343 CURVE SMOOTH",
"102 393.667 OFFCURVE",
"123.333 419 OFFCURVE",
"166 419 CURVE SMOOTH",
"402 419 LINE SMOOTH",
"447.333 419 OFFCURVE",
"462 398.667 OFFCURVE",
"462 356 CURVE SMOOTH",
"462 334.667 OFFCURVE",
"469 324 OFFCURVE",
"483 324 CURVE SMOOTH",
"497 324 OFFCURVE",
"504 340 OFFCURVE",
"504 362 CURVE SMOOTH",
"504 383 OFFCURVE",
"498 408 OFFCURVE",
"488 429 CURVE SMOOTH",
"478 450.333 OFFCURVE",
"453 461 OFFCURVE",
"413 461 CURVE",
"411.667 461 OFFCURVE",
"410.333 461 OFFCURVE",
"409 461 CURVE",
"184 461 LINE SMOOTH",
"94.667 461 OFFCURVE",
"60 420.333 OFFCURVE",
"60 343 CURVE SMOOTH",
"60 257.667 OFFCURVE",
"101.333 215 OFFCURVE",
"184 215 CURVE SMOOTH",
"400 215 LINE SMOOTH",
"437.333 215 OFFCURVE",
"464 179 OFFCURVE",
"464 123 CURVE SMOOTH",
"464 69 OFFCURVE",
"442.667 42 OFFCURVE",
"400 42 CURVE SMOOTH",
"162 42 LINE SMOOTH",
"116.667 42 OFFCURVE",
"102 61.167 OFFCURVE",
"102 104.5 CURVE SMOOTH",
"102 126.167 OFFCURVE",
"95 137 OFFCURVE",
"81 137 CURVE",
"69 138 OFFCURVE",
"59 116 OFFCURVE",
"59 89 CURVE SMOOTH",
"59 47 OFFCURVE",
"82 -6 OFFCURVE",
"155 0 CURVE"
);
}
);
width = 566;
},
{
layerId = "85CA6BE8-4AFB-4921-9C51-19E8EEB169E9";
paths = (
{
closed = 1;
nodes = (
"170 0 LINE SMOOTH",
"97.923 0 OFFCURVE",
"60 36.408 OFFCURVE",
"60 105.606 CURVE SMOOTH",
"60 145.973 OFFCURVE",
"72.895 167.606 OFFCURVE",
"96 166 CURVE",
"97 167 LINE",
"162.381 171.88 OFFCURVE",
"95.813 72 OFFCURVE",
"177 72 CURVE SMOOTH",
"445 72 LINE SMOOTH",
"475.712 72 OFFCURVE",
"494 93.56 OFFCURVE",
"494 129.765 CURVE SMOOTH",
"494 170.354 OFFCURVE",
"473.317 200 OFFCURVE",
"445 200 CURVE SMOOTH",
"199 200 LINE SMOOTH",
"110.848 200 OFFCURVE",
"60 248.847 OFFCURVE",
"60 333.529 CURVE SMOOTH",
"60 420.335 OFFCURVE",
"113.913 461 OFFCURVE",
"229 461 CURVE SMOOTH",
"454 461 LINE SMOOTH",
"526.403 461 OFFCURVE",
"564 423.637 OFFCURVE",
"564 351.686 CURVE SMOOTH",
"564 312.333 OFFCURVE",
"551.391 294 OFFCURVE",
"524.324 294 CURVE SMOOTH",
"462.484 294 OFFCURVE",
"526.596 389 OFFCURVE",
"447 389 CURVE SMOOTH",
"181 389 LINE SMOOTH",
"150.03 389 OFFCURVE",
"132 369.005 OFFCURVE",
"132 334.66 CURVE SMOOTH",
"132 297.393 OFFCURVE",
"151.857 272 OFFCURVE",
"181 272 CURVE SMOOTH",
"428 272 LINE SMOOTH",
"515.467 272 OFFCURVE",
"566 221.323 OFFCURVE",
"566 133.608 CURVE SMOOTH",
"566 43.536 OFFCURVE",
"511.257 0 OFFCURVE",
"398 0 CURVE SMOOTH"
);
}
);
width = 625;
}
);
unicode = 0073;
},
{
glyphname = t;
lastChange = "2016-06-28 16:50:43 +0000";
layers = (
{
layerId = "E470338E-0F5C-48CE-A795-CCBFA337B20F";
paths = (
{
closed = 1;
nodes = (
"305 0 OFFCURVE",
"315 7.667 OFFCURVE",
"315 23 CURVE SMOOTH",
"315 35.667 OFFCURVE",
"305 42 OFFCURVE",
"285 42 CURVE SMOOTH",
"172.186 42 OFFCURVE",
"119 52.983 OFFCURVE",
"119 175 CURVE SMOOTH",
"119 419 LINE",
"262 419 LINE SMOOTH",
"282.667 419 OFFCURVE",
"293 425.333 OFFCURVE",
"293 438 CURVE SMOOTH",
"293 453.333 OFFCURVE",
"282.667 461 OFFCURVE",
"262 461 CURVE SMOOTH",
"119 461 LINE",
"119 570 LINE SMOOTH",
"119 590.667 OFFCURVE",
"111.333 601 OFFCURVE",
"96 601 CURVE SMOOTH",
"83.333 601 OFFCURVE",
"77 590.667 OFFCURVE",
"77 570 CURVE SMOOTH",
"77 461 LINE",
"56 461 OFFCURVE",
"46 451 OFFCURVE",
"46 440 CURVE SMOOTH",
"46 430 OFFCURVE",
"56 419 OFFCURVE",
"77 419 CURVE",
"77 171 LINE SMOOTH",
"77 100.333 OFFCURVE",
"96 53.667 OFFCURVE",
"134 31 CURVE SMOOTH",
"167.333 10.333 OFFCURVE",
"217.667 0 OFFCURVE",
"285 0 CURVE SMOOTH"
);
}
);
width = 330;
},
{
layerId = "85CA6BE8-4AFB-4921-9C51-19E8EEB169E9";
paths = (
{
closed = 1;
nodes = (
"152 181 LINE SMOOTH",
"152 -4.542 OFFCURVE",
"348 125.784 OFFCURVE",
"348 38.041 CURVE SMOOTH",
"348 9.866 OFFCURVE",
"327.612 0 OFFCURVE",
"269.394 0 CURVE SMOOTH",
"140.862 0 OFFCURVE",
"80 57.201 OFFCURVE",
"80 178 CURVE SMOOTH",
"80 394 LINE",
"61.987 396.837 OFFCURVE",
"49 410.662 OFFCURVE",
"49 427 CURVE SMOOTH",
"49 443.338 OFFCURVE",
"61.987 457.163 OFFCURVE",
"80 460 CURVE",
"80 555 LINE SMOOTH",
"80 584.876 OFFCURVE",
"92.401 601 OFFCURVE",
"115.378 601 CURVE SMOOTH",
"138.87 601 OFFCURVE",
"152 584.508 OFFCURVE",
"152 555 CURVE SMOOTH",
"152 461 LINE",
"280 461 LINE SMOOTH",
"309.508 461 OFFCURVE",
"326 447.87 OFFCURVE",
"326 424.378 CURVE SMOOTH",
"326 401.401 OFFCURVE",
"309.876 389 OFFCURVE",
"280 389 CURVE SMOOTH",
"152 389 LINE"
);
}
);
width = 373;
}
);
unicode = 0074;
},
{
glyphname = u;
lastChange = "2016-06-28 16:50:43 +0000";
layers = (
{
layerId = "E470338E-0F5C-48CE-A795-CCBFA337B20F";
paths = (
{
closed = 1;
nodes = (
"507.667 -7 OFFCURVE",
"514 3.333 OFFCURVE",
"514 24 CURVE SMOOTH",
"514 438 LINE SMOOTH",
"514 458 OFFCURVE",
"504 468 OFFCURVE",
"493 468 CURVE SMOOTH",
"483 468 OFFCURVE",
"472 458 OFFCURVE",
"472 438 CURVE SMOOTH",
"472 228 LINE SMOOTH",
"472 108 OFFCURVE",
"412.333 42 OFFCURVE",
"307 42 CURVE SMOOTH",
"278 42 LINE SMOOTH",
"165.186 42 OFFCURVE",
"112 52.983 OFFCURVE",
"112 175 CURVE SMOOTH",
"112 438 LINE SMOOTH",
"112 458 OFFCURVE",
"102 468 OFFCURVE",
"91 468 CURVE SMOOTH",
"81 468 OFFCURVE",
"70 458 OFFCURVE",
"70 438 CURVE SMOOTH",
"70 175 LINE SMOOTH",
"70 35 OFFCURVE",
"136.667 0 OFFCURVE",
"278 0 CURVE SMOOTH",
"307 0 LINE SMOOTH",
"381 0 OFFCURVE",
"436 24 OFFCURVE",
"472 72 CURVE",
"472 24 LINE SMOOTH",
"472 3.333 OFFCURVE",
"479.667 -7 OFFCURVE",
"495 -7 CURVE SMOOTH"
);
}
);
width = 588;
},
{
layerId = "85CA6BE8-4AFB-4921-9C51-19E8EEB169E9";
paths = (
{
closed = 1;
nodes = (
"568 468 CURVE SMOOTH",
"590.291 468 OFFCURVE",
"604 452.006 OFFCURVE",
"604 426 CURVE SMOOTH",
"604 36 LINE SMOOTH",
"604 9.04 OFFCURVE",
"590.889 -7 OFFCURVE",
"568.854 -7 CURVE SMOOTH",
"543.534 -7 OFFCURVE",
"529.362 14.92 OFFCURVE",
"532 50 CURVE",
"488.024 14.887 OFFCURVE",
"427.584 0 OFFCURVE",
"329.003 0 CURVE SMOOTH",
"139.299 0 OFFCURVE",
"70 47.625 OFFCURVE",
"70 178 CURVE SMOOTH",
"70 426 LINE SMOOTH",
"70 452.006 OFFCURVE",
"83.709 468 OFFCURVE",
"106 468 CURVE SMOOTH",
"128.291 468 OFFCURVE",
"142 452.006 OFFCURVE",
"142 426 CURVE SMOOTH",
"142 181 LINE SMOOTH",
"142 90.713 OFFCURVE",
"178.649 71.694 OFFCURVE",
"352.627 71.694 CURVE SMOOTH",
"471.309 71.694 OFFCURVE",
"532 125.933 OFFCURVE",
"532 232 CURVE SMOOTH",
"532 426 LINE SMOOTH",
"532 452.006 OFFCURVE",
"545.709 468 OFFCURVE"
);
}
);
width = 678;
}
);
unicode = 0075;
},
{
glyphname = v;
lastChange = "2016-06-28 16:49:57 +0000";
layers = (
{
layerId = "E470338E-0F5C-48CE-A795-CCBFA337B20F";
paths = (
{
closed = 1;
nodes = (
"276 0 LINE",
"469 439 LINE",
"471 441 OFFCURVE",
"472 444.667 OFFCURVE",
"472 450 CURVE SMOOTH",
"472 462 OFFCURVE",
"465.667 468 OFFCURVE",
"453 468 CURVE SMOOTH",
"443.667 468 OFFCURVE",
"436 462 OFFCURVE",
"430 450 CURVE SMOOTH",
"250 46 LINE",
"243 46 LINE",
"70 449 LINE SMOOTH",
"64.667 461.667 OFFCURVE",
"58 468 OFFCURVE",
"50 468 CURVE SMOOTH",
"35.333 468 OFFCURVE",
"28 461.667 OFFCURVE",
"28 449 CURVE SMOOTH",
"28 443.667 OFFCURVE",
"29 440.333 OFFCURVE",
"31 439 CURVE",
"212 0 LINE"
);
}
);
width = 499;
},
{
layerId = "85CA6BE8-4AFB-4921-9C51-19E8EEB169E9";
paths = (
{
closed = 1;
nodes = (
"214 0 LINE",
"34 432 LINE SMOOTH",
"31.819 437.234 OFFCURVE",
"30.667 443.191 OFFCURVE",
"30.667 449.23 CURVE SMOOTH",
"30.667 469.378 OFFCURVE",
"43.599 483 OFFCURVE",
"62.726 483 CURVE SMOOTH",
"79.387 483 OFFCURVE",
"94.697 472.085 OFFCURVE",
"102 455 CURVE SMOOTH",
"264 76 LINE",
"432 456 LINE SMOOTH",
"439.8 473.642 OFFCURVE",
"453.64 483 OFFCURVE",
"471.935 483 CURVE SMOOTH",
"492.437 483 OFFCURVE",
"504 471.516 OFFCURVE",
"504 451.154 CURVE SMOOTH",
"504 444.314 OFFCURVE",
"502.707 438.123 OFFCURVE",
"500 432 CURVE SMOOTH",
"309 0 LINE"
);
}
);
width = 533;
}
);
unicode = 0076;
},
{
glyphname = w;
lastChange = "2016-06-28 16:50:43 +0000";
layers = (
{
layerId = "E470338E-0F5C-48CE-A795-CCBFA337B20F";
paths = (
{
closed = 1;
nodes = (
"250 0 LINE",
"386 384 LINE",
"512 0 LINE",
"583 0 LINE",
"738 439 LINE",
"740.667 441.667 OFFCURVE",
"742 445.667 OFFCURVE",
"742 451 CURVE SMOOTH",
"742 460.333 OFFCURVE",
"724.667 468 OFFCURVE",
"714 468 CURVE SMOOTH",
"706.667 468 OFFCURVE",
"701 462 OFFCURVE",
"697 450 CURVE SMOOTH",
"552 46 LINE",
"546 46 LINE",
"408 450 LINE",
"405 461 OFFCURVE",
"395 467 OFFCURVE",
"385 467 CURVE SMOOTH",
"375 467 OFFCURVE",
"366 461 OFFCURVE",
"364 450 CURVE",
"220 46 LINE",
"214 46 LINE",
"75 449 LINE SMOOTH",
"70.333 461.667 OFFCURVE",
"64.667 468 OFFCURVE",
"58 468 CURVE SMOOTH",
"39.613 468 OFFCURVE",
"22.358 442.881 OFFCURVE",
"34 439 CURVE",
"179 0 LINE"
);
}
);
width = 771;
},
{
layerId = "85CA6BE8-4AFB-4921-9C51-19E8EEB169E9";
paths = (
{
closed = 1;
nodes = (
"642 0 CURVE",
"547 0 LINE",
"418 354 LINE",
"277 0 LINE",
"184 0 LINE",
"160.135 67.621 OFFCURVE",
"32 402.181 OFFCURVE",
"32 448.306 CURVE SMOOTH",
"32 462.824 OFFCURVE",
"45.004 473 OFFCURVE",
"63.557 473 CURVE SMOOTH",
"82.328 473 OFFCURVE",
"98.113 462.071 OFFCURVE",
"104 445 CURVE SMOOTH",
"234 68 LINE",
"378 440 LINE SMOOTH",
"384.175 455.952 OFFCURVE",
"400.542 467 OFFCURVE",
"418.001 467 CURVE SMOOTH",
"435.606 467 OFFCURVE",
"452.119 455.854 OFFCURVE",
"458 440 CURVE SMOOTH",
"596 68 LINE",
"731 445 LINE SMOOTH",
"737.188 462.279 OFFCURVE",
"752.628 473 OFFCURVE",
"771.328 473 CURVE SMOOTH",
"789.551 473 OFFCURVE",
"803 463.191 OFFCURVE",
"803 449.9 CURVE SMOOTH",
"803 407.219 OFFCURVE",
"665.936 63.975 OFFCURVE"
);
}
);
width = 834;
}
);
unicode = 0077;
},
{
glyphname = x;
lastChange = "2016-06-28 16:50:45 +0000";
layers = (
{
layerId = "E470338E-0F5C-48CE-A795-CCBFA337B20F";
paths = (
{
closed = 1;
nodes = (
"64 -12 OFFCURVE",
"72 -8 OFFCURVE",
"79 1 CURVE SMOOTH",
"245 198 LINE",
"410 1 LINE SMOOTH",
"416.667 -7.667 OFFCURVE",
"422.667 -12 OFFCURVE",
"428 -12 CURVE",
"429 -12 LINE",
"434.333 -12 OFFCURVE",
"439 -10 OFFCURVE",
"443 -6 CURVE SMOOTH",
"448 -2 OFFCURVE",
"450 2 OFFCURVE",
"450 7 CURVE SMOOTH",
"450 13 OFFCURVE",
"447 20 OFFCURVE",
"441 29 CURVE",
"271 230 LINE",
"441 433 LINE SMOOTH",
"446 440 OFFCURVE",
"448 446 OFFCURVE",
"448 452 CURVE SMOOTH",
"448 464 OFFCURVE",
"441 472 OFFCURVE",
"431 472 CURVE SMOOTH",
"424 472 OFFCURVE",
"417 468 OFFCURVE",
"410 460 CURVE SMOOTH",
"245 263 LINE",
"79 460 LINE",
"71 469 OFFCURVE",
"65 472 OFFCURVE",
"59 472 CURVE SMOOTH",
"54 472 OFFCURVE",
"49 470 OFFCURVE",
"44 466 CURVE",
"40 462 OFFCURVE",
"38 458 OFFCURVE",
"38 453 CURVE SMOOTH",
"38 447 OFFCURVE",
"41 441 OFFCURVE",
"47 433 CURVE SMOOTH",
"217 230 LINE",
"47 29 LINE",
"42 22 OFFCURVE",
"40 14 OFFCURVE",
"40 8 CURVE SMOOTH",
"40 -4 OFFCURVE",
"47 -12 OFFCURVE",
"57 -12 CURVE SMOOTH"
);
}
);
width = 488;
},
{
layerId = "85CA6BE8-4AFB-4921-9C51-19E8EEB169E9";
paths = (
{
closed = 1;
nodes = (
"515.15 23.638 CURVE SMOOTH",
"515.15 5.114 OFFCURVE",
"496.895 -11.316 OFFCURVE",
"476.316 -11.316 CURVE SMOOTH",
"465.656 -11.316 OFFCURVE",
"454.959 -6.664 OFFCURVE",
"448 1 CURVE SMOOTH",
"280 186 LINE",
"111 1 LINE SMOOTH",
"103.877 -6.798 OFFCURVE",
"93.024 -11.517 OFFCURVE",
"82.217 -11.517 CURVE SMOOTH",
"61.378 -11.517 OFFCURVE",
"42.886 5.03 OFFCURVE",
"42.886 23.676 CURVE SMOOTH",
"42.886 32.633 OFFCURVE",
"47.006 41.585 OFFCURVE",
"55 50 CURVE SMOOTH",
"226 230 LINE",
"55 411 LINE SMOOTH",
"47.546 418.89 OFFCURVE",
"43.374 428.471 OFFCURVE",
"43.374 437.7 CURVE SMOOTH",
"43.374 456.562 OFFCURVE",
"61.168 473.002 OFFCURVE",
"81.585 473.002 CURVE SMOOTH",
"92.495 473.002 OFFCURVE",
"103.611 468.088 OFFCURVE",
"111 460 CURVE SMOOTH",
"280 275 LINE",
"448 460 LINE SMOOTH",
"455.217 467.947 OFFCURVE",
"466.178 472.791 OFFCURVE",
"476.946 472.791 CURVE SMOOTH",
"497.114 472.791 OFFCURVE",
"514.676 456.485 OFFCURVE",
"514.676 437.758 CURVE SMOOTH",
"514.676 428.528 OFFCURVE",
"510.484 418.922 OFFCURVE",
"503 411 CURVE SMOOTH",
"332 230 LINE",
"503 50 LINE SMOOTH",
"511.017 41.561 OFFCURVE",
"515.15 32.593 OFFCURVE"
);
}
);
width = 558;
}
);
unicode = 0078;
},
{
glyphname = y;
lastChange = "2016-06-28 16:50:43 +0000";
layers = (
{
layerId = "E470338E-0F5C-48CE-A795-CCBFA337B20F";
paths = (
{
closed = 1;
nodes = (
"162.333 -205 OFFCURVE",
"163.667 -205 OFFCURVE",
"165 -205 CURVE",
"428 -205 LINE SMOOTH",
"494.667 -205 OFFCURVE",
"514 -177.333 OFFCURVE",
"514 -92 CURVE SMOOTH",
"514 436 LINE SMOOTH",
"514 457 OFFCURVE",
"504 468 OFFCURVE",
"493 468 CURVE SMOOTH",
"483 468 OFFCURVE",
"472 457 OFFCURVE",
"472 436 CURVE SMOOTH",
"472 228 LINE SMOOTH",
"472 108 OFFCURVE",
"412.333 42 OFFCURVE",
"307 42 CURVE SMOOTH",
"278 42 LINE SMOOTH",
"165.186 42 OFFCURVE",
"112 52.983 OFFCURVE",
"112 175 CURVE SMOOTH",
"112 436 LINE SMOOTH",
"112 457 OFFCURVE",
"102 468 OFFCURVE",
"91 468 CURVE SMOOTH",
"81 468 OFFCURVE",
"70 457 OFFCURVE",
"70 436 CURVE SMOOTH",
"70 175 LINE SMOOTH",
"70 35 OFFCURVE",
"136.667 0 OFFCURVE",
"278 0 CURVE SMOOTH",
"307 0 LINE SMOOTH",
"381 0 OFFCURVE",
"436 24 OFFCURVE",
"472 72 CURVE",
"472 -108 LINE SMOOTH",
"472 -150.667 OFFCURVE",
"462.333 -163 OFFCURVE",
"421 -163 CURVE SMOOTH",
"172 -163 LINE SMOOTH",
"126.667 -163 OFFCURVE",
"112 -142.667 OFFCURVE",
"112 -100 CURVE SMOOTH",
"112 -78.667 OFFCURVE",
"105 -68 OFFCURVE",
"91 -68 CURVE SMOOTH",
"77 -68 OFFCURVE",
"70 -84 OFFCURVE",
"70 -106 CURVE SMOOTH",
"70 -127 OFFCURVE",
"76 -152 OFFCURVE",
"86 -173 CURVE SMOOTH",
"96 -194.333 OFFCURVE",
"121 -205 OFFCURVE",
"161 -205 CURVE"
);
}
);
width = 589;
},
{
layerId = "85CA6BE8-4AFB-4921-9C51-19E8EEB169E9";
paths = (
{
closed = 1;
nodes = (
"604 -77 LINE SMOOTH",
"604 -170.038 OFFCURVE",
"576.413 -205 OFFCURVE",
"503 -205 CURVE SMOOTH",
"180 -205 LINE SMOOTH",
"108.398 -205 OFFCURVE",
"70 -166.798 OFFCURVE",
"70 -95.561 CURVE SMOOTH",
"70 -56.382 OFFCURVE",
"83.074 -38 OFFCURVE",
"110.942 -38 CURVE SMOOTH",
"174.615 -38 OFFCURVE",
"105.236 -133 OFFCURVE",
"187 -133 CURVE SMOOTH",
"496 -133 LINE SMOOTH",
"524.672 -133 OFFCURVE",
"532 -124.857 OFFCURVE",
"532 -93 CURVE SMOOTH",
"532 50 LINE",
"487.986 14.817 OFFCURVE",
"427.702 0 OFFCURVE",
"328.577 0 CURVE SMOOTH",
"138.76 0 OFFCURVE",
"70 47.333 OFFCURVE",
"70 178 CURVE SMOOTH",
"70 426 LINE SMOOTH",
"70 452.404 OFFCURVE",
"83.368 468 OFFCURVE",
"106 468 CURVE SMOOTH",
"128.632 468 OFFCURVE",
"142 452.404 OFFCURVE",
"142 426 CURVE SMOOTH",
"142 181 LINE SMOOTH",
"142 101.67 OFFCURVE",
"175.933 71.72 OFFCURVE",
"265.814 71.72 CURVE SMOOTH",
"469.173 71.72 OFFCURVE",
"532 109.551 OFFCURVE",
"532 232 CURVE SMOOTH",
"532 426 LINE SMOOTH",
"532 452.404 OFFCURVE",
"545.368 468 OFFCURVE",
"568 468 CURVE SMOOTH",
"590.632 468 OFFCURVE",
"604 452.404 OFFCURVE",
"604 426 CURVE SMOOTH"
);
}
);
width = 679;
}
);
unicode = 0079;
},
{
glyphname = z;
lastChange = "2016-06-28 16:50:43 +0000";
layers = (
{
layerId = "E470338E-0F5C-48CE-A795-CCBFA337B20F";
paths = (
{
closed = 1;
nodes = (
"385 0 LINE SMOOTH",
"457 0 OFFCURVE",
"480 30.667 OFFCURVE",
"480 124 CURVE SMOOTH",
"480 145.333 OFFCURVE",
"473 156 OFFCURVE",
"459 156 CURVE",
"458 156 LINE",
"431.333 156 OFFCURVE",
"438.833 100.833 OFFCURVE",
"435.5 81.5 CURVE SMOOTH",
"432.167 62.167 OFFCURVE",
"414.333 42 OFFCURVE",
"377 42 CURVE SMOOTH",
"108 42 LINE",
"459 399 LINE",
"459 461 LINE",
"153 461 LINE SMOOTH",
"79.667 461 OFFCURVE",
"58 430.333 OFFCURVE",
"58 337 CURVE SMOOTH",
"58 317 OFFCURVE",
"68 306 OFFCURVE",
"78 306 CURVE SMOOTH",
"89 306 OFFCURVE",
"100 318 OFFCURVE",
"100 342 CURVE SMOOTH",
"100 390 OFFCURVE",
"108 419 OFFCURVE",
"160 419 CURVE SMOOTH",
"412 419 LINE",
"58 59 LINE",
"58 0 LINE"
);
}
);
width = 530;
},
{
layerId = "85CA6BE8-4AFB-4921-9C51-19E8EEB169E9";
paths = (
{
closed = 1;
nodes = (
"162 72 LINE",
"424 72 LINE SMOOTH",
"510.037 72 OFFCURVE",
"432.419 186 OFFCURVE",
"502.601 186 CURVE SMOOTH",
"531.356 186 OFFCURVE",
"542 167.751 OFFCURVE",
"542 118.451 CURVE SMOOTH",
"542 36.542 OFFCURVE",
"508.065 0 OFFCURVE",
"432 0 CURVE SMOOTH",
"60 0 LINE",
"60 74 LINE",
"422 389 LINE",
"177 389 LINE SMOOTH",
"91.954 389 OFFCURVE",
"169.08 276 OFFCURVE",
"99.126 276 CURVE SMOOTH",
"70.376 276 OFFCURVE",
"60 294.263 OFFCURVE",
"60 344.868 CURVE SMOOTH",
"60 425.879 OFFCURVE",
"93.267 461 OFFCURVE",
"170 461 CURVE SMOOTH",
"521 461 LINE",
"521 384 LINE"
);
}
);
width = 594;
}
);
unicode = 007A;
},
{
glyphname = braceleft;
lastChange = "2016-06-28 16:49:57 +0000";
layers = (
{
layerId = "E470338E-0F5C-48CE-A795-CCBFA337B20F";
paths = (
{
closed = 1;
nodes = (
"202 0 LINE",
"132.667 0 OFFCURVE",
"124 16 OFFCURVE",
"124 108 CURVE SMOOTH",
"124 117.881 OFFCURVE",
"152 209.794 OFFCURVE",
"152 232.5 CURVE SMOOTH",
"152 262.5 OFFCURVE",
"112 301 OFFCURVE",
"76 317 CURVE",
"95 328 LINE SMOOTH",
"120.333 342.667 OFFCURVE",
"152 373.667 OFFCURVE",
"152 403 CURVE SMOOTH",
"152 424.891 OFFCURVE",
"124 518.319 OFFCURVE",
"124 528 CURVE SMOOTH",
"124 618.667 OFFCURVE",
"132.667 636 OFFCURVE",
"202 636 CURVE",
"202 678 LINE",
"114 678 OFFCURVE",
"82 646.667 OFFCURVE",
"82 528 CURVE SMOOTH",
"82 510.412 OFFCURVE",
"110 418.807 OFFCURVE",
"110 400 CURVE SMOOTH",
"110 374.667 OFFCURVE",
"68.667 333 OFFCURVE",
"34 317 CURVE",
"53 306 LINE SMOOTH",
"78.333 292.667 OFFCURVE",
"110 261.333 OFFCURVE",
"110 236 CURVE SMOOTH",
"110 217.193 OFFCURVE",
"82 125.588 OFFCURVE",
"82 108 CURVE SMOOTH",
"82 -10.667 OFFCURVE",
"114 -42 OFFCURVE",
"202 -42 CURVE"
);
}
);
width = 250;
},
{
layerId = "85CA6BE8-4AFB-4921-9C51-19E8EEB169E9";
paths = (
{
closed = 1;
nodes = (
"40 327 LINE",
"80.448 348.075 OFFCURVE",
"113 385.56 OFFCURVE",
"113 411.063 CURVE SMOOTH",
"113 438.869 OFFCURVE",
"85 493.079 OFFCURVE",
"85 545.202 CURVE SMOOTH",
"85 583.618 OFFCURVE",
"97.717 632.354 OFFCURVE",
"113.74 655.344 CURVE SMOOTH",
"140.895 694.307 OFFCURVE",
"192.119 693.058 OFFCURVE",
"235 693 CURVE",
"235 621 LINE",
"153.507 621.176 OFFCURVE",
"157 606.458 OFFCURVE",
"157 577.722 CURVE SMOOTH",
"157 496.368 OFFCURVE",
"185 444.341 OFFCURVE",
"185 406.967 CURVE SMOOTH",
"185 375.896 OFFCURVE",
"163.966 345.374 OFFCURVE",
"123 317 CURVE",
"164.173 291.14 OFFCURVE",
"185 261.85 OFFCURVE",
"185 229.805 CURVE SMOOTH",
"185 191.394 OFFCURVE",
"157 143.143 OFFCURVE",
"157 59.194 CURVE SMOOTH",
"157 29.541 OFFCURVE",
"153.506 14.824 OFFCURVE",
"235 15 CURVE",
"235 -57 LINE",
"181.733 -56.379 OFFCURVE",
"136.412 -43.181 OFFCURVE",
"117.805 -22.873 CURVE SMOOTH",
"98.601 -1.913 OFFCURVE",
"84.332 42.72 OFFCURVE",
"84.332 81.829 CURVE SMOOTH",
"84.332 138.451 OFFCURVE",
"113 197.333 OFFCURVE",
"113 225.222 CURVE SMOOTH",
"113 250.015 OFFCURVE",
"82.625 284.043 OFFCURVE",
"40 307 CURVE"
);
}
);
width = 287;
}
);
unicode = 007B;
},
{
glyphname = bar;
lastChange = "2016-06-28 16:50:45 +0000";
layers = (
{
layerId = "E470338E-0F5C-48CE-A795-CCBFA337B20F";
paths = (
{
closed = 1;
nodes = (
"113 -7 OFFCURVE",
"123 2 OFFCURVE",
"123 20 CURVE SMOOTH",
"123 615 LINE SMOOTH",
"123 634 OFFCURVE",
"113 643 OFFCURVE",
"102 643 CURVE SMOOTH",
"92 643 OFFCURVE",
"81 634 OFFCURVE",
"81 615 CURVE SMOOTH",
"81 20 LINE SMOOTH",
"81 2 OFFCURVE",
"92 -7 OFFCURVE",
"102 -7 CURVE SMOOTH"
);
}
);
width = 204;
},
{
layerId = "85CA6BE8-4AFB-4921-9C51-19E8EEB169E9";
paths = (
{
closed = 1;
nodes = (
"153 33 LINE SMOOTH",
"153 6.58 OFFCURVE",
"140.778 -7 OFFCURVE",
"117 -7 CURVE SMOOTH",
"93.222 -7 OFFCURVE",
"81 6.58 OFFCURVE",
"81 33 CURVE SMOOTH",
"81 602 LINE SMOOTH",
"81 629.063 OFFCURVE",
"93.237 643 OFFCURVE",
"117 643 CURVE SMOOTH",
"140.763 643 OFFCURVE",
"153 629.063 OFFCURVE",
"153 602 CURVE SMOOTH"
);
}
);
width = 235;
}
);
unicode = 007C;
},
{
glyphname = braceright;
lastChange = "2016-06-28 16:49:57 +0000";
layers = (
{
layerId = "E470338E-0F5C-48CE-A795-CCBFA337B20F";
paths = (
{
closed = 1;
nodes = (
"136 -42 OFFCURVE",
"168 -10.667 OFFCURVE",
"168 108 CURVE SMOOTH",
"168 125.588 OFFCURVE",
"140 217.193 OFFCURVE",
"140 236 CURVE SMOOTH",
"140 261.333 OFFCURVE",
"181.333 303.333 OFFCURVE",
"216 318 CURVE",
"197 329 LINE SMOOTH",
"171.667 343.667 OFFCURVE",
"140 374.667 OFFCURVE",
"140 400 CURVE SMOOTH",
"140 418.807 OFFCURVE",
"168 510.412 OFFCURVE",
"168 528 CURVE SMOOTH",
"168 646.667 OFFCURVE",
"136 678 OFFCURVE",
"48 678 CURVE",
"48 636 LINE",
"117.333 636 OFFCURVE",
"126 618.667 OFFCURVE",
"126 528 CURVE SMOOTH",
"126 518.319 OFFCURVE",
"98 424.891 OFFCURVE",
"98 403 CURVE SMOOTH",
"98 373.667 OFFCURVE",
"139.333 332.667 OFFCURVE",
"174 318 CURVE",
"155 307 LINE SMOOTH",
"129.667 292.333 OFFCURVE",
"98 262.5 OFFCURVE",
"98 232.5 CURVE SMOOTH",
"98 209.794 OFFCURVE",
"126 117.881 OFFCURVE",
"126 108 CURVE SMOOTH",
"126 16 OFFCURVE",
"117.333 0 OFFCURVE",
"48 0 CURVE",
"48 -42 LINE"
);
}
);
width = 251;
},
{
layerId = "85CA6BE8-4AFB-4921-9C51-19E8EEB169E9";
paths = (
{
closed = 1;
nodes = (
"247 327 CURVE",
"247 307 LINE",
"204.234 283.967 OFFCURVE",
"174 249.443 OFFCURVE",
"174 223.643 CURVE SMOOTH",
"174 194.932 OFFCURVE",
"202 145.127 OFFCURVE",
"202 68.109 CURVE SMOOTH",
"202 -23.076 OFFCURVE",
"161.284 -57.035 OFFCURVE",
"52 -57 CURVE",
"52 15 LINE",
"133.494 14.804 OFFCURVE",
"130 29.57 OFFCURVE",
"130 59.233 CURVE SMOOTH",
"130 143.207 OFFCURVE",
"102 191.338 OFFCURVE",
"102 229.774 CURVE SMOOTH",
"102 261.842 OFFCURVE",
"122.831 291.149 OFFCURVE",
"164 317 CURVE",
"123.039 345.366 OFFCURVE",
"102 375.907 OFFCURVE",
"102 407.003 CURVE SMOOTH",
"102 444.406 OFFCURVE",
"130 496.297 OFFCURVE",
"130 577.681 CURVE SMOOTH",
"130 606.43 OFFCURVE",
"133.494 621.196 OFFCURVE",
"52 621 CURVE",
"52 693 LINE",
"94.947 693.064 OFFCURVE",
"146.247 694.022 OFFCURVE",
"174.248 654.651 CURVE SMOOTH",
"190.259 632.139 OFFCURVE",
"202 584.805 OFFCURVE",
"202 542.769 CURVE SMOOTH",
"202 485.244 OFFCURVE",
"174 441.227 OFFCURVE",
"174 412.425 CURVE SMOOTH",
"174 386.05 OFFCURVE",
"206.364 348.178 OFFCURVE"
);
}
);
width = 287;
}
);
unicode = 007D;
},
{
glyphname = asciitilde;
lastChange = "2016-06-28 16:50:45 +0000";
layers = (
{
layerId = "E470338E-0F5C-48CE-A795-CCBFA337B20F";
paths = (
{
closed = 1;
nodes = (
"99 182 OFFCURVE",
"105 184 OFFCURVE",
"112 190 CURVE",
"143 218 LINE",
"148 222 OFFCURVE",
"152 223 OFFCURVE",
"155 223 CURVE SMOOTH",
"157 223 OFFCURVE",
"160 222 OFFCURVE",
"162 221 CURVE SMOOTH",
"260 185 LINE SMOOTH",
"263 184 OFFCURVE",
"267 183 OFFCURVE",
"270 183 CURVE SMOOTH",
"275 183 OFFCURVE",
"280 185 OFFCURVE",
"286 190 CURVE SMOOTH",
"333 229 LINE",
"342 237 OFFCURVE",
"346 245 OFFCURVE",
"346 252 CURVE SMOOTH",
"346 262 OFFCURVE",
"336 269 OFFCURVE",
"325 269 CURVE SMOOTH",
"318 269 OFFCURVE",
"311 267 OFFCURVE",
"305 262 CURVE",
"274 234 LINE SMOOTH",
"270 230 OFFCURVE",
"266 229 OFFCURVE",
"263 229 CURVE SMOOTH",
"261 229 OFFCURVE",
"258 230 OFFCURVE",
"256 231 CURVE SMOOTH",
"158 267 LINE",
"153 268 OFFCURVE",
"150 269 OFFCURVE",
"146 269 CURVE SMOOTH",
"141 269 OFFCURVE",
"137 267 OFFCURVE",
"132 262 CURVE",
"85 223 LINE",
"76 217 OFFCURVE",
"73 210 OFFCURVE",
"73 204 CURVE SMOOTH",
"73 198 OFFCURVE",
"76 192 OFFCURVE",
"80 188 CURVE SMOOTH",
"84 184 OFFCURVE",
"88 182 OFFCURVE",
"93 182 CURVE SMOOTH"
);
}
);
width = 418;
},
{
layerId = "85CA6BE8-4AFB-4921-9C51-19E8EEB169E9";
paths = (
{
closed = 1;
nodes = (
"175.602 207.006 CURVE SMOOTH",
"150.221 207.006 OFFCURVE",
"133.651 166.513 OFFCURVE",
"105.397 166.513 CURVE SMOOTH",
"87.005 166.513 OFFCURVE",
"68.055 182.739 OFFCURVE",
"68.055 198.488 CURVE SMOOTH",
"68.055 228.819 OFFCURVE",
"133.242 284.072 OFFCURVE",
"169.027 284.072 CURVE SMOOTH",
"199.84 284.072 OFFCURVE",
"236.453 243.994 OFFCURVE",
"260.444 243.994 CURVE SMOOTH",
"284.413 243.994 OFFCURVE",
"305.964 284.001 OFFCURVE",
"333.793 284.001 CURVE SMOOTH",
"351.673 284.001 OFFCURVE",
"369.585 268.603 OFFCURVE",
"369.585 253.233 CURVE SMOOTH",
"369.585 222.454 OFFCURVE",
"304.548 166.928 OFFCURVE",
"268.497 166.928 CURVE SMOOTH",
"237.36 166.928 OFFCURVE",
"200.852 207.006 OFFCURVE"
);
}
);
width = 438;
}
);
unicode = 007E;
},
{
glyphname = exclamdown;
lastChange = "2016-06-28 16:50:45 +0000";
layers = (
{
layerId = "E470338E-0F5C-48CE-A795-CCBFA337B20F";
paths = (
{
closed = 1;
nodes = (
"120 -165 OFFCURVE",
"130 -156 OFFCURVE",
"130 -138 CURVE SMOOTH",
"130 282 LINE SMOOTH",
"130 301 OFFCURVE",
"120 310 OFFCURVE",
"109 310 CURVE SMOOTH",
"99 310 OFFCURVE",
"88 301 OFFCURVE",
"88 282 CURVE SMOOTH",
"88 -138 LINE SMOOTH",
"88 -156 OFFCURVE",
"99 -165 OFFCURVE",
"109 -165 CURVE SMOOTH"
);
},
{
closed = 1;
nodes = (
"129 414 OFFCURVE",
"155 433 OFFCURVE",
"155 452 CURVE SMOOTH",
"155 460 OFFCURVE",
"151 468 OFFCURVE",
"139.5 475 CURVE",
"131 483 OFFCURVE",
"121 486 OFFCURVE",
"111 486 CURVE SMOOTH",
"87 486 OFFCURVE",
"62 468 OFFCURVE",
"62 448 CURVE SMOOTH",
"62 440 OFFCURVE",
"66 432 OFFCURVE",
"77 425 CURVE",
"85 417 OFFCURVE",
"94 414 OFFCURVE",
"105 414 CURVE SMOOTH"
);
}
);
width = 218;
},
{
layerId = "85CA6BE8-4AFB-4921-9C51-19E8EEB169E9";
paths = (
{
closed = 1;
nodes = (
"88 282 LINE SMOOTH",
"88 307.297 OFFCURVE",
"103.078 325.529 OFFCURVE",
"124 325.529 CURVE SMOOTH",
"144.922 325.529 OFFCURVE",
"160 307.297 OFFCURVE",
"160 282 CURVE SMOOTH",
"160 -138 LINE SMOOTH",
"160 -165.449 OFFCURVE",
"147.766 -180 OFFCURVE",
"124.689 -180 CURVE SMOOTH",
"101.375 -180 OFFCURVE",
"88 -164.689 OFFCURVE",
"88 -138 CURVE SMOOTH"
);
},
{
closed = 1;
nodes = (
"124.985 397.972 CURVE SMOOTH",
"94.499 397.972 OFFCURVE",
"61.956 425.089 OFFCURVE",
"61.956 450.491 CURVE SMOOTH",
"61.956 475.753 OFFCURVE",
"92.504 502.028 OFFCURVE",
"121.874 502.028 CURVE SMOOTH",
"152.552 502.028 OFFCURVE",
"185.13 475.268 OFFCURVE",
"185.13 450.069 CURVE SMOOTH",
"185.13 424.779 OFFCURVE",
"154.182 397.972 OFFCURVE"
);
}
);
width = 247;
}
);
unicode = 00A1;
},
{
glyphname = cent;
lastChange = "2016-06-28 16:50:45 +0000";
layers = (
{
layerId = "E470338E-0F5C-48CE-A795-CCBFA337B20F";
paths = (
{
closed = 1;
nodes = (
"251 -7 OFFCURVE",
"261 2 OFFCURVE",
"261 20 CURVE SMOOTH",
"261 123 LINE",
"316 123 LINE SMOOTH",
"398.667 123 OFFCURVE",
"412 171.333 OFFCURVE",
"412 234 CURVE SMOOTH",
"412 251 OFFCURVE",
"402 260 OFFCURVE",
"392 260 CURVE SMOOTH",
"381 260 OFFCURVE",
"370 250 OFFCURVE",
"370 227.5 CURVE SMOOTH",
"370 184.167 OFFCURVE",
"354.333 165 OFFCURVE",
"309 165 CURVE SMOOTH",
"261 165 LINE",
"261 473 LINE",
"311 473 LINE SMOOTH",
"356.333 473 OFFCURVE",
"372 453.833 OFFCURVE",
"372 410.5 CURVE SMOOTH",
"372 389 OFFCURVE",
"383 378 OFFCURVE",
"393 378 CURVE SMOOTH",
"404 378 OFFCURVE",
"414 388 OFFCURVE",
"414 409 CURVE SMOOTH",
"414 473 OFFCURVE",
"395.333 515 OFFCURVE",
"318 515 CURVE SMOOTH",
"261 515 LINE",
"261 615 LINE SMOOTH",
"261 634 OFFCURVE",
"251 643 OFFCURVE",
"240 643 CURVE SMOOTH",
"230 643 OFFCURVE",
"219 634 OFFCURVE",
"219 615 CURVE SMOOTH",
"219 514 LINE",
"107 508.667 OFFCURVE",
"50 466.667 OFFCURVE",
"50 340 CURVE SMOOTH",
"50 298 LINE SMOOTH",
"50 170 OFFCURVE",
"105.667 129.333 OFFCURVE",
"219 124 CURVE",
"219 20 LINE SMOOTH",
"219 2 OFFCURVE",
"230 -7 OFFCURVE",
"240 -7 CURVE SMOOTH"
);
},
{
closed = 1;
nodes = (
"125.667 168.667 OFFCURVE",
"92 195.333 OFFCURVE",
"92 298 CURVE SMOOTH",
"92 340 LINE SMOOTH",
"92 440 OFFCURVE",
"128.333 469.333 OFFCURVE",
"219 472 CURVE",
"219 166 LINE"
);
}
);
width = 471;
},
{
layerId = "85CA6BE8-4AFB-4921-9C51-19E8EEB169E9";
paths = (
{
closed = 1;
nodes = (
"218 108 LINE",
"97.053 117.881 OFFCURVE",
"49 171.079 OFFCURVE",
"49 295.093 CURVE SMOOTH",
"49 454.517 OFFCURVE",
"95.399 518.737 OFFCURVE",
"218 529 CURVE",
"218 615 LINE SMOOTH",
"218 643.338 OFFCURVE",
"230.275 658 OFFCURVE",
"254 658 CURVE SMOOTH",
"277.725 658 OFFCURVE",
"290 643.338 OFFCURVE",
"290 615 CURVE SMOOTH",
"290 530 LINE",
"409.177 530 OFFCURVE",
"441 507.873 OFFCURVE",
"441 425.005 CURVE SMOOTH",
"441 382.25 OFFCURVE",
"429.377 363 OFFCURVE",
"403.562 363 CURVE SMOOTH",
"380.073 363 OFFCURVE",
"369 378.993 OFFCURVE",
"369 412.921 CURVE SMOOTH",
"369 468.345 OFFCURVE",
"340.297 458 OFFCURVE",
"290 458 CURVE",
"290 180 LINE",
"323 180 LINE SMOOTH",
"409.099 180 OFFCURVE",
"334.273 275 OFFCURVE",
"400.246 275 CURVE SMOOTH",
"428.943 275 OFFCURVE",
"441 257.474 OFFCURVE",
"441 215.762 CURVE SMOOTH",
"441 132.634 OFFCURVE",
"406.482 108 OFFCURVE",
"290 108 CURVE",
"290 20 LINE SMOOTH",
"290 -7.449 OFFCURVE",
"277.767 -22 OFFCURVE",
"254.689 -22 CURVE SMOOTH",
"231.375 -22 OFFCURVE",
"218 -6.689 OFFCURVE",
"218 20 CURVE SMOOTH"
);
},
{
closed = 1;
nodes = (
"218 181 CURVE",
"218 457 LINE",
"144.656 450.353 OFFCURVE",
"121 421.82 OFFCURVE",
"121 340 CURVE SMOOTH",
"121 298 LINE SMOOTH",
"121 213.94 OFFCURVE",
"142.854 187.58 OFFCURVE"
);
}
);
width = 498;
}
);
unicode = 00A2;
},
{
glyphname = sterling;
lastChange = "2016-06-28 16:50:43 +0000";
layers = (
{
layerId = "E470338E-0F5C-48CE-A795-CCBFA337B20F";
paths = (
{
closed = 1;
nodes = (
"405 0 LINE SMOOTH",
"424 0 OFFCURVE",
"433 11 OFFCURVE",
"433 21 CURVE SMOOTH",
"433 32 OFFCURVE",
"424 42 OFFCURVE",
"405 42 CURVE SMOOTH",
"109 42 LINE",
"133 322 LINE",
"176 322 LINE SMOOTH",
"194 322 OFFCURVE",
"203 333 OFFCURVE",
"203 343 CURVE SMOOTH",
"203 354 OFFCURVE",
"194 364 OFFCURVE",
"176 364 CURVE SMOOTH",
"137 364 LINE",
"146 468 LINE SMOOTH",
"155.333 578.667 OFFCURVE",
"200.667 601 OFFCURVE",
"274 601 CURVE SMOOTH",
"310.667 601 OFFCURVE",
"338 596.333 OFFCURVE",
"356 587 CURVE SMOOTH",
"378 575.667 OFFCURVE",
"389 548 OFFCURVE",
"389 504 CURVE SMOOTH",
"389 483 OFFCURVE",
"400 473 OFFCURVE",
"410 473 CURVE SMOOTH",
"421 473 OFFCURVE",
"431 483 OFFCURVE",
"431 501 CURVE SMOOTH",
"431 611.667 OFFCURVE",
"374.833 643 OFFCURVE",
"283.5 643 CURVE SMOOTH",
"237.833 643 OFFCURVE",
"199.333 633 OFFCURVE",
"168 613 CURVE SMOOTH",
"132 590.333 OFFCURVE",
"110.667 542 OFFCURVE",
"104 468 CURVE SMOOTH",
"66 31 LINE SMOOTH",
"65.333 29 OFFCURVE",
"65 26.333 OFFCURVE",
"65 23 CURVE SMOOTH",
"65 7.667 OFFCURVE",
"70.667 0 OFFCURVE",
"82 0 CURVE SMOOTH"
);
}
);
width = 491;
},
{
layerId = "85CA6BE8-4AFB-4921-9C51-19E8EEB169E9";
paths = (
{
closed = 1;
nodes = (
"297.784 658 CURVE SMOOTH",
"407.515 658 OFFCURVE",
"461 613.193 OFFCURVE",
"461 521.268 CURVE SMOOTH",
"461 476.805 OFFCURVE",
"448.368 458 OFFCURVE",
"418.501 458 CURVE SMOOTH",
"340.871 458 OFFCURVE",
"457.981 586 OFFCURVE",
"301.883 586 CURVE SMOOTH",
"161.738 586 OFFCURVE",
"177.143 482.825 OFFCURVE",
"168 379 CURVE",
"194.272 379 OFFCURVE",
"233.706 380.236 OFFCURVE",
"233.706 343.01 CURVE SMOOTH",
"233.706 303.756 OFFCURVE",
"189.861 307 OFFCURVE",
"163 307 CURVE",
"139 57 LINE",
"420 57 LINE SMOOTH",
"448.338 57 OFFCURVE",
"463 44.725 OFFCURVE",
"463 21 CURVE SMOOTH",
"463 -2.725 OFFCURVE",
"448.338 -15 OFFCURVE",
"420 -15 CURVE SMOOTH",
"97 -15 LINE SMOOTH",
"76.519 -15 OFFCURVE",
"65 -1.641 OFFCURVE",
"65 22.111 CURVE SMOOTH",
"65 28.09 OFFCURVE",
"65.734 30.965 OFFCURVE",
"66 34 CURVE SMOOTH",
"104 468 LINE SMOOTH",
"115.674 601.333 OFFCURVE",
"173.47 658 OFFCURVE"
);
}
);
width = 520;
}
);
unicode = 00A3;
},
{
glyphname = currency;
lastChange = "2016-06-28 16:50:45 +0000";
layers = (
{
layerId = "E470338E-0F5C-48CE-A795-CCBFA337B20F";
paths = (
{
closed = 1;
nodes = (
"97 56 OFFCURVE",
"105 60 OFFCURVE",
"112 68 CURVE",
"161 116 LINE",
"186 97 OFFCURVE",
"216 87 OFFCURVE",
"246 87 CURVE SMOOTH",
"277 87 OFFCURVE",
"307 97 OFFCURVE",
"332 116 CURVE",
"380 68 LINE",
"387 60 OFFCURVE",
"394 57 OFFCURVE",
"401 57 CURVE SMOOTH",
"412 57 OFFCURVE",
"420 65 OFFCURVE",
"420 76 CURVE SMOOTH",
"420 83 OFFCURVE",
"417 90 OFFCURVE",
"409 97 CURVE",
"361 145 LINE",
"380 170 OFFCURVE",
"390 200 OFFCURVE",
"390 231 CURVE SMOOTH",
"390 261 OFFCURVE",
"380 292 OFFCURVE",
"361 315 CURVE",
"409 364 LINE",
"417 372 OFFCURVE",
"421 379 OFFCURVE",
"421 386 CURVE SMOOTH",
"421 396 OFFCURVE",
"412 403 OFFCURVE",
"402 403 CURVE SMOOTH",
"395 403 OFFCURVE",
"387 400 OFFCURVE",
"380 393 CURVE SMOOTH",
"332 345 LINE",
"307 364 OFFCURVE",
"277 374 OFFCURVE",
"246 374 CURVE SMOOTH",
"216 374 OFFCURVE",
"186 364 OFFCURVE",
"161 345 CURVE",
"112 393 LINE SMOOTH",
"105 400 OFFCURVE",
"97 403 OFFCURVE",
"91 403 CURVE SMOOTH",
"81 403 OFFCURVE",
"73 395 OFFCURVE",
"73 385 CURVE SMOOTH",
"73 379 OFFCURVE",
"76 371 OFFCURVE",
"83 364 CURVE SMOOTH",
"131 315 LINE",
"112 291 OFFCURVE",
"103 261 OFFCURVE",
"103 230 CURVE SMOOTH",
"103 200 OFFCURVE",
"112 170 OFFCURVE",
"131 145 CURVE",
"83 97 LINE SMOOTH",
"75 89 OFFCURVE",
"72 82 OFFCURVE",
"72 75 CURVE SMOOTH",
"72 64 OFFCURVE",
"80 56 OFFCURVE",
"91 56 CURVE SMOOTH"
);
},
{
closed = 1;
nodes = (
"185.833 121 OFFCURVE",
"137 169.833 OFFCURVE",
"137 230.5 CURVE SMOOTH",
"137 291.167 OFFCURVE",
"185.833 340 OFFCURVE",
"246.5 340 CURVE SMOOTH",
"307.167 340 OFFCURVE",
"356 291.167 OFFCURVE",
"356 230.5 CURVE SMOOTH",
"356 169.833 OFFCURVE",
"307.167 121 OFFCURVE",
"246.5 121 CURVE SMOOTH"
);
}
);
width = 493;
},
{
layerId = "85CA6BE8-4AFB-4921-9C51-19E8EEB169E9";
paths = (
{
closed = 1;
nodes = (
"260.5 325 CURVE SMOOTH",
"209.319 325 OFFCURVE",
"166 281.681 OFFCURVE",
"166 230.5 CURVE SMOOTH",
"166 179.319 OFFCURVE",
"209.319 136 OFFCURVE",
"260.5 136 CURVE SMOOTH",
"311.681 136 OFFCURVE",
"355 179.319 OFFCURVE",
"355 230.5 CURVE SMOOTH",
"355 281.681 OFFCURVE",
"311.681 325 OFFCURVE"
);
},
{
closed = 1;
nodes = (
"71.855 385.322 CURVE SMOOTH",
"71.855 403.122 OFFCURVE",
"86.753 417.598 OFFCURVE",
"105.071 417.598 CURVE SMOOTH",
"133.849 417.598 OFFCURVE",
"159.725 381.275 OFFCURVE",
"177 364 CURVE",
"202.375 380.265 OFFCURVE",
"231.883 389.001 OFFCURVE",
"261.452 389.001 CURVE SMOOTH",
"290.435 389.001 OFFCURVE",
"319.274 380.615 OFFCURVE",
"344 365 CURVE",
"361.642 382.642 OFFCURVE",
"385.699 417.594 OFFCURVE",
"414.809 417.594 CURVE SMOOTH",
"433.871 417.594 OFFCURVE",
"450.34 403.59 OFFCURVE",
"450.34 387.38 CURVE SMOOTH",
"450.34 360.952 OFFCURVE",
"409.269 328.762 OFFCURVE",
"395 314 CURVE",
"410.606 289.288 OFFCURVE",
"419 260.084 OFFCURVE",
"419 230.5 CURVE SMOOTH",
"419 200.916 OFFCURVE",
"410.606 171.712 OFFCURVE",
"395 147 CURVE",
"412.304 129.879 OFFCURVE",
"448.288 103.635 OFFCURVE",
"448.288 74.959 CURVE SMOOTH",
"448.288 56.806 OFFCURVE",
"434.235 41.685 OFFCURVE",
"417.363 41.685 CURVE SMOOTH",
"389.953 41.685 OFFCURVE",
"359.844 80.6 OFFCURVE",
"344 96 CURVE",
"319.274 80.384 OFFCURVE",
"290.435 72 OFFCURVE",
"261.452 72 CURVE SMOOTH",
"231.883 72 OFFCURVE",
"202.375 80.735 OFFCURVE",
"177 97 CURVE",
"161.484 81.981 OFFCURVE",
"129.812 41.012 OFFCURVE",
"102.413 41.012 CURVE SMOOTH",
"85.707 41.012 OFFCURVE",
"71.368 56.658 OFFCURVE",
"71.368 74.885 CURVE SMOOTH",
"71.368 103.896 OFFCURVE",
"108.709 130.709 OFFCURVE",
"126 148 CURVE",
"110.473 170.009 OFFCURVE",
"102 199.133 OFFCURVE",
"102 230.5 CURVE SMOOTH",
"102 261.867 OFFCURVE",
"110.473 290.991 OFFCURVE",
"126 313 CURVE",
"109.137 329.863 OFFCURVE",
"71.855 356.935 OFFCURVE"
);
}
);
width = 521;
}
);
unicode = 00A4;
},
